<svg width="38" height="38" viewBox="0 0 38 38" fill="none" xmlns="http://www.w3.org/2000/svg">
<g clip-path="url(#clip0_277_1204)">
<path fill-rule="evenodd" clip-rule="evenodd" d="M25.0758 20.4499C25.3649 20.1608 25.5272 19.7687 25.5272 19.3599C25.5272 18.9511 25.3649 18.5591 25.0758 18.27L16.3546 9.54878C16.2124 9.40153 16.0423 9.28409 15.8542 9.20329C15.6661 9.12249 15.4638 9.07996 15.2591 9.07818C15.0544 9.0764 14.8514 9.11541 14.662 9.19293C14.4725 9.27044 14.3004 9.38492 14.1556 9.52967C14.0109 9.67442 13.8964 9.84655 13.8189 10.036C13.7414 10.2255 13.7023 10.4285 13.7041 10.6332C13.7059 10.8379 13.7484 11.0402 13.8292 11.2283C13.91 11.4164 14.0275 11.5865 14.1747 11.7287L21.806 19.3599L14.1747 26.9912C13.8939 27.282 13.7385 27.6714 13.742 28.0756C13.7455 28.4798 13.9077 28.8665 14.1935 29.1523C14.4793 29.4382 14.866 29.6003 15.2702 29.6038C15.6744 29.6073 16.0639 29.4519 16.3546 29.1711L25.0758 20.4499Z" fill="black"/>
</g>
<defs>
<clipPath id="clip0_277_1204">
<rect width="37" height="37" fill="white" transform="matrix(-1 0 0 1 37.8608 0.860352)"/>
</clipPath>
</defs>
</svg>
