<svg width="42" height="42" viewBox="0 0 42 42" fill="none" xmlns="http://www.w3.org/2000/svg">
<circle cx="21" cy="21" r="21" fill="#FF0000"/>
<path d="M24.4238 20.4609L23.8965 20.5V20.6758L24.502 20.7246C25.153 20.9329 25.6738 21.3366 26.0645 21.9355C26.4616 22.528 26.6602 23.2018 26.6602 23.957C26.6602 25.2201 26.1621 26.2422 25.166 27.0234C24.1764 27.8047 22.8743 28.1953 21.2598 28.1953C20.2376 28.1953 19.3164 28.0098 18.4961 27.6387C17.6823 27.2611 17.0345 26.7207 16.5527 26.0176C16.071 25.3079 15.8203 24.4876 15.8008 23.5566H18.2227C18.2227 24.3835 18.4896 25.0312 19.0234 25.5C19.5638 25.9688 20.2897 26.2031 21.2012 26.2031C22.1387 26.2031 22.8841 25.9948 23.4375 25.5781C23.9974 25.1615 24.2773 24.6016 24.2773 23.8984C24.2773 23.1693 24.0104 22.6126 23.4766 22.2285C22.9492 21.8379 22.1582 21.6426 21.1035 21.6426H20.3418V19.8164H21.1035C22.0085 19.8164 22.6823 19.6178 23.125 19.2207C23.5742 18.8236 23.7988 18.3092 23.7988 17.6777C23.7988 17.0592 23.597 16.5742 23.1934 16.2227C22.7897 15.8711 22.2331 15.6953 21.5234 15.6953C20.7682 15.6953 20.1595 15.8971 19.6973 16.3008C19.235 16.7044 18.9746 17.2513 18.916 17.9414H16.582C16.6276 17.069 16.8783 16.3073 17.334 15.6562C17.7962 15.0052 18.3919 14.5169 19.1211 14.1914C19.8503 13.8659 20.6576 13.7031 21.543 13.7031C22.9036 13.7031 24.0169 14.0645 24.8828 14.7871C25.7487 15.5098 26.1816 16.4668 26.1816 17.6582C26.1816 18.2702 26.0254 18.8398 25.7129 19.3672C25.4004 19.8945 24.9707 20.2591 24.4238 20.4609Z" fill="white"/>
</svg>
