<svg width="42" height="42" viewBox="0 0 42 42" fill="none" xmlns="http://www.w3.org/2000/svg">
<circle cx="21" cy="21" r="21" fill="#FF0000"/>
<path d="M26.0352 26.0176V28H15.8008V26.0176C18.6719 24.2077 20.6771 22.7233 21.8164 21.5645C22.9622 20.3991 23.5352 19.263 23.5352 18.1562C23.5352 17.4596 23.304 16.8802 22.8418 16.418C22.3796 15.9557 21.7773 15.7246 21.0352 15.7246C20.2474 15.7246 19.5996 15.9948 19.0918 16.5352C18.584 17.0755 18.3073 17.8242 18.2617 18.7812H15.918C15.9375 17.7917 16.1719 16.9095 16.6211 16.1348C17.0768 15.36 17.6953 14.7611 18.4766 14.3379C19.2643 13.9147 20.1465 13.7031 21.123 13.7031C22.5293 13.7031 23.6751 14.1328 24.5605 14.9922C25.4525 15.8516 25.8984 16.929 25.8984 18.2246C25.8984 18.765 25.804 19.3021 25.6152 19.8359C25.4264 20.3633 25.1628 20.8678 24.8242 21.3496C24.4922 21.8314 24.0625 22.3262 23.5352 22.834C23.0143 23.3418 22.4544 23.8301 21.8555 24.2988C21.2565 24.7611 20.5632 25.2559 19.7754 25.7832L19.2383 25.8418V26.0176H26.0352Z" fill="white"/>
</svg>
