<svg width="1000" height="1000" viewBox="0 0 1000 1000" fill="none" xmlns="http://www.w3.org/2000/svg">
<g clip-path="url(#clip0_208_1752)">
<path d="M916.667 0H83.3333C37.3096 0 0 37.3096 0 83.3333V916.667C0 962.69 37.3096 1000 83.3333 1000H916.667C962.69 1000 1000 962.69 1000 916.667V83.3333C1000 37.3096 962.69 0 916.667 0Z" fill="white"/>
<path d="M351.852 38.8887C356.272 38.8887 360.511 40.6446 363.637 43.7702C366.763 46.8958 368.519 51.1351 368.519 55.5553C368.519 59.9756 366.763 64.2148 363.637 67.3405C360.511 70.4661 356.272 72.222 351.852 72.222C347.432 72.222 343.192 70.4661 340.067 67.3405C336.941 64.2148 335.185 59.9756 335.185 55.5553C335.185 51.1351 336.941 46.8958 340.067 43.7702C343.192 40.6446 347.432 38.8887 351.852 38.8887ZM574.074 38.8887C578.494 38.8887 582.734 40.6446 585.859 43.7702C588.985 46.8958 590.741 51.1351 590.741 55.5553C590.741 59.9756 588.985 64.2148 585.859 67.3405C582.734 70.4661 578.494 72.222 574.074 72.222C569.654 72.222 565.415 70.4661 562.289 67.3405C559.163 64.2148 557.407 59.9756 557.407 55.5553C557.407 51.1351 559.163 46.8958 562.289 43.7702C565.415 40.6446 569.654 38.8887 574.074 38.8887ZM611.111 38.8887C615.531 38.8887 619.771 40.6446 622.896 43.7702C626.022 46.8958 627.778 51.1351 627.778 55.5553C627.778 59.9756 626.022 64.2148 622.896 67.3405C619.771 70.4661 615.531 72.222 611.111 72.222C606.691 72.222 602.452 70.4661 599.326 67.3405C596.2 64.2148 594.444 59.9756 594.444 55.5553C594.444 51.1351 596.2 46.8958 599.326 43.7702C602.452 40.6446 606.691 38.8887 611.111 38.8887ZM648.148 38.8887C652.568 38.8887 656.808 40.6446 659.933 43.7702C663.059 46.8958 664.815 51.1351 664.815 55.5553C664.815 59.9756 663.059 64.2148 659.933 67.3405C656.808 70.4661 652.568 72.222 648.148 72.222C643.728 72.222 639.489 70.4661 636.363 67.3405C633.238 64.2148 631.481 59.9756 631.481 55.5553C631.481 51.1351 633.238 46.8958 636.363 43.7702C639.489 40.6446 643.728 38.8887 648.148 38.8887ZM351.852 75.9257C356.272 75.9257 360.511 77.6817 363.637 80.8073C366.763 83.9329 368.519 88.1721 368.519 92.5924C368.519 97.0127 366.763 101.252 363.637 104.377C360.511 107.503 356.272 109.259 351.852 109.259C347.432 109.259 343.192 107.503 340.067 104.377C336.941 101.252 335.185 97.0127 335.185 92.5924C335.185 88.1721 336.941 83.9329 340.067 80.8073C343.192 77.6817 347.432 75.9257 351.852 75.9257ZM462.963 75.9257C467.383 75.9257 471.622 77.6817 474.748 80.8073C477.874 83.9329 479.63 88.1721 479.63 92.5924C479.63 97.0127 477.874 101.252 474.748 104.377C471.622 107.503 467.383 109.259 462.963 109.259C458.543 109.259 454.303 107.503 451.178 104.377C448.052 101.252 446.296 97.0127 446.296 92.5924C446.296 88.1721 448.052 83.9329 451.178 80.8073C454.303 77.6817 458.543 75.9257 462.963 75.9257ZM500 75.9257C504.42 75.9257 508.66 77.6817 511.785 80.8073C514.911 83.9329 516.667 88.1721 516.667 92.5924C516.667 97.0127 514.911 101.252 511.785 104.377C508.66 107.503 504.42 109.259 500 109.259C495.58 109.259 491.341 107.503 488.215 104.377C485.089 101.252 483.333 97.0127 483.333 92.5924C483.333 88.1721 485.089 83.9329 488.215 80.8073C491.341 77.6817 495.58 75.9257 500 75.9257ZM537.037 75.9257C541.457 75.9257 545.697 77.6817 548.822 80.8073C551.948 83.9329 553.704 88.1721 553.704 92.5924C553.704 97.0127 551.948 101.252 548.822 104.377C545.697 107.503 541.457 109.259 537.037 109.259C532.617 109.259 528.378 107.503 525.252 104.377C522.126 101.252 520.37 97.0127 520.37 92.5924C520.37 88.1721 522.126 83.9329 525.252 80.8073C528.378 77.6817 532.617 75.9257 537.037 75.9257ZM574.074 75.9257C578.494 75.9257 582.734 77.6817 585.859 80.8073C588.985 83.9329 590.741 88.1721 590.741 92.5924C590.741 97.0127 588.985 101.252 585.859 104.377C582.734 107.503 578.494 109.259 574.074 109.259C569.654 109.259 565.415 107.503 562.289 104.377C559.163 101.252 557.407 97.0127 557.407 92.5924C557.407 88.1721 559.163 83.9329 562.289 80.8073C565.415 77.6817 569.654 75.9257 574.074 75.9257ZM351.852 112.963C356.272 112.963 360.511 114.719 363.637 117.844C366.763 120.97 368.519 125.209 368.519 129.629C368.519 134.05 366.763 138.289 363.637 141.415C360.511 144.54 356.272 146.296 351.852 146.296C347.432 146.296 343.192 144.54 340.067 141.415C336.941 138.289 335.185 134.05 335.185 129.629C335.185 125.209 336.941 120.97 340.067 117.844C343.192 114.719 347.432 112.963 351.852 112.963ZM388.889 112.963C393.309 112.963 397.548 114.719 400.674 117.844C403.8 120.97 405.556 125.209 405.556 129.629C405.556 134.05 403.8 138.289 400.674 141.415C397.548 144.54 393.309 146.296 388.889 146.296C384.469 146.296 380.229 144.54 377.104 141.415C373.978 138.289 372.222 134.05 372.222 129.629C372.222 125.209 373.978 120.97 377.104 117.844C380.229 114.719 384.469 112.963 388.889 112.963ZM500 112.963C504.42 112.963 508.66 114.719 511.785 117.844C514.911 120.97 516.667 125.209 516.667 129.629C516.667 134.05 514.911 138.289 511.785 141.415C508.66 144.54 504.42 146.296 500 146.296C495.58 146.296 491.341 144.54 488.215 141.415C485.089 138.289 483.333 134.05 483.333 129.629C483.333 125.209 485.089 120.97 488.215 117.844C491.341 114.719 495.58 112.963 500 112.963ZM574.074 112.963C578.494 112.963 582.734 114.719 585.859 117.844C588.985 120.97 590.741 125.209 590.741 129.629C590.741 134.05 588.985 138.289 585.859 141.415C582.734 144.54 578.494 146.296 574.074 146.296C569.654 146.296 565.415 144.54 562.289 141.415C559.163 138.289 557.407 134.05 557.407 129.629C557.407 125.209 559.163 120.97 562.289 117.844C565.415 114.719 569.654 112.963 574.074 112.963ZM351.852 150C356.272 150 360.511 151.756 363.637 154.881C366.763 158.007 368.519 162.246 368.519 166.666C368.519 171.087 366.763 175.326 363.637 178.452C360.511 181.577 356.272 183.333 351.852 183.333C347.432 183.333 343.192 181.577 340.067 178.452C336.941 175.326 335.185 171.087 335.185 166.666C335.185 162.246 336.941 158.007 340.067 154.881C343.192 151.756 347.432 150 351.852 150ZM388.889 150C393.309 150 397.548 151.756 400.674 154.881C403.8 158.007 405.556 162.246 405.556 166.666C405.556 171.087 403.8 175.326 400.674 178.452C397.548 181.577 393.309 183.333 388.889 183.333C384.469 183.333 380.229 181.577 377.104 178.452C373.978 175.326 372.222 171.087 372.222 166.666C372.222 162.246 373.978 158.007 377.104 154.881C380.229 151.756 384.469 150 388.889 150ZM425.926 150C430.346 150 434.585 151.756 437.711 154.881C440.837 158.007 442.593 162.246 442.593 166.666C442.593 171.087 440.837 175.326 437.711 178.452C434.585 181.577 430.346 183.333 425.926 183.333C421.506 183.333 417.266 181.577 414.141 178.452C411.015 175.326 409.259 171.087 409.259 166.666C409.259 162.246 411.015 158.007 414.141 154.881C417.266 151.756 421.506 150 425.926 150ZM500 150C504.42 150 508.66 151.756 511.785 154.881C514.911 158.007 516.667 162.246 516.667 166.666C516.667 171.087 514.911 175.326 511.785 178.452C508.66 181.577 504.42 183.333 500 183.333C495.58 183.333 491.341 181.577 488.215 178.452C485.089 175.326 483.333 171.087 483.333 166.666C483.333 162.246 485.089 158.007 488.215 154.881C491.341 151.756 495.58 150 500 150ZM537.037 150C541.457 150 545.697 151.756 548.822 154.881C551.948 158.007 553.704 162.246 553.704 166.666C553.704 171.087 551.948 175.326 548.822 178.452C545.697 181.577 541.457 183.333 537.037 183.333C532.617 183.333 528.378 181.577 525.252 178.452C522.126 175.326 520.37 171.087 520.37 166.666C520.37 162.246 522.126 158.007 525.252 154.881C528.378 151.756 532.617 150 537.037 150ZM574.074 150C578.494 150 582.734 151.756 585.859 154.881C588.985 158.007 590.741 162.246 590.741 166.666C590.741 171.087 588.985 175.326 585.859 178.452C582.734 181.577 578.494 183.333 574.074 183.333C569.654 183.333 565.415 181.577 562.289 178.452C559.163 175.326 557.407 171.087 557.407 166.666C557.407 162.246 559.163 158.007 562.289 154.881C565.415 151.756 569.654 150 574.074 150ZM648.148 150C652.568 150 656.808 151.756 659.933 154.881C663.059 158.007 664.815 162.246 664.815 166.666C664.815 171.087 663.059 175.326 659.933 178.452C656.808 181.577 652.568 183.333 648.148 183.333C643.728 183.333 639.489 181.577 636.363 178.452C633.238 175.326 631.481 171.087 631.481 166.666C631.481 162.246 633.238 158.007 636.363 154.881C639.489 151.756 643.728 150 648.148 150ZM388.889 187.037C393.309 187.037 397.548 188.793 400.674 191.918C403.8 195.044 405.556 199.283 405.556 203.703C405.556 208.124 403.8 212.363 400.674 215.489C397.548 218.614 393.309 220.37 388.889 220.37C384.469 220.37 380.229 218.614 377.104 215.489C373.978 212.363 372.222 208.124 372.222 203.703C372.222 199.283 373.978 195.044 377.104 191.918C380.229 188.793 384.469 187.037 388.889 187.037ZM425.926 187.037C430.346 187.037 434.585 188.793 437.711 191.918C440.837 195.044 442.593 199.283 442.593 203.703C442.593 208.124 440.837 212.363 437.711 215.489C434.585 218.614 430.346 220.37 425.926 220.37C421.506 220.37 417.266 218.614 414.141 215.489C411.015 212.363 409.259 208.124 409.259 203.703C409.259 199.283 411.015 195.044 414.141 191.918C417.266 188.793 421.506 187.037 425.926 187.037ZM500 187.037C504.42 187.037 508.66 188.793 511.785 191.918C514.911 195.044 516.667 199.283 516.667 203.703C516.667 208.124 514.911 212.363 511.785 215.489C508.66 218.614 504.42 220.37 500 220.37C495.58 220.37 491.341 218.614 488.215 215.489C485.089 212.363 483.333 208.124 483.333 203.703C483.333 199.283 485.089 195.044 488.215 191.918C491.341 188.793 495.58 187.037 500 187.037ZM574.074 187.037C578.494 187.037 582.734 188.793 585.859 191.918C588.985 195.044 590.741 199.283 590.741 203.703C590.741 208.124 588.985 212.363 585.859 215.489C582.734 218.614 578.494 220.37 574.074 220.37C569.654 220.37 565.415 218.614 562.289 215.489C559.163 212.363 557.407 208.124 557.407 203.703C557.407 199.283 559.163 195.044 562.289 191.918C565.415 188.793 569.654 187.037 574.074 187.037ZM611.111 187.037C615.531 187.037 619.771 188.793 622.896 191.918C626.022 195.044 627.778 199.283 627.778 203.703C627.778 208.124 626.022 212.363 622.896 215.489C619.771 218.614 615.531 220.37 611.111 220.37C606.691 220.37 602.452 218.614 599.326 215.489C596.2 212.363 594.444 208.124 594.444 203.703C594.444 199.283 596.2 195.044 599.326 191.918C602.452 188.793 606.691 187.037 611.111 187.037ZM351.852 224.074C356.272 224.074 360.511 225.83 363.637 228.955C366.763 232.081 368.519 236.32 368.519 240.741C368.519 245.161 366.763 249.4 363.637 252.526C360.511 255.651 356.272 257.407 351.852 257.407C347.432 257.407 343.192 255.651 340.067 252.526C336.941 249.4 335.185 245.161 335.185 240.741C335.185 236.32 336.941 232.081 340.067 228.955C343.192 225.83 347.432 224.074 351.852 224.074ZM388.889 224.074C393.309 224.074 397.548 225.83 400.674 228.955C403.8 232.081 405.556 236.32 405.556 240.741C405.556 245.161 403.8 249.4 400.674 252.526C397.548 255.651 393.309 257.407 388.889 257.407C384.469 257.407 380.229 255.651 377.104 252.526C373.978 249.4 372.222 245.161 372.222 240.741C372.222 236.32 373.978 232.081 377.104 228.955C380.229 225.83 384.469 224.074 388.889 224.074ZM425.926 224.074C430.346 224.074 434.585 225.83 437.711 228.955C440.837 232.081 442.593 236.32 442.593 240.741C442.593 245.161 440.837 249.4 437.711 252.526C434.585 255.651 430.346 257.407 425.926 257.407C421.506 257.407 417.266 255.651 414.141 252.526C411.015 249.4 409.259 245.161 409.259 240.741C409.259 236.32 411.015 232.081 414.141 228.955C417.266 225.83 421.506 224.074 425.926 224.074ZM648.148 224.074C652.568 224.074 656.808 225.83 659.933 228.955C663.059 232.081 664.815 236.32 664.815 240.741C664.815 245.161 663.059 249.4 659.933 252.526C656.808 255.651 652.568 257.407 648.148 257.407C643.728 257.407 639.489 255.651 636.363 252.526C633.238 249.4 631.481 245.161 631.481 240.741C631.481 236.32 633.238 232.081 636.363 228.955C639.489 225.83 643.728 224.074 648.148 224.074ZM351.852 261.111C356.272 261.111 360.511 262.867 363.637 265.992C366.763 269.118 368.519 273.357 368.519 277.778C368.519 282.198 366.763 286.437 363.637 289.563C360.511 292.688 356.272 294.444 351.852 294.444C347.432 294.444 343.192 292.688 340.067 289.563C336.941 286.437 335.185 282.198 335.185 277.778C335.185 273.357 336.941 269.118 340.067 265.992C343.192 262.867 347.432 261.111 351.852 261.111ZM425.926 261.111C430.346 261.111 434.585 262.867 437.711 265.992C440.837 269.118 442.593 273.357 442.593 277.778C442.593 282.198 440.837 286.437 437.711 289.563C434.585 292.688 430.346 294.444 425.926 294.444C421.506 294.444 417.266 292.688 414.141 289.563C411.015 286.437 409.259 282.198 409.259 277.778C409.259 273.357 411.015 269.118 414.141 265.992C417.266 262.867 421.506 261.111 425.926 261.111ZM500 261.111C504.42 261.111 508.66 262.867 511.785 265.992C514.911 269.118 516.667 273.357 516.667 277.778C516.667 282.198 514.911 286.437 511.785 289.563C508.66 292.688 504.42 294.444 500 294.444C495.58 294.444 491.341 292.688 488.215 289.563C485.089 286.437 483.333 282.198 483.333 277.778C483.333 273.357 485.089 269.118 488.215 265.992C491.341 262.867 495.58 261.111 500 261.111ZM574.074 261.111C578.494 261.111 582.734 262.867 585.859 265.992C588.985 269.118 590.741 273.357 590.741 277.778C590.741 282.198 588.985 286.437 585.859 289.563C582.734 292.688 578.494 294.444 574.074 294.444C569.654 294.444 565.415 292.688 562.289 289.563C559.163 286.437 557.407 282.198 557.407 277.778C557.407 273.357 559.163 269.118 562.289 265.992C565.415 262.867 569.654 261.111 574.074 261.111ZM648.148 261.111C652.568 261.111 656.808 262.867 659.933 265.992C663.059 269.118 664.815 273.357 664.815 277.778C664.815 282.198 663.059 286.437 659.933 289.563C656.808 292.688 652.568 294.444 648.148 294.444C643.728 294.444 639.489 292.688 636.363 289.563C633.238 286.437 631.481 282.198 631.481 277.778C631.481 273.357 633.238 269.118 636.363 265.992C639.489 262.867 643.728 261.111 648.148 261.111ZM425.926 298.148C430.346 298.148 434.585 299.904 437.711 303.029C440.837 306.155 442.593 310.394 442.593 314.815C442.593 319.235 440.837 323.474 437.711 326.6C434.585 329.725 430.346 331.481 425.926 331.481C421.506 331.481 417.266 329.725 414.141 326.6C411.015 323.474 409.259 319.235 409.259 314.815C409.259 310.394 411.015 306.155 414.141 303.029C417.266 299.904 421.506 298.148 425.926 298.148ZM462.963 298.148C467.383 298.148 471.622 299.904 474.748 303.029C477.874 306.155 479.63 310.394 479.63 314.815C479.63 319.235 477.874 323.474 474.748 326.6C471.622 329.725 467.383 331.481 462.963 331.481C458.543 331.481 454.303 329.725 451.178 326.6C448.052 323.474 446.296 319.235 446.296 314.815C446.296 310.394 448.052 306.155 451.178 303.029C454.303 299.904 458.543 298.148 462.963 298.148ZM574.074 298.148C578.494 298.148 582.734 299.904 585.859 303.029C588.985 306.155 590.741 310.394 590.741 314.815C590.741 319.235 588.985 323.474 585.859 326.6C582.734 329.725 578.494 331.481 574.074 331.481C569.654 331.481 565.415 329.725 562.289 326.6C559.163 323.474 557.407 319.235 557.407 314.815C557.407 310.394 559.163 306.155 562.289 303.029C565.415 299.904 569.654 298.148 574.074 298.148ZM648.148 298.148C652.568 298.148 656.808 299.904 659.933 303.029C663.059 306.155 664.815 310.394 664.815 314.815C664.815 319.235 663.059 323.474 659.933 326.6C656.808 329.725 652.568 331.481 648.148 331.481C643.728 331.481 639.489 329.725 636.363 326.6C633.238 323.474 631.481 319.235 631.481 314.815C631.481 310.394 633.238 306.155 636.363 303.029C639.489 299.904 643.728 298.148 648.148 298.148ZM55.5556 335.185C59.9759 335.185 64.2151 336.941 67.3407 340.067C70.4663 343.192 72.2222 347.431 72.2222 351.852C72.2222 354.04 71.7912 356.208 70.9536 358.23C70.116 360.252 68.8883 362.089 67.3407 363.637C65.7931 365.184 63.9557 366.412 61.9336 367.25C59.9115 368.087 57.7443 368.518 55.5556 368.518C51.1353 368.518 46.8961 366.762 43.7705 363.637C40.6449 360.511 38.8889 356.272 38.8889 351.852C38.8889 347.431 40.6449 343.192 43.7705 340.067C46.8961 336.941 51.1353 335.185 55.5556 335.185ZM92.5926 335.185C97.0129 335.185 101.252 336.941 104.378 340.067C107.503 343.192 109.259 347.431 109.259 351.852C109.259 356.272 107.503 360.511 104.378 363.637C101.252 366.762 97.0129 368.518 92.5926 368.518C88.1723 368.518 83.9331 366.762 80.8075 363.637C77.6819 360.511 75.926 356.272 75.926 351.852C75.926 347.431 77.6819 343.192 80.8075 340.067C83.9331 336.941 88.1723 335.185 92.5926 335.185ZM203.704 335.185C208.124 335.185 212.363 336.941 215.489 340.067C218.614 343.192 220.37 347.431 220.37 351.852C220.37 356.272 218.614 360.511 215.489 363.637C212.363 366.762 208.124 368.518 203.704 368.518C199.283 368.518 195.044 366.762 191.919 363.637C188.793 360.511 187.037 356.272 187.037 351.852C187.037 347.431 188.793 343.192 191.919 340.067C195.044 336.941 199.283 335.185 203.704 335.185ZM240.741 335.185C245.161 335.185 249.4 336.941 252.526 340.067C255.651 343.192 257.407 347.431 257.407 351.852C257.407 356.272 255.651 360.511 252.526 363.637C249.4 366.762 245.161 368.518 240.741 368.518C236.32 368.518 232.081 366.762 228.956 363.637C225.83 360.511 224.074 356.272 224.074 351.852C224.074 347.431 225.83 343.192 228.956 340.067C232.081 336.941 236.32 335.185 240.741 335.185ZM277.778 335.185C282.198 335.185 286.437 336.941 289.563 340.067C292.689 343.192 294.444 347.431 294.444 351.852C294.444 356.272 292.689 360.511 289.563 363.637C286.437 366.762 282.198 368.518 277.778 368.518C273.358 368.518 269.118 366.762 265.993 363.637C262.867 360.511 261.111 356.272 261.111 351.852C261.111 347.431 262.867 343.192 265.993 340.067C269.118 336.941 273.358 335.185 277.778 335.185ZM425.926 335.185C430.346 335.185 434.585 336.941 437.711 340.067C440.837 343.192 442.593 347.431 442.593 351.852C442.593 356.272 440.837 360.511 437.711 363.637C434.585 366.762 430.346 368.518 425.926 368.518C421.506 368.518 417.266 366.762 414.141 363.637C411.015 360.511 409.259 356.272 409.259 351.852C409.259 347.431 411.015 343.192 414.141 340.067C417.266 336.941 421.506 335.185 425.926 335.185ZM500 335.185C504.42 335.185 508.66 336.941 511.785 340.067C514.911 343.192 516.667 347.431 516.667 351.852C516.667 356.272 514.911 360.511 511.785 363.637C508.66 366.762 504.42 368.518 500 368.518C495.58 368.518 491.341 366.762 488.215 363.637C485.089 360.511 483.333 356.272 483.333 351.852C483.333 347.431 485.089 343.192 488.215 340.067C491.341 336.941 495.58 335.185 500 335.185ZM574.074 335.185C578.494 335.185 582.734 336.941 585.859 340.067C588.985 343.192 590.741 347.431 590.741 351.852C590.741 356.272 588.985 360.511 585.859 363.637C582.734 366.762 578.494 368.518 574.074 368.518C569.654 368.518 565.415 366.762 562.289 363.637C559.163 360.511 557.407 356.272 557.407 351.852C557.407 347.431 559.163 343.192 562.289 340.067C565.415 336.941 569.654 335.185 574.074 335.185ZM648.148 335.185C652.568 335.185 656.808 336.941 659.933 340.067C663.059 343.192 664.815 347.431 664.815 351.852C664.815 356.272 663.059 360.511 659.933 363.637C656.808 366.762 652.568 368.518 648.148 368.518C643.728 368.518 639.489 366.762 636.363 363.637C633.238 360.511 631.481 356.272 631.481 351.852C631.481 347.431 633.238 343.192 636.363 340.067C639.489 336.941 643.728 335.185 648.148 335.185ZM759.259 335.185C763.68 335.185 767.919 336.941 771.044 340.067C774.17 343.192 775.926 347.431 775.926 351.852C775.926 356.272 774.17 360.511 771.044 363.637C767.919 366.762 763.68 368.518 759.259 368.518C754.839 368.518 750.6 366.762 747.474 363.637C744.349 360.511 742.593 356.272 742.593 351.852C742.593 347.431 744.349 343.192 747.474 340.067C750.6 336.941 754.839 335.185 759.259 335.185ZM833.333 335.185C837.754 335.185 841.993 336.941 845.118 340.067C848.244 343.192 850 347.431 850 351.852C850 356.272 848.244 360.511 845.118 363.637C841.993 366.762 837.754 368.518 833.333 368.518C828.913 368.518 824.674 366.762 821.548 363.637C818.423 360.511 816.667 356.272 816.667 351.852C816.667 347.431 818.423 343.192 821.548 340.067C824.674 336.941 828.913 335.185 833.333 335.185ZM870.37 335.185C874.791 335.185 879.03 336.941 882.156 340.067C885.281 343.192 887.037 347.431 887.037 351.852C887.037 356.272 885.281 360.511 882.156 363.637C879.03 366.762 874.791 368.518 870.37 368.518C865.95 368.518 861.711 366.762 858.585 363.637C855.46 360.511 853.704 356.272 853.704 351.852C853.704 347.431 855.46 343.192 858.585 340.067C861.711 336.941 865.95 335.185 870.37 335.185ZM907.407 335.185C911.828 335.185 916.067 336.941 919.193 340.067C922.318 343.192 924.074 347.431 924.074 351.852C924.074 356.272 922.318 360.511 919.193 363.637C916.067 366.762 911.828 368.518 907.407 368.518C902.987 368.518 898.748 366.762 895.622 363.637C892.497 360.511 890.741 356.272 890.741 351.852C890.741 347.431 892.497 343.192 895.622 340.067C898.748 336.941 902.987 335.185 907.407 335.185ZM944.444 335.185C948.865 335.185 953.104 336.941 956.23 340.067C959.355 343.192 961.111 347.431 961.111 351.852C961.111 356.272 959.355 360.511 956.23 363.637C953.104 366.762 948.865 368.518 944.444 368.518C940.024 368.518 935.785 366.762 932.659 363.637C929.534 360.511 927.778 356.272 927.778 351.852C927.778 347.431 929.534 343.192 932.659 340.067C935.785 336.941 940.024 335.185 944.444 335.185ZM55.5556 372.222C59.9759 372.222 64.2151 373.978 67.3407 377.104C70.4663 380.229 72.2222 384.468 72.2222 388.889C72.2222 391.077 71.7912 393.245 70.9536 395.267C70.116 397.289 68.8883 399.126 67.3407 400.674C65.7931 402.221 63.9557 403.449 61.9336 404.287C59.9115 405.124 57.7443 405.555 55.5556 405.555C51.1353 405.555 46.8961 403.799 43.7705 400.674C40.6449 397.548 38.8889 393.309 38.8889 388.889C38.8889 384.468 40.6449 380.229 43.7705 377.104C46.8961 373.978 51.1353 372.222 55.5556 372.222ZM129.63 372.222C134.05 372.222 138.289 373.978 141.415 377.104C144.54 380.229 146.296 384.468 146.296 388.889C146.296 393.309 144.54 397.548 141.415 400.674C138.289 403.799 134.05 405.555 129.63 405.555C125.209 405.555 120.97 403.799 117.845 400.674C114.719 397.548 112.963 393.309 112.963 388.889C112.963 384.468 114.719 380.229 117.845 377.104C120.97 373.978 125.209 372.222 129.63 372.222ZM203.704 372.222C208.124 372.222 212.363 373.978 215.489 377.104C218.614 380.229 220.37 384.468 220.37 388.889C220.37 393.309 218.614 397.548 215.489 400.674C212.363 403.799 208.124 405.555 203.704 405.555C199.283 405.555 195.044 403.799 191.919 400.674C188.793 397.548 187.037 393.309 187.037 388.889C187.037 384.468 188.793 380.229 191.919 377.104C195.044 373.978 199.283 372.222 203.704 372.222ZM240.741 372.222C245.161 372.222 249.4 373.978 252.526 377.104C255.651 380.229 257.407 384.468 257.407 388.889C257.407 393.309 255.651 397.548 252.526 400.674C249.4 403.799 245.161 405.555 240.741 405.555C236.32 405.555 232.081 403.799 228.956 400.674C225.83 397.548 224.074 393.309 224.074 388.889C224.074 384.468 225.83 380.229 228.956 377.104C232.081 373.978 236.32 372.222 240.741 372.222ZM314.815 372.222C319.235 372.222 323.474 373.978 326.6 377.104C329.726 380.229 331.481 384.468 331.481 388.889C331.481 393.309 329.726 397.548 326.6 400.674C323.474 403.799 319.235 405.555 314.815 405.555C310.395 405.555 306.155 403.799 303.03 400.674C299.904 397.548 298.148 393.309 298.148 388.889C298.148 384.468 299.904 380.229 303.03 377.104C306.155 373.978 310.395 372.222 314.815 372.222ZM351.852 372.222C356.272 372.222 360.511 373.978 363.637 377.104C366.763 380.229 368.519 384.468 368.519 388.889C368.519 393.309 366.763 397.548 363.637 400.674C360.511 403.799 356.272 405.555 351.852 405.555C347.432 405.555 343.192 403.799 340.067 400.674C336.941 397.548 335.185 393.309 335.185 388.889C335.185 384.468 336.941 380.229 340.067 377.104C343.192 373.978 347.432 372.222 351.852 372.222ZM574.074 372.222C578.494 372.222 582.734 373.978 585.859 377.104C588.985 380.229 590.741 384.468 590.741 388.889C590.741 393.309 588.985 397.548 585.859 400.674C582.734 403.799 578.494 405.555 574.074 405.555C569.654 405.555 565.415 403.799 562.289 400.674C559.163 397.548 557.407 393.309 557.407 388.889C557.407 384.468 559.163 380.229 562.289 377.104C565.415 373.978 569.654 372.222 574.074 372.222ZM611.111 372.222C615.531 372.222 619.771 373.978 622.896 377.104C626.022 380.229 627.778 384.468 627.778 388.889C627.778 393.309 626.022 397.548 622.896 400.674C619.771 403.799 615.531 405.555 611.111 405.555C606.691 405.555 602.452 403.799 599.326 400.674C596.2 397.548 594.444 393.309 594.444 388.889C594.444 384.468 596.2 380.229 599.326 377.104C602.452 373.978 606.691 372.222 611.111 372.222ZM648.148 372.222C652.568 372.222 656.808 373.978 659.933 377.104C663.059 380.229 664.815 384.468 664.815 388.889C664.815 393.309 663.059 397.548 659.933 400.674C656.808 403.799 652.568 405.555 648.148 405.555C643.728 405.555 639.489 403.799 636.363 400.674C633.238 397.548 631.481 393.309 631.481 388.889C631.481 384.468 633.238 380.229 636.363 377.104C639.489 373.978 643.728 372.222 648.148 372.222ZM685.185 372.222C689.606 372.222 693.845 373.978 696.97 377.104C700.096 380.229 701.852 384.468 701.852 388.889C701.852 393.309 700.096 397.548 696.97 400.674C693.845 403.799 689.606 405.555 685.185 405.555C680.765 405.555 676.526 403.799 673.4 400.674C670.275 397.548 668.519 393.309 668.519 388.889C668.519 384.468 670.275 380.229 673.4 377.104C676.526 373.978 680.765 372.222 685.185 372.222ZM796.296 372.222C800.717 372.222 804.956 373.978 808.081 377.104C811.207 380.229 812.963 384.468 812.963 388.889C812.963 393.309 811.207 397.548 808.081 400.674C804.956 403.799 800.717 405.555 796.296 405.555C791.876 405.555 787.637 403.799 784.511 400.674C781.386 397.548 779.63 393.309 779.63 388.889C779.63 384.468 781.386 380.229 784.511 377.104C787.637 373.978 791.876 372.222 796.296 372.222ZM833.333 372.222C837.754 372.222 841.993 373.978 845.118 377.104C848.244 380.229 850 384.468 850 388.889C850 393.309 848.244 397.548 845.118 400.674C841.993 403.799 837.754 405.555 833.333 405.555C828.913 405.555 824.674 403.799 821.548 400.674C818.423 397.548 816.667 393.309 816.667 388.889C816.667 384.468 818.423 380.229 821.548 377.104C824.674 373.978 828.913 372.222 833.333 372.222ZM907.407 372.222C911.828 372.222 916.067 373.978 919.193 377.104C922.318 380.229 924.074 384.468 924.074 388.889C924.074 393.309 922.318 397.548 919.193 400.674C916.067 403.799 911.828 405.555 907.407 405.555C902.987 405.555 898.748 403.799 895.622 400.674C892.497 397.548 890.741 393.309 890.741 388.889C890.741 384.468 892.497 380.229 895.622 377.104C898.748 373.978 902.987 372.222 907.407 372.222ZM55.5556 409.259C59.9759 409.259 64.2151 411.015 67.3407 414.141C70.4663 417.266 72.2222 421.505 72.2222 425.926C72.2222 428.114 71.7912 430.282 70.9536 432.304C70.116 434.326 68.8883 436.163 67.3407 437.711C65.7931 439.258 63.9557 440.486 61.9336 441.324C59.9115 442.161 57.7443 442.592 55.5556 442.592C51.1353 442.592 46.8961 440.836 43.7705 437.711C40.6449 434.585 38.8889 430.346 38.8889 425.926C38.8889 421.505 40.6449 417.266 43.7705 414.141C46.8961 411.015 51.1353 409.259 55.5556 409.259ZM92.5926 409.259C97.0129 409.259 101.252 411.015 104.378 414.141C107.503 417.266 109.259 421.505 109.259 425.926C109.259 430.346 107.503 434.585 104.378 437.711C101.252 440.836 97.0129 442.592 92.5926 442.592C88.1723 442.592 83.9331 440.836 80.8075 437.711C77.6819 434.585 75.926 430.346 75.926 425.926C75.926 421.505 77.6819 417.266 80.8075 414.141C83.9331 411.015 88.1723 409.259 92.5926 409.259ZM129.63 409.259C134.05 409.259 138.289 411.015 141.415 414.141C144.54 417.266 146.296 421.505 146.296 425.926C146.296 430.346 144.54 434.585 141.415 437.711C138.289 440.836 134.05 442.592 129.63 442.592C125.209 442.592 120.97 440.836 117.845 437.711C114.719 434.585 112.963 430.346 112.963 425.926C112.963 421.505 114.719 417.266 117.845 414.141C120.97 411.015 125.209 409.259 129.63 409.259ZM277.778 409.259C282.198 409.259 286.437 411.015 289.563 414.141C292.689 417.266 294.444 421.505 294.444 425.926C294.444 430.346 292.689 434.585 289.563 437.711C286.437 440.836 282.198 442.592 277.778 442.592C273.358 442.592 269.118 440.836 265.993 437.711C262.867 434.585 261.111 430.346 261.111 425.926C261.111 421.505 262.867 417.266 265.993 414.141C269.118 411.015 273.358 409.259 277.778 409.259ZM388.889 409.259C393.309 409.259 397.548 411.015 400.674 414.141C403.8 417.266 405.556 421.505 405.556 425.926C405.556 430.346 403.8 434.585 400.674 437.711C397.548 440.836 393.309 442.592 388.889 442.592C384.469 442.592 380.229 440.836 377.104 437.711C373.978 434.585 372.222 430.346 372.222 425.926C372.222 421.505 373.978 417.266 377.104 414.141C380.229 411.015 384.469 409.259 388.889 409.259ZM425.926 409.259C430.346 409.259 434.585 411.015 437.711 414.141C440.837 417.266 442.593 421.505 442.593 425.926C442.593 430.346 440.837 434.585 437.711 437.711C434.585 440.836 430.346 442.592 425.926 442.592C421.506 442.592 417.266 440.836 414.141 437.711C411.015 434.585 409.259 430.346 409.259 425.926C409.259 421.505 411.015 417.266 414.141 414.141C417.266 411.015 421.506 409.259 425.926 409.259ZM537.037 409.259C541.457 409.259 545.697 411.015 548.822 414.141C551.948 417.266 553.704 421.505 553.704 425.926C553.704 430.346 551.948 434.585 548.822 437.711C545.697 440.836 541.457 442.592 537.037 442.592C532.617 442.592 528.378 440.836 525.252 437.711C522.126 434.585 520.37 430.346 520.37 425.926C520.37 421.505 522.126 417.266 525.252 414.141C528.378 411.015 532.617 409.259 537.037 409.259ZM574.074 409.259C578.494 409.259 582.734 411.015 585.859 414.141C588.985 417.266 590.741 421.505 590.741 425.926C590.741 430.346 588.985 434.585 585.859 437.711C582.734 440.836 578.494 442.592 574.074 442.592C569.654 442.592 565.415 440.836 562.289 437.711C559.163 434.585 557.407 430.346 557.407 425.926C557.407 421.505 559.163 417.266 562.289 414.141C565.415 411.015 569.654 409.259 574.074 409.259ZM611.111 409.259C615.531 409.259 619.771 411.015 622.896 414.141C626.022 417.266 627.778 421.505 627.778 425.926C627.778 430.346 626.022 434.585 622.896 437.711C619.771 440.836 615.531 442.592 611.111 442.592C606.691 442.592 602.452 440.836 599.326 437.711C596.2 434.585 594.444 430.346 594.444 425.926C594.444 421.505 596.2 417.266 599.326 414.141C602.452 411.015 606.691 409.259 611.111 409.259ZM685.185 409.259C689.606 409.259 693.845 411.015 696.97 414.141C700.096 417.266 701.852 421.505 701.852 425.926C701.852 430.346 700.096 434.585 696.97 437.711C693.845 440.836 689.606 442.592 685.185 442.592C680.765 442.592 676.526 440.836 673.4 437.711C670.275 434.585 668.519 430.346 668.519 425.926C668.519 421.505 670.275 417.266 673.4 414.141C676.526 411.015 680.765 409.259 685.185 409.259ZM759.259 409.259C763.68 409.259 767.919 411.015 771.044 414.141C774.17 417.266 775.926 421.505 775.926 425.926C775.926 430.346 774.17 434.585 771.044 437.711C767.919 440.836 763.68 442.592 759.259 442.592C754.839 442.592 750.6 440.836 747.474 437.711C744.349 434.585 742.593 430.346 742.593 425.926C742.593 421.505 744.349 417.266 747.474 414.141C750.6 411.015 754.839 409.259 759.259 409.259ZM833.333 409.259C837.754 409.259 841.993 411.015 845.118 414.141C848.244 417.266 850 421.505 850 425.926C850 430.346 848.244 434.585 845.118 437.711C841.993 440.836 837.754 442.592 833.333 442.592C828.913 442.592 824.674 440.836 821.548 437.711C818.423 434.585 816.667 430.346 816.667 425.926C816.667 421.505 818.423 417.266 821.548 414.141C824.674 411.015 828.913 409.259 833.333 409.259ZM870.37 409.259C874.791 409.259 879.03 411.015 882.156 414.141C885.281 417.266 887.037 421.505 887.037 425.926C887.037 430.346 885.281 434.585 882.156 437.711C879.03 440.836 874.791 442.592 870.37 442.592C865.95 442.592 861.711 440.836 858.585 437.711C855.46 434.585 853.704 430.346 853.704 425.926C853.704 421.505 855.46 417.266 858.585 414.141C861.711 411.015 865.95 409.259 870.37 409.259ZM55.5556 446.296C59.9759 446.296 64.2151 448.052 67.3407 451.178C70.4663 454.303 72.2222 458.542 72.2222 462.963C72.2222 465.151 71.7912 467.319 70.9536 469.341C70.116 471.363 68.8883 473.2 67.3407 474.748C65.7931 476.295 63.9557 477.523 61.9336 478.361C59.9115 479.198 57.7443 479.629 55.5556 479.629C51.1353 479.629 46.8961 477.873 43.7705 474.748C40.6449 471.622 38.8889 467.383 38.8889 462.963C38.8889 458.542 40.6449 454.303 43.7705 451.178C46.8961 448.052 51.1353 446.296 55.5556 446.296ZM92.5926 446.296C97.0129 446.296 101.252 448.052 104.378 451.178C107.503 454.303 109.259 458.542 109.259 462.963C109.259 467.383 107.503 471.622 104.378 474.748C101.252 477.873 97.0129 479.629 92.5926 479.629C88.1723 479.629 83.9331 477.873 80.8075 474.748C77.6819 471.622 75.926 467.383 75.926 462.963C75.926 458.542 77.6819 454.303 80.8075 451.178C83.9331 448.052 88.1723 446.296 92.5926 446.296ZM129.63 446.296C134.05 446.296 138.289 448.052 141.415 451.178C144.54 454.303 146.296 458.542 146.296 462.963C146.296 467.383 144.54 471.622 141.415 474.748C138.289 477.873 134.05 479.629 129.63 479.629C125.209 479.629 120.97 477.873 117.845 474.748C114.719 471.622 112.963 467.383 112.963 462.963C112.963 458.542 114.719 454.303 117.845 451.178C120.97 448.052 125.209 446.296 129.63 446.296ZM203.704 446.296C208.124 446.296 212.363 448.052 215.489 451.178C218.614 454.303 220.37 458.542 220.37 462.963C220.37 467.383 218.614 471.622 215.489 474.748C212.363 477.873 208.124 479.629 203.704 479.629C199.283 479.629 195.044 477.873 191.919 474.748C188.793 471.622 187.037 467.383 187.037 462.963C187.037 458.542 188.793 454.303 191.919 451.178C195.044 448.052 199.283 446.296 203.704 446.296ZM388.889 446.296C393.309 446.296 397.548 448.052 400.674 451.178C403.8 454.303 405.556 458.542 405.556 462.963C405.556 467.383 403.8 471.622 400.674 474.748C397.548 477.873 393.309 479.629 388.889 479.629C384.469 479.629 380.229 477.873 377.104 474.748C373.978 471.622 372.222 467.383 372.222 462.963C372.222 458.542 373.978 454.303 377.104 451.178C380.229 448.052 384.469 446.296 388.889 446.296ZM500 446.296C504.42 446.296 508.66 448.052 511.785 451.178C514.911 454.303 516.667 458.542 516.667 462.963C516.667 467.383 514.911 471.622 511.785 474.748C508.66 477.873 504.42 479.629 500 479.629C495.58 479.629 491.341 477.873 488.215 474.748C485.089 471.622 483.333 467.383 483.333 462.963C483.333 458.542 485.089 454.303 488.215 451.178C491.341 448.052 495.58 446.296 500 446.296ZM574.074 446.296C578.494 446.296 582.734 448.052 585.859 451.178C588.985 454.303 590.741 458.542 590.741 462.963C590.741 467.383 588.985 471.622 585.859 474.748C582.734 477.873 578.494 479.629 574.074 479.629C569.654 479.629 565.415 477.873 562.289 474.748C559.163 471.622 557.407 467.383 557.407 462.963C557.407 458.542 559.163 454.303 562.289 451.178C565.415 448.052 569.654 446.296 574.074 446.296ZM611.111 446.296C615.531 446.296 619.771 448.052 622.896 451.178C626.022 454.303 627.778 458.542 627.778 462.963C627.778 467.383 626.022 471.622 622.896 474.748C619.771 477.873 615.531 479.629 611.111 479.629C606.691 479.629 602.452 477.873 599.326 474.748C596.2 471.622 594.444 467.383 594.444 462.963C594.444 458.542 596.2 454.303 599.326 451.178C602.452 448.052 606.691 446.296 611.111 446.296ZM685.185 446.296C689.606 446.296 693.845 448.052 696.97 451.178C700.096 454.303 701.852 458.542 701.852 462.963C701.852 467.383 700.096 471.622 696.97 474.748C693.845 477.873 689.606 479.629 685.185 479.629C680.765 479.629 676.526 477.873 673.4 474.748C670.275 471.622 668.519 467.383 668.519 462.963C668.519 458.542 670.275 454.303 673.4 451.178C676.526 448.052 680.765 446.296 685.185 446.296ZM722.222 446.296C726.643 446.296 730.882 448.052 734.007 451.178C737.133 454.303 738.889 458.542 738.889 462.963C738.889 467.383 737.133 471.622 734.007 474.748C730.882 477.873 726.643 479.629 722.222 479.629C717.802 479.629 713.563 477.873 710.437 474.748C707.312 471.622 705.556 467.383 705.556 462.963C705.556 458.542 707.312 454.303 710.437 451.178C713.563 448.052 717.802 446.296 722.222 446.296ZM870.37 446.296C874.791 446.296 879.03 448.052 882.156 451.178C885.281 454.303 887.037 458.542 887.037 462.963C887.037 467.383 885.281 471.622 882.156 474.748C879.03 477.873 874.791 479.629 870.37 479.629C865.95 479.629 861.711 477.873 858.585 474.748C855.46 471.622 853.704 467.383 853.704 462.963C853.704 458.542 855.46 454.303 858.585 451.178C861.711 448.052 865.95 446.296 870.37 446.296ZM907.407 446.296C911.828 446.296 916.067 448.052 919.193 451.178C922.318 454.303 924.074 458.542 924.074 462.963C924.074 467.383 922.318 471.622 919.193 474.748C916.067 477.873 911.828 479.629 907.407 479.629C902.987 479.629 898.748 477.873 895.622 474.748C892.497 471.622 890.741 467.383 890.741 462.963C890.741 458.542 892.497 454.303 895.622 451.178C898.748 448.052 902.987 446.296 907.407 446.296ZM55.5556 483.333C59.9759 483.333 64.2151 485.089 67.3407 488.215C70.4663 491.34 72.2222 495.579 72.2222 500C72.2222 502.188 71.7912 504.356 70.9536 506.378C70.116 508.4 68.8883 510.237 67.3407 511.785C65.7931 513.333 63.9557 514.56 61.9336 515.398C59.9115 516.235 57.7443 516.666 55.5556 516.666C51.1353 516.666 46.8961 514.91 43.7705 511.785C40.6449 508.659 38.8889 504.42 38.8889 500C38.8889 495.579 40.6449 491.34 43.7705 488.215C46.8961 485.089 51.1353 483.333 55.5556 483.333ZM92.5926 483.333C97.0129 483.333 101.252 485.089 104.378 488.215C107.503 491.34 109.259 495.579 109.259 500C109.259 504.42 107.503 508.659 104.378 511.785C101.252 514.91 97.0129 516.666 92.5926 516.666C88.1723 516.666 83.9331 514.91 80.8075 511.785C77.6819 508.659 75.926 504.42 75.926 500C75.926 495.579 77.6819 491.34 80.8075 488.215C83.9331 485.089 88.1723 483.333 92.5926 483.333ZM203.704 483.333C208.124 483.333 212.363 485.089 215.489 488.215C218.614 491.34 220.37 495.579 220.37 500C220.37 504.42 218.614 508.659 215.489 511.785C212.363 514.91 208.124 516.666 203.704 516.666C199.283 516.666 195.044 514.91 191.919 511.785C188.793 508.659 187.037 504.42 187.037 500C187.037 495.579 188.793 491.34 191.919 488.215C195.044 485.089 199.283 483.333 203.704 483.333ZM240.741 483.333C245.161 483.333 249.4 485.089 252.526 488.215C255.651 491.34 257.407 495.579 257.407 500C257.407 504.42 255.651 508.659 252.526 511.785C249.4 514.91 245.161 516.666 240.741 516.666C236.32 516.666 232.081 514.91 228.956 511.785C225.83 508.659 224.074 504.42 224.074 500C224.074 495.579 225.83 491.34 228.956 488.215C232.081 485.089 236.32 483.333 240.741 483.333ZM277.778 483.333C282.198 483.333 286.437 485.089 289.563 488.215C292.689 491.34 294.444 495.579 294.444 500C294.444 504.42 292.689 508.659 289.563 511.785C286.437 514.91 282.198 516.666 277.778 516.666C273.358 516.666 269.118 514.91 265.993 511.785C262.867 508.659 261.111 504.42 261.111 500C261.111 495.579 262.867 491.34 265.993 488.215C269.118 485.089 273.358 483.333 277.778 483.333ZM314.815 483.333C319.235 483.333 323.474 485.089 326.6 488.215C329.726 491.34 331.481 495.579 331.481 500C331.481 504.42 329.726 508.659 326.6 511.785C323.474 514.91 319.235 516.666 314.815 516.666C310.395 516.666 306.155 514.91 303.03 511.785C299.904 508.659 298.148 504.42 298.148 500C298.148 495.579 299.904 491.34 303.03 488.215C306.155 485.089 310.395 483.333 314.815 483.333ZM462.963 483.333C467.383 483.333 471.622 485.089 474.748 488.215C477.874 491.34 479.63 495.579 479.63 500C479.63 504.42 477.874 508.659 474.748 511.785C471.622 514.91 467.383 516.666 462.963 516.666C458.543 516.666 454.303 514.91 451.178 511.785C448.052 508.659 446.296 504.42 446.296 500C446.296 495.579 448.052 491.34 451.178 488.215C454.303 485.089 458.543 483.333 462.963 483.333ZM500 483.333C504.42 483.333 508.66 485.089 511.785 488.215C514.911 491.34 516.667 495.579 516.667 500C516.667 504.42 514.911 508.659 511.785 511.785C508.66 514.91 504.42 516.666 500 516.666C495.58 516.666 491.341 514.91 488.215 511.785C485.089 508.659 483.333 504.42 483.333 500C483.333 495.579 485.089 491.34 488.215 488.215C491.341 485.089 495.58 483.333 500 483.333ZM537.037 483.333C541.457 483.333 545.697 485.089 548.822 488.215C551.948 491.34 553.704 495.579 553.704 500C553.704 504.42 551.948 508.659 548.822 511.785C545.697 514.91 541.457 516.666 537.037 516.666C532.617 516.666 528.378 514.91 525.252 511.785C522.126 508.659 520.37 504.42 520.37 500C520.37 495.579 522.126 491.34 525.252 488.215C528.378 485.089 532.617 483.333 537.037 483.333ZM722.222 483.333C726.643 483.333 730.882 485.089 734.007 488.215C737.133 491.34 738.889 495.579 738.889 500C738.889 504.42 737.133 508.659 734.007 511.785C730.882 514.91 726.643 516.666 722.222 516.666C717.802 516.666 713.563 514.91 710.437 511.785C707.312 508.659 705.556 504.42 705.556 500C705.556 495.579 707.312 491.34 710.437 488.215C713.563 485.089 717.802 483.333 722.222 483.333ZM833.333 483.333C837.754 483.333 841.993 485.089 845.118 488.215C848.244 491.34 850 495.579 850 500C850 504.42 848.244 508.659 845.118 511.785C841.993 514.91 837.754 516.666 833.333 516.666C828.913 516.666 824.674 514.91 821.548 511.785C818.423 508.659 816.667 504.42 816.667 500C816.667 495.579 818.423 491.34 821.548 488.215C824.674 485.089 828.913 483.333 833.333 483.333ZM870.37 483.333C874.791 483.333 879.03 485.089 882.156 488.215C885.281 491.34 887.037 495.579 887.037 500C887.037 504.42 885.281 508.659 882.156 511.785C879.03 514.91 874.791 516.666 870.37 516.666C865.95 516.666 861.711 514.91 858.585 511.785C855.46 508.659 853.704 504.42 853.704 500C853.704 495.579 855.46 491.34 858.585 488.215C861.711 485.089 865.95 483.333 870.37 483.333ZM907.407 483.333C911.828 483.333 916.067 485.089 919.193 488.215C922.318 491.34 924.074 495.579 924.074 500C924.074 504.42 922.318 508.659 919.193 511.785C916.067 514.91 911.828 516.666 907.407 516.666C902.987 516.666 898.748 514.91 895.622 511.785C892.497 508.659 890.741 504.42 890.741 500C890.741 495.579 892.497 491.34 895.622 488.215C898.748 485.089 902.987 483.333 907.407 483.333ZM944.444 483.333C948.865 483.333 953.104 485.089 956.23 488.215C959.355 491.34 961.111 495.579 961.111 500C961.111 504.42 959.355 508.659 956.23 511.785C953.104 514.91 948.865 516.666 944.444 516.666C940.024 516.666 935.785 514.91 932.659 511.785C929.534 508.659 927.778 504.42 927.778 500C927.778 495.579 929.534 491.34 932.659 488.215C935.785 485.089 940.024 483.333 944.444 483.333ZM55.5556 520.37C59.9759 520.37 64.2151 522.126 67.3407 525.252C70.4663 528.377 72.2222 532.617 72.2222 537.037C72.2222 539.226 71.7912 541.393 70.9536 543.415C70.116 545.437 68.8883 547.274 67.3407 548.822C65.7931 550.37 63.9557 551.597 61.9336 552.435C59.9115 553.272 57.7443 553.703 55.5556 553.703C51.1353 553.703 46.8961 551.948 43.7705 548.822C40.6449 545.696 38.8889 541.457 38.8889 537.037C38.8889 532.617 40.6449 528.377 43.7705 525.252C46.8961 522.126 51.1353 520.37 55.5556 520.37ZM166.667 520.37C171.087 520.37 175.326 522.126 178.452 525.252C181.577 528.377 183.333 532.617 183.333 537.037C183.333 541.457 181.577 545.696 178.452 548.822C175.326 551.948 171.087 553.703 166.667 553.703C162.246 553.703 158.007 551.948 154.882 548.822C151.756 545.696 150 541.457 150 537.037C150 532.617 151.756 528.377 154.882 525.252C158.007 522.126 162.246 520.37 166.667 520.37ZM240.741 520.37C245.161 520.37 249.4 522.126 252.526 525.252C255.651 528.377 257.407 532.617 257.407 537.037C257.407 541.457 255.651 545.696 252.526 548.822C249.4 551.948 245.161 553.703 240.741 553.703C236.32 553.703 232.081 551.948 228.956 548.822C225.83 545.696 224.074 541.457 224.074 537.037C224.074 532.617 225.83 528.377 228.956 525.252C232.081 522.126 236.32 520.37 240.741 520.37ZM351.852 520.37C356.272 520.37 360.511 522.126 363.637 525.252C366.763 528.377 368.519 532.617 368.519 537.037C368.519 541.457 366.763 545.696 363.637 548.822C360.511 551.948 356.272 553.703 351.852 553.703C347.432 553.703 343.192 551.948 340.067 548.822C336.941 545.696 335.185 541.457 335.185 537.037C335.185 532.617 336.941 528.377 340.067 525.252C343.192 522.126 347.432 520.37 351.852 520.37ZM388.889 520.37C393.309 520.37 397.548 522.126 400.674 525.252C403.8 528.377 405.556 532.617 405.556 537.037C405.556 541.457 403.8 545.696 400.674 548.822C397.548 551.948 393.309 553.703 388.889 553.703C384.469 553.703 380.229 551.948 377.104 548.822C373.978 545.696 372.222 541.457 372.222 537.037C372.222 532.617 373.978 528.377 377.104 525.252C380.229 522.126 384.469 520.37 388.889 520.37ZM425.926 520.37C430.346 520.37 434.585 522.126 437.711 525.252C440.837 528.377 442.593 532.617 442.593 537.037C442.593 541.457 440.837 545.696 437.711 548.822C434.585 551.948 430.346 553.703 425.926 553.703C421.506 553.703 417.266 551.948 414.141 548.822C411.015 545.696 409.259 541.457 409.259 537.037C409.259 532.617 411.015 528.377 414.141 525.252C417.266 522.126 421.506 520.37 425.926 520.37ZM500 520.37C504.42 520.37 508.66 522.126 511.785 525.252C514.911 528.377 516.667 532.617 516.667 537.037C516.667 541.457 514.911 545.696 511.785 548.822C508.66 551.948 504.42 553.703 500 553.703C495.58 553.703 491.341 551.948 488.215 548.822C485.089 545.696 483.333 541.457 483.333 537.037C483.333 532.617 485.089 528.377 488.215 525.252C491.341 522.126 495.58 520.37 500 520.37ZM574.074 520.37C578.494 520.37 582.734 522.126 585.859 525.252C588.985 528.377 590.741 532.617 590.741 537.037C590.741 541.457 588.985 545.696 585.859 548.822C582.734 551.948 578.494 553.703 574.074 553.703C569.654 553.703 565.415 551.948 562.289 548.822C559.163 545.696 557.407 541.457 557.407 537.037C557.407 532.617 559.163 528.377 562.289 525.252C565.415 522.126 569.654 520.37 574.074 520.37ZM611.111 520.37C615.531 520.37 619.771 522.126 622.896 525.252C626.022 528.377 627.778 532.617 627.778 537.037C627.778 541.457 626.022 545.696 622.896 548.822C619.771 551.948 615.531 553.703 611.111 553.703C606.691 553.703 602.452 551.948 599.326 548.822C596.2 545.696 594.444 541.457 594.444 537.037C594.444 532.617 596.2 528.377 599.326 525.252C602.452 522.126 606.691 520.37 611.111 520.37ZM648.148 520.37C652.568 520.37 656.808 522.126 659.933 525.252C663.059 528.377 664.815 532.617 664.815 537.037C664.815 541.457 663.059 545.696 659.933 548.822C656.808 551.948 652.568 553.703 648.148 553.703C643.728 553.703 639.489 551.948 636.363 548.822C633.238 545.696 631.481 541.457 631.481 537.037C631.481 532.617 633.238 528.377 636.363 525.252C639.489 522.126 643.728 520.37 648.148 520.37ZM796.296 520.37C800.717 520.37 804.956 522.126 808.081 525.252C811.207 528.377 812.963 532.617 812.963 537.037C812.963 541.457 811.207 545.696 808.081 548.822C804.956 551.948 800.717 553.703 796.296 553.703C791.876 553.703 787.637 551.948 784.511 548.822C781.386 545.696 779.63 541.457 779.63 537.037C779.63 532.617 781.386 528.377 784.511 525.252C787.637 522.126 791.876 520.37 796.296 520.37ZM907.407 520.37C911.828 520.37 916.067 522.126 919.193 525.252C922.318 528.377 924.074 532.617 924.074 537.037C924.074 541.457 922.318 545.696 919.193 548.822C916.067 551.948 911.828 553.703 907.407 553.703C902.987 553.703 898.748 551.948 895.622 548.822C892.497 545.696 890.741 541.457 890.741 537.037C890.741 532.617 892.497 528.377 895.622 525.252C898.748 522.126 902.987 520.37 907.407 520.37ZM129.63 557.407C134.05 557.407 138.289 559.163 141.415 562.289C144.54 565.414 146.296 569.654 146.296 574.074C146.296 578.494 144.54 582.733 141.415 585.859C138.289 588.985 134.05 590.741 129.63 590.741C125.209 590.741 120.97 588.985 117.845 585.859C114.719 582.733 112.963 578.494 112.963 574.074C112.963 569.654 114.719 565.414 117.845 562.289C120.97 559.163 125.209 557.407 129.63 557.407ZM166.667 557.407C171.087 557.407 175.326 559.163 178.452 562.289C181.577 565.414 183.333 569.654 183.333 574.074C183.333 578.494 181.577 582.733 178.452 585.859C175.326 588.985 171.087 590.741 166.667 590.741C162.246 590.741 158.007 588.985 154.882 585.859C151.756 582.733 150 578.494 150 574.074C150 569.654 151.756 565.414 154.882 562.289C158.007 559.163 162.246 557.407 166.667 557.407ZM203.704 557.407C208.124 557.407 212.363 559.163 215.489 562.289C218.614 565.414 220.37 569.654 220.37 574.074C220.37 578.494 218.614 582.733 215.489 585.859C212.363 588.985 208.124 590.741 203.704 590.741C199.283 590.741 195.044 588.985 191.919 585.859C188.793 582.733 187.037 578.494 187.037 574.074C187.037 569.654 188.793 565.414 191.919 562.289C195.044 559.163 199.283 557.407 203.704 557.407ZM277.778 557.407C282.198 557.407 286.437 559.163 289.563 562.289C292.689 565.414 294.444 569.654 294.444 574.074C294.444 578.494 292.689 582.733 289.563 585.859C286.437 588.985 282.198 590.741 277.778 590.741C273.358 590.741 269.118 588.985 265.993 585.859C262.867 582.733 261.111 578.494 261.111 574.074C261.111 569.654 262.867 565.414 265.993 562.289C269.118 559.163 273.358 557.407 277.778 557.407ZM314.815 557.407C319.235 557.407 323.474 559.163 326.6 562.289C329.726 565.414 331.481 569.654 331.481 574.074C331.481 578.494 329.726 582.733 326.6 585.859C323.474 588.985 319.235 590.741 314.815 590.741C310.395 590.741 306.155 588.985 303.03 585.859C299.904 582.733 298.148 578.494 298.148 574.074C298.148 569.654 299.904 565.414 303.03 562.289C306.155 559.163 310.395 557.407 314.815 557.407ZM425.926 557.407C430.346 557.407 434.585 559.163 437.711 562.289C440.837 565.414 442.593 569.654 442.593 574.074C442.593 578.494 440.837 582.733 437.711 585.859C434.585 588.985 430.346 590.741 425.926 590.741C421.506 590.741 417.266 588.985 414.141 585.859C411.015 582.733 409.259 578.494 409.259 574.074C409.259 569.654 411.015 565.414 414.141 562.289C417.266 559.163 421.506 557.407 425.926 557.407ZM462.963 557.407C467.383 557.407 471.622 559.163 474.748 562.289C477.874 565.414 479.63 569.654 479.63 574.074C479.63 578.494 477.874 582.733 474.748 585.859C471.622 588.985 467.383 590.741 462.963 590.741C458.543 590.741 454.303 588.985 451.178 585.859C448.052 582.733 446.296 578.494 446.296 574.074C446.296 569.654 448.052 565.414 451.178 562.289C454.303 559.163 458.543 557.407 462.963 557.407ZM500 557.407C504.42 557.407 508.66 559.163 511.785 562.289C514.911 565.414 516.667 569.654 516.667 574.074C516.667 578.494 514.911 582.733 511.785 585.859C508.66 588.985 504.42 590.741 500 590.741C495.58 590.741 491.341 588.985 488.215 585.859C485.089 582.733 483.333 578.494 483.333 574.074C483.333 569.654 485.089 565.414 488.215 562.289C491.341 559.163 495.58 557.407 500 557.407ZM574.074 557.407C578.494 557.407 582.734 559.163 585.859 562.289C588.985 565.414 590.741 569.654 590.741 574.074C590.741 578.494 588.985 582.733 585.859 585.859C582.734 588.985 578.494 590.741 574.074 590.741C569.654 590.741 565.415 588.985 562.289 585.859C559.163 582.733 557.407 578.494 557.407 574.074C557.407 569.654 559.163 565.414 562.289 562.289C565.415 559.163 569.654 557.407 574.074 557.407ZM611.111 557.407C615.531 557.407 619.771 559.163 622.896 562.289C626.022 565.414 627.778 569.654 627.778 574.074C627.778 578.494 626.022 582.733 622.896 585.859C619.771 588.985 615.531 590.741 611.111 590.741C606.691 590.741 602.452 588.985 599.326 585.859C596.2 582.733 594.444 578.494 594.444 574.074C594.444 569.654 596.2 565.414 599.326 562.289C602.452 559.163 606.691 557.407 611.111 557.407ZM648.148 557.407C652.568 557.407 656.808 559.163 659.933 562.289C663.059 565.414 664.815 569.654 664.815 574.074C664.815 578.494 663.059 582.733 659.933 585.859C656.808 588.985 652.568 590.741 648.148 590.741C643.728 590.741 639.489 588.985 636.363 585.859C633.238 582.733 631.481 578.494 631.481 574.074C631.481 569.654 633.238 565.414 636.363 562.289C639.489 559.163 643.728 557.407 648.148 557.407ZM722.222 557.407C726.643 557.407 730.882 559.163 734.007 562.289C737.133 565.414 738.889 569.654 738.889 574.074C738.889 578.494 737.133 582.733 734.007 585.859C730.882 588.985 726.643 590.741 722.222 590.741C717.802 590.741 713.563 588.985 710.437 585.859C707.312 582.733 705.556 578.494 705.556 574.074C705.556 569.654 707.312 565.414 710.437 562.289C713.563 559.163 717.802 557.407 722.222 557.407ZM759.259 557.407C763.68 557.407 767.919 559.163 771.044 562.289C774.17 565.414 775.926 569.654 775.926 574.074C775.926 578.494 774.17 582.733 771.044 585.859C767.919 588.985 763.68 590.741 759.259 590.741C754.839 590.741 750.6 588.985 747.474 585.859C744.349 582.733 742.593 578.494 742.593 574.074C742.593 569.654 744.349 565.414 747.474 562.289C750.6 559.163 754.839 557.407 759.259 557.407ZM796.296 557.407C800.717 557.407 804.956 559.163 808.081 562.289C811.207 565.414 812.963 569.654 812.963 574.074C812.963 578.494 811.207 582.733 808.081 585.859C804.956 588.985 800.717 590.741 796.296 590.741C791.876 590.741 787.637 588.985 784.511 585.859C781.386 582.733 779.63 578.494 779.63 574.074C779.63 569.654 781.386 565.414 784.511 562.289C787.637 559.163 791.876 557.407 796.296 557.407ZM833.333 557.407C837.754 557.407 841.993 559.163 845.118 562.289C848.244 565.414 850 569.654 850 574.074C850 578.494 848.244 582.733 845.118 585.859C841.993 588.985 837.754 590.741 833.333 590.741C828.913 590.741 824.674 588.985 821.548 585.859C818.423 582.733 816.667 578.494 816.667 574.074C816.667 569.654 818.423 565.414 821.548 562.289C824.674 559.163 828.913 557.407 833.333 557.407ZM870.37 557.407C874.791 557.407 879.03 559.163 882.156 562.289C885.281 565.414 887.037 569.654 887.037 574.074C887.037 578.494 885.281 582.733 882.156 585.859C879.03 588.985 874.791 590.741 870.37 590.741C865.95 590.741 861.711 588.985 858.585 585.859C855.46 582.733 853.704 578.494 853.704 574.074C853.704 569.654 855.46 565.414 858.585 562.289C861.711 559.163 865.95 557.407 870.37 557.407ZM129.63 594.444C134.05 594.444 138.289 596.2 141.415 599.326C144.54 602.451 146.296 606.691 146.296 611.111C146.296 615.531 144.54 619.77 141.415 622.896C138.289 626.022 134.05 627.778 129.63 627.778C125.209 627.778 120.97 626.022 117.845 622.896C114.719 619.77 112.963 615.531 112.963 611.111C112.963 606.691 114.719 602.451 117.845 599.326C120.97 596.2 125.209 594.444 129.63 594.444ZM166.667 594.444C171.087 594.444 175.326 596.2 178.452 599.326C181.577 602.451 183.333 606.691 183.333 611.111C183.333 615.531 181.577 619.77 178.452 622.896C175.326 626.022 171.087 627.778 166.667 627.778C162.246 627.778 158.007 626.022 154.882 622.896C151.756 619.77 150 615.531 150 611.111C150 606.691 151.756 602.451 154.882 599.326C158.007 596.2 162.246 594.444 166.667 594.444ZM203.704 594.444C208.124 594.444 212.363 596.2 215.489 599.326C218.614 602.451 220.37 606.691 220.37 611.111C220.37 615.531 218.614 619.77 215.489 622.896C212.363 626.022 208.124 627.778 203.704 627.778C199.283 627.778 195.044 626.022 191.919 622.896C188.793 619.77 187.037 615.531 187.037 611.111C187.037 606.691 188.793 602.451 191.919 599.326C195.044 596.2 199.283 594.444 203.704 594.444ZM240.741 594.444C245.161 594.444 249.4 596.2 252.526 599.326C255.651 602.451 257.407 606.691 257.407 611.111C257.407 615.531 255.651 619.77 252.526 622.896C249.4 626.022 245.161 627.778 240.741 627.778C236.32 627.778 232.081 626.022 228.956 622.896C225.83 619.77 224.074 615.531 224.074 611.111C224.074 606.691 225.83 602.451 228.956 599.326C232.081 596.2 236.32 594.444 240.741 594.444ZM314.815 594.444C319.235 594.444 323.474 596.2 326.6 599.326C329.726 602.451 331.481 606.691 331.481 611.111C331.481 615.531 329.726 619.77 326.6 622.896C323.474 626.022 319.235 627.778 314.815 627.778C310.395 627.778 306.155 626.022 303.03 622.896C299.904 619.77 298.148 615.531 298.148 611.111C298.148 606.691 299.904 602.451 303.03 599.326C306.155 596.2 310.395 594.444 314.815 594.444ZM351.852 594.444C356.272 594.444 360.511 596.2 363.637 599.326C366.763 602.451 368.519 606.691 368.519 611.111C368.519 615.531 366.763 619.77 363.637 622.896C360.511 626.022 356.272 627.778 351.852 627.778C347.432 627.778 343.192 626.022 340.067 622.896C336.941 619.77 335.185 615.531 335.185 611.111C335.185 606.691 336.941 602.451 340.067 599.326C343.192 596.2 347.432 594.444 351.852 594.444ZM388.889 594.444C393.309 594.444 397.548 596.2 400.674 599.326C403.8 602.451 405.556 606.691 405.556 611.111C405.556 615.531 403.8 619.77 400.674 622.896C397.548 626.022 393.309 627.778 388.889 627.778C384.469 627.778 380.229 626.022 377.104 622.896C373.978 619.77 372.222 615.531 372.222 611.111C372.222 606.691 373.978 602.451 377.104 599.326C380.229 596.2 384.469 594.444 388.889 594.444ZM462.963 594.444C467.383 594.444 471.622 596.2 474.748 599.326C477.874 602.451 479.63 606.691 479.63 611.111C479.63 615.531 477.874 619.77 474.748 622.896C471.622 626.022 467.383 627.778 462.963 627.778C458.543 627.778 454.303 626.022 451.178 622.896C448.052 619.77 446.296 615.531 446.296 611.111C446.296 606.691 448.052 602.451 451.178 599.326C454.303 596.2 458.543 594.444 462.963 594.444ZM611.111 594.444C615.531 594.444 619.771 596.2 622.896 599.326C626.022 602.451 627.778 606.691 627.778 611.111C627.778 615.531 626.022 619.77 622.896 622.896C619.771 626.022 615.531 627.778 611.111 627.778C606.691 627.778 602.452 626.022 599.326 622.896C596.2 619.77 594.444 615.531 594.444 611.111C594.444 606.691 596.2 602.451 599.326 599.326C602.452 596.2 606.691 594.444 611.111 594.444ZM759.259 594.444C763.68 594.444 767.919 596.2 771.044 599.326C774.17 602.451 775.926 606.691 775.926 611.111C775.926 615.531 774.17 619.77 771.044 622.896C767.919 626.022 763.68 627.778 759.259 627.778C754.839 627.778 750.6 626.022 747.474 622.896C744.349 619.77 742.593 615.531 742.593 611.111C742.593 606.691 744.349 602.451 747.474 599.326C750.6 596.2 754.839 594.444 759.259 594.444ZM796.296 594.444C800.717 594.444 804.956 596.2 808.081 599.326C811.207 602.451 812.963 606.691 812.963 611.111C812.963 615.531 811.207 619.77 808.081 622.896C804.956 626.022 800.717 627.778 796.296 627.778C791.876 627.778 787.637 626.022 784.511 622.896C781.386 619.77 779.63 615.531 779.63 611.111C779.63 606.691 781.386 602.451 784.511 599.326C787.637 596.2 791.876 594.444 796.296 594.444ZM870.37 594.444C874.791 594.444 879.03 596.2 882.156 599.326C885.281 602.451 887.037 606.691 887.037 611.111C887.037 615.531 885.281 619.77 882.156 622.896C879.03 626.022 874.791 627.778 870.37 627.778C865.95 627.778 861.711 626.022 858.585 622.896C855.46 619.77 853.704 615.531 853.704 611.111C853.704 606.691 855.46 602.451 858.585 599.326C861.711 596.2 865.95 594.444 870.37 594.444ZM907.407 594.444C911.828 594.444 916.067 596.2 919.193 599.326C922.318 602.451 924.074 606.691 924.074 611.111C924.074 615.531 922.318 619.77 919.193 622.896C916.067 626.022 911.828 627.778 907.407 627.778C902.987 627.778 898.748 626.022 895.622 622.896C892.497 619.77 890.741 615.531 890.741 611.111C890.741 606.691 892.497 602.451 895.622 599.326C898.748 596.2 902.987 594.444 907.407 594.444ZM55.5556 631.481C59.9759 631.481 64.2151 633.237 67.3407 636.363C70.4663 639.488 72.2222 643.728 72.2222 648.148C72.2222 650.337 71.7912 652.504 70.9536 654.526C70.116 656.548 68.8883 658.385 67.3407 659.933C65.7931 661.481 63.9557 662.708 61.9336 663.546C59.9115 664.384 57.7443 664.815 55.5556 664.815C51.1353 664.815 46.8961 663.059 43.7705 659.933C40.6449 656.807 38.8889 652.568 38.8889 648.148C38.8889 643.728 40.6449 639.488 43.7705 636.363C46.8961 633.237 51.1353 631.481 55.5556 631.481ZM92.5926 631.481C97.0129 631.481 101.252 633.237 104.378 636.363C107.503 639.488 109.259 643.728 109.259 648.148C109.259 652.568 107.503 656.807 104.378 659.933C101.252 663.059 97.0129 664.815 92.5926 664.815C88.1723 664.815 83.9331 663.059 80.8075 659.933C77.6819 656.807 75.926 652.568 75.926 648.148C75.926 643.728 77.6819 639.488 80.8075 636.363C83.9331 633.237 88.1723 631.481 92.5926 631.481ZM129.63 631.481C134.05 631.481 138.289 633.237 141.415 636.363C144.54 639.488 146.296 643.728 146.296 648.148C146.296 652.568 144.54 656.807 141.415 659.933C138.289 663.059 134.05 664.815 129.63 664.815C125.209 664.815 120.97 663.059 117.845 659.933C114.719 656.807 112.963 652.568 112.963 648.148C112.963 643.728 114.719 639.488 117.845 636.363C120.97 633.237 125.209 631.481 129.63 631.481ZM203.704 631.481C208.124 631.481 212.363 633.237 215.489 636.363C218.614 639.488 220.37 643.728 220.37 648.148C220.37 652.568 218.614 656.807 215.489 659.933C212.363 663.059 208.124 664.815 203.704 664.815C199.283 664.815 195.044 663.059 191.919 659.933C188.793 656.807 187.037 652.568 187.037 648.148C187.037 643.728 188.793 639.488 191.919 636.363C195.044 633.237 199.283 631.481 203.704 631.481ZM277.778 631.481C282.198 631.481 286.437 633.237 289.563 636.363C292.689 639.488 294.444 643.728 294.444 648.148C294.444 652.568 292.689 656.807 289.563 659.933C286.437 663.059 282.198 664.815 277.778 664.815C273.358 664.815 269.118 663.059 265.993 659.933C262.867 656.807 261.111 652.568 261.111 648.148C261.111 643.728 262.867 639.488 265.993 636.363C269.118 633.237 273.358 631.481 277.778 631.481ZM351.852 631.481C356.272 631.481 360.511 633.237 363.637 636.363C366.763 639.488 368.519 643.728 368.519 648.148C368.519 652.568 366.763 656.807 363.637 659.933C360.511 663.059 356.272 664.815 351.852 664.815C347.432 664.815 343.192 663.059 340.067 659.933C336.941 656.807 335.185 652.568 335.185 648.148C335.185 643.728 336.941 639.488 340.067 636.363C343.192 633.237 347.432 631.481 351.852 631.481ZM500 631.481C504.42 631.481 508.66 633.237 511.785 636.363C514.911 639.488 516.667 643.728 516.667 648.148C516.667 652.568 514.911 656.807 511.785 659.933C508.66 663.059 504.42 664.815 500 664.815C495.58 664.815 491.341 663.059 488.215 659.933C485.089 656.807 483.333 652.568 483.333 648.148C483.333 643.728 485.089 639.488 488.215 636.363C491.341 633.237 495.58 631.481 500 631.481ZM648.148 631.481C652.568 631.481 656.808 633.237 659.933 636.363C663.059 639.488 664.815 643.728 664.815 648.148C664.815 652.568 663.059 656.807 659.933 659.933C656.808 663.059 652.568 664.815 648.148 664.815C643.728 664.815 639.489 663.059 636.363 659.933C633.238 656.807 631.481 652.568 631.481 648.148C631.481 643.728 633.238 639.488 636.363 636.363C639.489 633.237 643.728 631.481 648.148 631.481ZM685.185 631.481C689.606 631.481 693.845 633.237 696.97 636.363C700.096 639.488 701.852 643.728 701.852 648.148C701.852 652.568 700.096 656.807 696.97 659.933C693.845 663.059 689.606 664.815 685.185 664.815C680.765 664.815 676.526 663.059 673.4 659.933C670.275 656.807 668.519 652.568 668.519 648.148C668.519 643.728 670.275 639.488 673.4 636.363C676.526 633.237 680.765 631.481 685.185 631.481ZM722.222 631.481C726.643 631.481 730.882 633.237 734.007 636.363C737.133 639.488 738.889 643.728 738.889 648.148C738.889 652.568 737.133 656.807 734.007 659.933C730.882 663.059 726.643 664.815 722.222 664.815C717.802 664.815 713.563 663.059 710.437 659.933C707.312 656.807 705.556 652.568 705.556 648.148C705.556 643.728 707.312 639.488 710.437 636.363C713.563 633.237 717.802 631.481 722.222 631.481ZM759.259 631.481C763.68 631.481 767.919 633.237 771.044 636.363C774.17 639.488 775.926 643.728 775.926 648.148C775.926 652.568 774.17 656.807 771.044 659.933C767.919 663.059 763.68 664.815 759.259 664.815C754.839 664.815 750.6 663.059 747.474 659.933C744.349 656.807 742.593 652.568 742.593 648.148C742.593 643.728 744.349 639.488 747.474 636.363C750.6 633.237 754.839 631.481 759.259 631.481ZM796.296 631.481C800.717 631.481 804.956 633.237 808.081 636.363C811.207 639.488 812.963 643.728 812.963 648.148C812.963 652.568 811.207 656.807 808.081 659.933C804.956 663.059 800.717 664.815 796.296 664.815C791.876 664.815 787.637 663.059 784.511 659.933C781.386 656.807 779.63 652.568 779.63 648.148C779.63 643.728 781.386 639.488 784.511 636.363C787.637 633.237 791.876 631.481 796.296 631.481ZM833.333 631.481C837.754 631.481 841.993 633.237 845.118 636.363C848.244 639.488 850 643.728 850 648.148C850 652.568 848.244 656.807 845.118 659.933C841.993 663.059 837.754 664.815 833.333 664.815C828.913 664.815 824.674 663.059 821.548 659.933C818.423 656.807 816.667 652.568 816.667 648.148C816.667 643.728 818.423 639.488 821.548 636.363C824.674 633.237 828.913 631.481 833.333 631.481ZM870.37 631.481C874.791 631.481 879.03 633.237 882.156 636.363C885.281 639.488 887.037 643.728 887.037 648.148C887.037 652.568 885.281 656.807 882.156 659.933C879.03 663.059 874.791 664.815 870.37 664.815C865.95 664.815 861.711 663.059 858.585 659.933C855.46 656.807 853.704 652.568 853.704 648.148C853.704 643.728 855.46 639.488 858.585 636.363C861.711 633.237 865.95 631.481 870.37 631.481ZM351.852 668.518C356.272 668.518 360.511 670.274 363.637 673.4C366.763 676.526 368.519 680.765 368.519 685.185C368.519 689.605 366.763 693.844 363.637 696.97C360.511 700.096 356.272 701.852 351.852 701.852C347.432 701.852 343.192 700.096 340.067 696.97C336.941 693.844 335.185 689.605 335.185 685.185C335.185 680.765 336.941 676.526 340.067 673.4C343.192 670.274 347.432 668.518 351.852 668.518ZM388.889 668.518C393.309 668.518 397.548 670.274 400.674 673.4C403.8 676.526 405.556 680.765 405.556 685.185C405.556 689.605 403.8 693.844 400.674 696.97C397.548 700.096 393.309 701.852 388.889 701.852C384.469 701.852 380.229 700.096 377.104 696.97C373.978 693.844 372.222 689.605 372.222 685.185C372.222 680.765 373.978 676.526 377.104 673.4C380.229 670.274 384.469 668.518 388.889 668.518ZM462.963 668.518C467.383 668.518 471.622 670.274 474.748 673.4C477.874 676.526 479.63 680.765 479.63 685.185C479.63 689.605 477.874 693.844 474.748 696.97C471.622 700.096 467.383 701.852 462.963 701.852C458.543 701.852 454.303 700.096 451.178 696.97C448.052 693.844 446.296 689.605 446.296 685.185C446.296 680.765 448.052 676.526 451.178 673.4C454.303 670.274 458.543 668.518 462.963 668.518ZM648.148 668.518C652.568 668.518 656.808 670.274 659.933 673.4C663.059 676.526 664.815 680.765 664.815 685.185C664.815 689.605 663.059 693.844 659.933 696.97C656.808 700.096 652.568 701.852 648.148 701.852C643.728 701.852 639.489 700.096 636.363 696.97C633.238 693.844 631.481 689.605 631.481 685.185C631.481 680.765 633.238 676.526 636.363 673.4C639.489 670.274 643.728 668.518 648.148 668.518ZM796.296 668.518C800.717 668.518 804.956 670.274 808.081 673.4C811.207 676.526 812.963 680.765 812.963 685.185C812.963 689.605 811.207 693.844 808.081 696.97C804.956 700.096 800.717 701.852 796.296 701.852C791.876 701.852 787.637 700.096 784.511 696.97C781.386 693.844 779.63 689.605 779.63 685.185C779.63 680.765 781.386 676.526 784.511 673.4C787.637 670.274 791.876 668.518 796.296 668.518ZM425.926 705.555C430.346 705.555 434.585 707.311 437.711 710.437C440.837 713.563 442.593 717.802 442.593 722.222C442.593 726.642 440.837 730.882 437.711 734.007C434.585 737.133 430.346 738.889 425.926 738.889C421.506 738.889 417.266 737.133 414.141 734.007C411.015 730.882 409.259 726.642 409.259 722.222C409.259 717.802 411.015 713.563 414.141 710.437C417.266 707.311 421.506 705.555 425.926 705.555ZM462.963 705.555C467.383 705.555 471.622 707.311 474.748 710.437C477.874 713.563 479.63 717.802 479.63 722.222C479.63 726.642 477.874 730.882 474.748 734.007C471.622 737.133 467.383 738.889 462.963 738.889C458.543 738.889 454.303 737.133 451.178 734.007C448.052 730.882 446.296 726.642 446.296 722.222C446.296 717.802 448.052 713.563 451.178 710.437C454.303 707.311 458.543 705.555 462.963 705.555ZM648.148 705.555C652.568 705.555 656.808 707.311 659.933 710.437C663.059 713.563 664.815 717.802 664.815 722.222C664.815 726.642 663.059 730.882 659.933 734.007C656.808 737.133 652.568 738.889 648.148 738.889C643.728 738.889 639.489 737.133 636.363 734.007C633.238 730.882 631.481 726.642 631.481 722.222C631.481 717.802 633.238 713.563 636.363 710.437C639.489 707.311 643.728 705.555 648.148 705.555ZM722.222 705.555C726.643 705.555 730.882 707.311 734.007 710.437C737.133 713.563 738.889 717.802 738.889 722.222C738.889 726.642 737.133 730.882 734.007 734.007C730.882 737.133 726.643 738.889 722.222 738.889C717.802 738.889 713.563 737.133 710.437 734.007C707.312 730.882 705.556 726.642 705.556 722.222C705.556 717.802 707.312 713.563 710.437 710.437C713.563 707.311 717.802 705.555 722.222 705.555ZM796.296 705.555C800.717 705.555 804.956 707.311 808.081 710.437C811.207 713.563 812.963 717.802 812.963 722.222C812.963 726.642 811.207 730.882 808.081 734.007C804.956 737.133 800.717 738.889 796.296 738.889C791.876 738.889 787.637 737.133 784.511 734.007C781.386 730.882 779.63 726.642 779.63 722.222C779.63 717.802 781.386 713.563 784.511 710.437C787.637 707.311 791.876 705.555 796.296 705.555ZM351.852 742.592C356.272 742.592 360.511 744.348 363.637 747.474C366.763 750.6 368.519 754.839 368.519 759.259C368.519 763.679 366.763 767.919 363.637 771.044C360.511 774.17 356.272 775.926 351.852 775.926C347.432 775.926 343.192 774.17 340.067 771.044C336.941 767.919 335.185 763.679 335.185 759.259C335.185 754.839 336.941 750.6 340.067 747.474C343.192 744.348 347.432 742.592 351.852 742.592ZM388.889 742.592C393.309 742.592 397.548 744.348 400.674 747.474C403.8 750.6 405.556 754.839 405.556 759.259C405.556 763.679 403.8 767.919 400.674 771.044C397.548 774.17 393.309 775.926 388.889 775.926C384.469 775.926 380.229 774.17 377.104 771.044C373.978 767.919 372.222 763.679 372.222 759.259C372.222 754.839 373.978 750.6 377.104 747.474C380.229 744.348 384.469 742.592 388.889 742.592ZM425.926 742.592C430.346 742.592 434.585 744.348 437.711 747.474C440.837 750.6 442.593 754.839 442.593 759.259C442.593 763.679 440.837 767.919 437.711 771.044C434.585 774.17 430.346 775.926 425.926 775.926C421.506 775.926 417.266 774.17 414.141 771.044C411.015 767.919 409.259 763.679 409.259 759.259C409.259 754.839 411.015 750.6 414.141 747.474C417.266 744.348 421.506 742.592 425.926 742.592ZM462.963 742.592C467.383 742.592 471.622 744.348 474.748 747.474C477.874 750.6 479.63 754.839 479.63 759.259C479.63 763.679 477.874 767.919 474.748 771.044C471.622 774.17 467.383 775.926 462.963 775.926C458.543 775.926 454.303 774.17 451.178 771.044C448.052 767.919 446.296 763.679 446.296 759.259C446.296 754.839 448.052 750.6 451.178 747.474C454.303 744.348 458.543 742.592 462.963 742.592ZM574.074 742.592C578.494 742.592 582.734 744.348 585.859 747.474C588.985 750.6 590.741 754.839 590.741 759.259C590.741 763.679 588.985 767.919 585.859 771.044C582.734 774.17 578.494 775.926 574.074 775.926C569.654 775.926 565.415 774.17 562.289 771.044C559.163 767.919 557.407 763.679 557.407 759.259C557.407 754.839 559.163 750.6 562.289 747.474C565.415 744.348 569.654 742.592 574.074 742.592ZM648.148 742.592C652.568 742.592 656.808 744.348 659.933 747.474C663.059 750.6 664.815 754.839 664.815 759.259C664.815 763.679 663.059 767.919 659.933 771.044C656.808 774.17 652.568 775.926 648.148 775.926C643.728 775.926 639.489 774.17 636.363 771.044C633.238 767.919 631.481 763.679 631.481 759.259C631.481 754.839 633.238 750.6 636.363 747.474C639.489 744.348 643.728 742.592 648.148 742.592ZM796.296 742.592C800.717 742.592 804.956 744.348 808.081 747.474C811.207 750.6 812.963 754.839 812.963 759.259C812.963 763.679 811.207 767.919 808.081 771.044C804.956 774.17 800.717 775.926 796.296 775.926C791.876 775.926 787.637 774.17 784.511 771.044C781.386 767.919 779.63 763.679 779.63 759.259C779.63 754.839 781.386 750.6 784.511 747.474C787.637 744.348 791.876 742.592 796.296 742.592ZM833.333 742.592C837.754 742.592 841.993 744.348 845.118 747.474C848.244 750.6 850 754.839 850 759.259C850 763.679 848.244 767.919 845.118 771.044C841.993 774.17 837.754 775.926 833.333 775.926C828.913 775.926 824.674 774.17 821.548 771.044C818.423 767.919 816.667 763.679 816.667 759.259C816.667 754.839 818.423 750.6 821.548 747.474C824.674 744.348 828.913 742.592 833.333 742.592ZM870.37 742.592C874.791 742.592 879.03 744.348 882.156 747.474C885.281 750.6 887.037 754.839 887.037 759.259C887.037 763.679 885.281 767.919 882.156 771.044C879.03 774.17 874.791 775.926 870.37 775.926C865.95 775.926 861.711 774.17 858.585 771.044C855.46 767.919 853.704 763.679 853.704 759.259C853.704 754.839 855.46 750.6 858.585 747.474C861.711 744.348 865.95 742.592 870.37 742.592ZM907.407 742.592C911.828 742.592 916.067 744.348 919.193 747.474C922.318 750.6 924.074 754.839 924.074 759.259C924.074 763.679 922.318 767.919 919.193 771.044C916.067 774.17 911.828 775.926 907.407 775.926C902.987 775.926 898.748 774.17 895.622 771.044C892.497 767.919 890.741 763.679 890.741 759.259C890.741 754.839 892.497 750.6 895.622 747.474C898.748 744.348 902.987 742.592 907.407 742.592ZM944.444 742.592C948.865 742.592 953.104 744.348 956.23 747.474C959.355 750.6 961.111 754.839 961.111 759.259C961.111 763.679 959.355 767.919 956.23 771.044C953.104 774.17 948.865 775.926 944.444 775.926C940.024 775.926 935.785 774.17 932.659 771.044C929.534 767.919 927.778 763.679 927.778 759.259C927.778 754.839 929.534 750.6 932.659 747.474C935.785 744.348 940.024 742.592 944.444 742.592ZM351.852 779.629C356.272 779.629 360.511 781.385 363.637 784.511C366.763 787.637 368.519 791.876 368.519 796.296C368.519 800.716 366.763 804.956 363.637 808.081C360.511 811.207 356.272 812.963 351.852 812.963C347.432 812.963 343.192 811.207 340.067 808.081C336.941 804.956 335.185 800.716 335.185 796.296C335.185 791.876 336.941 787.637 340.067 784.511C343.192 781.385 347.432 779.629 351.852 779.629ZM462.963 779.629C467.383 779.629 471.622 781.385 474.748 784.511C477.874 787.637 479.63 791.876 479.63 796.296C479.63 800.716 477.874 804.956 474.748 808.081C471.622 811.207 467.383 812.963 462.963 812.963C458.543 812.963 454.303 811.207 451.178 808.081C448.052 804.956 446.296 800.716 446.296 796.296C446.296 791.876 448.052 787.637 451.178 784.511C454.303 781.385 458.543 779.629 462.963 779.629ZM537.037 779.629C541.457 779.629 545.697 781.385 548.822 784.511C551.948 787.637 553.704 791.876 553.704 796.296C553.704 800.716 551.948 804.956 548.822 808.081C545.697 811.207 541.457 812.963 537.037 812.963C532.617 812.963 528.378 811.207 525.252 808.081C522.126 804.956 520.37 800.716 520.37 796.296C520.37 791.876 522.126 787.637 525.252 784.511C528.378 781.385 532.617 779.629 537.037 779.629ZM648.148 779.629C652.568 779.629 656.808 781.385 659.933 784.511C663.059 787.637 664.815 791.876 664.815 796.296C664.815 800.716 663.059 804.956 659.933 808.081C656.808 811.207 652.568 812.963 648.148 812.963C643.728 812.963 639.489 811.207 636.363 808.081C633.238 804.956 631.481 800.716 631.481 796.296C631.481 791.876 633.238 787.637 636.363 784.511C639.489 781.385 643.728 779.629 648.148 779.629ZM685.185 779.629C689.606 779.629 693.845 781.385 696.97 784.511C700.096 787.637 701.852 791.876 701.852 796.296C701.852 800.716 700.096 804.956 696.97 808.081C693.845 811.207 689.606 812.963 685.185 812.963C680.765 812.963 676.526 811.207 673.4 808.081C670.275 804.956 668.519 800.716 668.519 796.296C668.519 791.876 670.275 787.637 673.4 784.511C676.526 781.385 680.765 779.629 685.185 779.629ZM722.222 779.629C726.643 779.629 730.882 781.385 734.007 784.511C737.133 787.637 738.889 791.876 738.889 796.296C738.889 800.716 737.133 804.956 734.007 808.081C730.882 811.207 726.643 812.963 722.222 812.963C717.802 812.963 713.563 811.207 710.437 808.081C707.312 804.956 705.556 800.716 705.556 796.296C705.556 791.876 707.312 787.637 710.437 784.511C713.563 781.385 717.802 779.629 722.222 779.629ZM759.259 779.629C763.68 779.629 767.919 781.385 771.044 784.511C774.17 787.637 775.926 791.876 775.926 796.296C775.926 800.716 774.17 804.956 771.044 808.081C767.919 811.207 763.68 812.963 759.259 812.963C754.839 812.963 750.6 811.207 747.474 808.081C744.349 804.956 742.593 800.716 742.593 796.296C742.593 791.876 744.349 787.637 747.474 784.511C750.6 781.385 754.839 779.629 759.259 779.629ZM796.296 779.629C800.717 779.629 804.956 781.385 808.081 784.511C811.207 787.637 812.963 791.876 812.963 796.296C812.963 800.716 811.207 804.956 808.081 808.081C804.956 811.207 800.717 812.963 796.296 812.963C791.876 812.963 787.637 811.207 784.511 808.081C781.386 804.956 779.63 800.716 779.63 796.296C779.63 791.876 781.386 787.637 784.511 784.511C787.637 781.385 791.876 779.629 796.296 779.629ZM833.333 779.629C837.754 779.629 841.993 781.385 845.118 784.511C848.244 787.637 850 791.876 850 796.296C850 800.716 848.244 804.956 845.118 808.081C841.993 811.207 837.754 812.963 833.333 812.963C828.913 812.963 824.674 811.207 821.548 808.081C818.423 804.956 816.667 800.716 816.667 796.296C816.667 791.876 818.423 787.637 821.548 784.511C824.674 781.385 828.913 779.629 833.333 779.629ZM870.37 779.629C874.791 779.629 879.03 781.385 882.156 784.511C885.281 787.637 887.037 791.876 887.037 796.296C887.037 800.716 885.281 804.956 882.156 808.081C879.03 811.207 874.791 812.963 870.37 812.963C865.95 812.963 861.711 811.207 858.585 808.081C855.46 804.956 853.704 800.716 853.704 796.296C853.704 791.876 855.46 787.637 858.585 784.511C861.711 781.385 865.95 779.629 870.37 779.629ZM388.889 816.666C393.309 816.666 397.548 818.422 400.674 821.548C403.8 824.674 405.556 828.913 405.556 833.333C405.556 837.753 403.8 841.993 400.674 845.118C397.548 848.244 393.309 850 388.889 850C384.469 850 380.229 848.244 377.104 845.118C373.978 841.993 372.222 837.753 372.222 833.333C372.222 828.913 373.978 824.674 377.104 821.548C380.229 818.422 384.469 816.666 388.889 816.666ZM425.926 816.666C430.346 816.666 434.585 818.422 437.711 821.548C440.837 824.674 442.593 828.913 442.593 833.333C442.593 837.753 440.837 841.993 437.711 845.118C434.585 848.244 430.346 850 425.926 850C421.506 850 417.266 848.244 414.141 845.118C411.015 841.993 409.259 837.753 409.259 833.333C409.259 828.913 411.015 824.674 414.141 821.548C417.266 818.422 421.506 816.666 425.926 816.666ZM574.074 816.666C578.494 816.666 582.734 818.422 585.859 821.548C588.985 824.674 590.741 828.913 590.741 833.333C590.741 837.753 588.985 841.993 585.859 845.118C582.734 848.244 578.494 850 574.074 850C569.654 850 565.415 848.244 562.289 845.118C559.163 841.993 557.407 837.753 557.407 833.333C557.407 828.913 559.163 824.674 562.289 821.548C565.415 818.422 569.654 816.666 574.074 816.666ZM611.111 816.666C615.531 816.666 619.771 818.422 622.896 821.548C626.022 824.674 627.778 828.913 627.778 833.333C627.778 837.753 626.022 841.993 622.896 845.118C619.771 848.244 615.531 850 611.111 850C606.691 850 602.452 848.244 599.326 845.118C596.2 841.993 594.444 837.753 594.444 833.333C594.444 828.913 596.2 824.674 599.326 821.548C602.452 818.422 606.691 816.666 611.111 816.666ZM648.148 816.666C652.568 816.666 656.808 818.422 659.933 821.548C663.059 824.674 664.815 828.913 664.815 833.333C664.815 837.753 663.059 841.993 659.933 845.118C656.808 848.244 652.568 850 648.148 850C643.728 850 639.489 848.244 636.363 845.118C633.238 841.993 631.481 837.753 631.481 833.333C631.481 828.913 633.238 824.674 636.363 821.548C639.489 818.422 643.728 816.666 648.148 816.666ZM685.185 816.666C689.606 816.666 693.845 818.422 696.97 821.548C700.096 824.674 701.852 828.913 701.852 833.333C701.852 837.753 700.096 841.993 696.97 845.118C693.845 848.244 689.606 850 685.185 850C680.765 850 676.526 848.244 673.4 845.118C670.275 841.993 668.519 837.753 668.519 833.333C668.519 828.913 670.275 824.674 673.4 821.548C676.526 818.422 680.765 816.666 685.185 816.666ZM722.222 816.666C726.643 816.666 730.882 818.422 734.007 821.548C737.133 824.674 738.889 828.913 738.889 833.333C738.889 837.753 737.133 841.993 734.007 845.118C730.882 848.244 726.643 850 722.222 850C717.802 850 713.563 848.244 710.437 845.118C707.312 841.993 705.556 837.753 705.556 833.333C705.556 828.913 707.312 824.674 710.437 821.548C713.563 818.422 717.802 816.666 722.222 816.666ZM759.259 816.666C763.68 816.666 767.919 818.422 771.044 821.548C774.17 824.674 775.926 828.913 775.926 833.333C775.926 837.753 774.17 841.993 771.044 845.118C767.919 848.244 763.68 850 759.259 850C754.839 850 750.6 848.244 747.474 845.118C744.349 841.993 742.593 837.753 742.593 833.333C742.593 828.913 744.349 824.674 747.474 821.548C750.6 818.422 754.839 816.666 759.259 816.666ZM870.37 816.666C874.791 816.666 879.03 818.422 882.156 821.548C885.281 824.674 887.037 828.913 887.037 833.333C887.037 837.753 885.281 841.993 882.156 845.118C879.03 848.244 874.791 850 870.37 850C865.95 850 861.711 848.244 858.585 845.118C855.46 841.993 853.704 837.753 853.704 833.333C853.704 828.913 855.46 824.674 858.585 821.548C861.711 818.422 865.95 816.666 870.37 816.666ZM907.407 816.666C911.828 816.666 916.067 818.422 919.193 821.548C922.318 824.674 924.074 828.913 924.074 833.333C924.074 837.753 922.318 841.993 919.193 845.118C916.067 848.244 911.828 850 907.407 850C902.987 850 898.748 848.244 895.622 845.118C892.497 841.993 890.741 837.753 890.741 833.333C890.741 828.913 892.497 824.674 895.622 821.548C898.748 818.422 902.987 816.666 907.407 816.666ZM944.444 816.666C948.865 816.666 953.104 818.422 956.23 821.548C959.355 824.674 961.111 828.913 961.111 833.333C961.111 837.753 959.355 841.993 956.23 845.118C953.104 848.244 948.865 850 944.444 850C940.024 850 935.785 848.244 932.659 845.118C929.534 841.993 927.778 837.753 927.778 833.333C927.778 828.913 929.534 824.674 932.659 821.548C935.785 818.422 940.024 816.666 944.444 816.666ZM388.889 853.703C393.309 853.703 397.548 855.459 400.674 858.585C403.8 861.711 405.556 865.95 405.556 870.37C405.556 874.79 403.8 879.03 400.674 882.155C397.548 885.281 393.309 887.037 388.889 887.037C384.469 887.037 380.229 885.281 377.104 882.155C373.978 879.03 372.222 874.79 372.222 870.37C372.222 865.95 373.978 861.711 377.104 858.585C380.229 855.459 384.469 853.703 388.889 853.703ZM462.963 853.703C467.383 853.703 471.622 855.459 474.748 858.585C477.874 861.711 479.63 865.95 479.63 870.37C479.63 874.79 477.874 879.03 474.748 882.155C471.622 885.281 467.383 887.037 462.963 887.037C458.543 887.037 454.303 885.281 451.178 882.155C448.052 879.03 446.296 874.79 446.296 870.37C446.296 865.95 448.052 861.711 451.178 858.585C454.303 855.459 458.543 853.703 462.963 853.703ZM537.037 853.703C541.457 853.703 545.697 855.459 548.822 858.585C551.948 861.711 553.704 865.95 553.704 870.37C553.704 874.79 551.948 879.03 548.822 882.155C545.697 885.281 541.457 887.037 537.037 887.037C532.617 887.037 528.378 885.281 525.252 882.155C522.126 879.03 520.37 874.79 520.37 870.37C520.37 865.95 522.126 861.711 525.252 858.585C528.378 855.459 532.617 853.703 537.037 853.703ZM574.074 853.703C578.494 853.703 582.734 855.459 585.859 858.585C588.985 861.711 590.741 865.95 590.741 870.37C590.741 874.79 588.985 879.03 585.859 882.155C582.734 885.281 578.494 887.037 574.074 887.037C569.654 887.037 565.415 885.281 562.289 882.155C559.163 879.03 557.407 874.79 557.407 870.37C557.407 865.95 559.163 861.711 562.289 858.585C565.415 855.459 569.654 853.703 574.074 853.703ZM685.185 853.703C689.606 853.703 693.845 855.459 696.97 858.585C700.096 861.711 701.852 865.95 701.852 870.37C701.852 874.79 700.096 879.03 696.97 882.155C693.845 885.281 689.606 887.037 685.185 887.037C680.765 887.037 676.526 885.281 673.4 882.155C670.275 879.03 668.519 874.79 668.519 870.37C668.519 865.95 670.275 861.711 673.4 858.585C676.526 855.459 680.765 853.703 685.185 853.703ZM722.222 853.703C726.643 853.703 730.882 855.459 734.007 858.585C737.133 861.711 738.889 865.95 738.889 870.37C738.889 874.79 737.133 879.03 734.007 882.155C730.882 885.281 726.643 887.037 722.222 887.037C717.802 887.037 713.563 885.281 710.437 882.155C707.312 879.03 705.556 874.79 705.556 870.37C705.556 865.95 707.312 861.711 710.437 858.585C713.563 855.459 717.802 853.703 722.222 853.703ZM833.333 853.703C837.754 853.703 841.993 855.459 845.118 858.585C848.244 861.711 850 865.95 850 870.37C850 874.79 848.244 879.03 845.118 882.155C841.993 885.281 837.754 887.037 833.333 887.037C828.913 887.037 824.674 885.281 821.548 882.155C818.423 879.03 816.667 874.79 816.667 870.37C816.667 865.95 818.423 861.711 821.548 858.585C824.674 855.459 828.913 853.703 833.333 853.703ZM907.407 853.703C911.828 853.703 916.067 855.459 919.193 858.585C922.318 861.711 924.074 865.95 924.074 870.37C924.074 874.79 922.318 879.03 919.193 882.155C916.067 885.281 911.828 887.037 907.407 887.037C902.987 887.037 898.748 885.281 895.622 882.155C892.497 879.03 890.741 874.79 890.741 870.37C890.741 865.95 892.497 861.711 895.622 858.585C898.748 855.459 902.987 853.703 907.407 853.703ZM351.852 890.741C356.272 890.741 360.511 892.497 363.637 895.622C366.763 898.748 368.519 902.987 368.519 907.407C368.519 911.827 366.763 916.067 363.637 919.192C360.511 922.318 356.272 924.074 351.852 924.074C347.432 924.074 343.192 922.318 340.067 919.192C336.941 916.067 335.185 911.827 335.185 907.407C335.185 902.987 336.941 898.748 340.067 895.622C343.192 892.497 347.432 890.741 351.852 890.741ZM425.926 890.741C430.346 890.741 434.585 892.497 437.711 895.622C440.837 898.748 442.593 902.987 442.593 907.407C442.593 911.827 440.837 916.067 437.711 919.192C434.585 922.318 430.346 924.074 425.926 924.074C421.506 924.074 417.266 922.318 414.141 919.192C411.015 916.067 409.259 911.827 409.259 907.407C409.259 902.987 411.015 898.748 414.141 895.622C417.266 892.497 421.506 890.741 425.926 890.741ZM500 890.741C504.42 890.741 508.66 892.497 511.785 895.622C514.911 898.748 516.667 902.987 516.667 907.407C516.667 911.827 514.911 916.067 511.785 919.192C508.66 922.318 504.42 924.074 500 924.074C495.58 924.074 491.341 922.318 488.215 919.192C485.089 916.067 483.333 911.827 483.333 907.407C483.333 902.987 485.089 898.748 488.215 895.622C491.341 892.497 495.58 890.741 500 890.741ZM574.074 890.741C578.494 890.741 582.734 892.497 585.859 895.622C588.985 898.748 590.741 902.987 590.741 907.407C590.741 911.827 588.985 916.067 585.859 919.192C582.734 922.318 578.494 924.074 574.074 924.074C569.654 924.074 565.415 922.318 562.289 919.192C559.163 916.067 557.407 911.827 557.407 907.407C557.407 902.987 559.163 898.748 562.289 895.622C565.415 892.497 569.654 890.741 574.074 890.741ZM611.111 890.741C615.531 890.741 619.771 892.497 622.896 895.622C626.022 898.748 627.778 902.987 627.778 907.407C627.778 911.827 626.022 916.067 622.896 919.192C619.771 922.318 615.531 924.074 611.111 924.074C606.691 924.074 602.452 922.318 599.326 919.192C596.2 916.067 594.444 911.827 594.444 907.407C594.444 902.987 596.2 898.748 599.326 895.622C602.452 892.497 606.691 890.741 611.111 890.741ZM685.185 890.741C689.606 890.741 693.845 892.497 696.97 895.622C700.096 898.748 701.852 902.987 701.852 907.407C701.852 911.827 700.096 916.067 696.97 919.192C693.845 922.318 689.606 924.074 685.185 924.074C680.765 924.074 676.526 922.318 673.4 919.192C670.275 916.067 668.519 911.827 668.519 907.407C668.519 902.987 670.275 898.748 673.4 895.622C676.526 892.497 680.765 890.741 685.185 890.741ZM759.259 890.741C763.68 890.741 767.919 892.497 771.044 895.622C774.17 898.748 775.926 902.987 775.926 907.407C775.926 911.827 774.17 916.067 771.044 919.192C767.919 922.318 763.68 924.074 759.259 924.074C754.839 924.074 750.6 922.318 747.474 919.192C744.349 916.067 742.593 911.827 742.593 907.407C742.593 902.987 744.349 898.748 747.474 895.622C750.6 892.497 754.839 890.741 759.259 890.741ZM796.296 890.741C800.717 890.741 804.956 892.497 808.081 895.622C811.207 898.748 812.963 902.987 812.963 907.407C812.963 911.827 811.207 916.067 808.081 919.192C804.956 922.318 800.717 924.074 796.296 924.074C791.876 924.074 787.637 922.318 784.511 919.192C781.386 916.067 779.63 911.827 779.63 907.407C779.63 902.987 781.386 898.748 784.511 895.622C787.637 892.497 791.876 890.741 796.296 890.741ZM833.333 890.741C837.754 890.741 841.993 892.497 845.118 895.622C848.244 898.748 850 902.987 850 907.407C850 911.827 848.244 916.067 845.118 919.192C841.993 922.318 837.754 924.074 833.333 924.074C828.913 924.074 824.674 922.318 821.548 919.192C818.423 916.067 816.667 911.827 816.667 907.407C816.667 902.987 818.423 898.748 821.548 895.622C824.674 892.497 828.913 890.741 833.333 890.741ZM870.37 890.741C874.791 890.741 879.03 892.497 882.156 895.622C885.281 898.748 887.037 902.987 887.037 907.407C887.037 911.827 885.281 916.067 882.156 919.192C879.03 922.318 874.791 924.074 870.37 924.074C865.95 924.074 861.711 922.318 858.585 919.192C855.46 916.067 853.704 911.827 853.704 907.407C853.704 902.987 855.46 898.748 858.585 895.622C861.711 892.497 865.95 890.741 870.37 890.741ZM907.407 890.741C911.828 890.741 916.067 892.497 919.193 895.622C922.318 898.748 924.074 902.987 924.074 907.407C924.074 911.827 922.318 916.067 919.193 919.192C916.067 922.318 911.828 924.074 907.407 924.074C902.987 924.074 898.748 922.318 895.622 919.192C892.497 916.067 890.741 911.827 890.741 907.407C890.741 902.987 892.497 898.748 895.622 895.622C898.748 892.497 902.987 890.741 907.407 890.741ZM351.852 927.778C356.272 927.778 360.511 929.534 363.637 932.659C366.763 935.785 368.519 940.024 368.519 944.444C368.519 948.865 366.763 953.104 363.637 956.229C360.511 959.355 356.272 961.111 351.852 961.111C347.432 961.111 343.192 959.355 340.067 956.229C336.941 953.104 335.185 948.865 335.185 944.444C335.185 940.024 336.941 935.785 340.067 932.659C343.192 929.534 347.432 927.778 351.852 927.778ZM425.926 927.778C430.346 927.778 434.585 929.534 437.711 932.659C440.837 935.785 442.593 940.024 442.593 944.444C442.593 948.865 440.837 953.104 437.711 956.229C434.585 959.355 430.346 961.111 425.926 961.111C421.506 961.111 417.266 959.355 414.141 956.229C411.015 953.104 409.259 948.865 409.259 944.444C409.259 940.024 411.015 935.785 414.141 932.659C417.266 929.534 421.506 927.778 425.926 927.778ZM500 927.778C504.42 927.778 508.66 929.534 511.785 932.659C514.911 935.785 516.667 940.024 516.667 944.444C516.667 948.865 514.911 953.104 511.785 956.229C508.66 959.355 504.42 961.111 500 961.111C495.58 961.111 491.341 959.355 488.215 956.229C485.089 953.104 483.333 948.865 483.333 944.444C483.333 940.024 485.089 935.785 488.215 932.659C491.341 929.534 495.58 927.778 500 927.778ZM537.037 927.778C541.457 927.778 545.697 929.534 548.822 932.659C551.948 935.785 553.704 940.024 553.704 944.444C553.704 948.865 551.948 953.104 548.822 956.229C545.697 959.355 541.457 961.111 537.037 961.111C532.617 961.111 528.378 959.355 525.252 956.229C522.126 953.104 520.37 948.865 520.37 944.444C520.37 940.024 522.126 935.785 525.252 932.659C528.378 929.534 532.617 927.778 537.037 927.778ZM611.111 927.778C615.531 927.778 619.771 929.534 622.896 932.659C626.022 935.785 627.778 940.024 627.778 944.444C627.778 948.865 626.022 953.104 622.896 956.229C619.771 959.355 615.531 961.111 611.111 961.111C606.691 961.111 602.452 959.355 599.326 956.229C596.2 953.104 594.444 948.865 594.444 944.444C594.444 940.024 596.2 935.785 599.326 932.659C602.452 929.534 606.691 927.778 611.111 927.778ZM685.185 927.778C689.606 927.778 693.845 929.534 696.97 932.659C700.096 935.785 701.852 940.024 701.852 944.444C701.852 948.865 700.096 953.104 696.97 956.229C693.845 959.355 689.606 961.111 685.185 961.111C680.765 961.111 676.526 959.355 673.4 956.229C670.275 953.104 668.519 948.865 668.519 944.444C668.519 940.024 670.275 935.785 673.4 932.659C676.526 929.534 680.765 927.778 685.185 927.778ZM870.37 927.778C874.791 927.778 879.03 929.534 882.156 932.659C885.281 935.785 887.037 940.024 887.037 944.444C887.037 948.865 885.281 953.104 882.156 956.229C879.03 959.355 874.791 961.111 870.37 961.111C865.95 961.111 861.711 959.355 858.585 956.229C855.46 953.104 853.704 948.865 853.704 944.444C853.704 940.024 855.46 935.785 858.585 932.659C861.711 929.534 865.95 927.778 870.37 927.778ZM907.407 927.778C911.828 927.778 916.067 929.534 919.193 932.659C922.318 935.785 924.074 940.024 924.074 944.444C924.074 948.865 922.318 953.104 919.193 956.229C916.067 959.355 911.828 961.111 907.407 961.111C902.987 961.111 898.748 959.355 895.622 956.229C892.497 953.104 890.741 948.865 890.741 944.444C890.741 940.024 892.497 935.785 895.622 932.659C898.748 929.534 902.987 927.778 907.407 927.778ZM944.444 927.778C948.865 927.778 953.104 929.534 956.23 932.659C959.355 935.785 961.111 940.024 961.111 944.444C961.111 948.865 959.355 953.104 956.23 956.229C953.104 959.355 948.865 961.111 944.444 961.111C940.024 961.111 935.785 959.355 932.659 956.229C929.534 953.104 927.778 948.865 927.778 944.444C927.778 940.024 929.534 935.785 932.659 932.659C935.785 929.534 940.024 927.778 944.444 927.778Z" fill="black"/>
<path fill-rule="evenodd" clip-rule="evenodd" d="M101.852 37.0371H231.482C248.672 37.0371 265.157 43.8658 277.313 56.0209C289.468 68.1761 296.296 84.662 296.296 101.852V231.482C296.296 248.672 289.468 265.157 277.313 277.313C265.157 289.468 248.672 296.296 231.482 296.296H101.852C84.662 296.296 68.1761 289.468 56.0209 277.313C43.8658 265.157 37.0371 248.672 37.0371 231.482V101.852C37.0371 84.662 43.8658 68.1761 56.0209 56.0209C68.1761 43.8658 84.662 37.0371 101.852 37.0371ZM120.37 74.0741H212.963C219.043 74.0741 225.063 75.2716 230.68 77.5982C236.297 79.9248 241.4 83.335 245.699 87.634C249.998 91.933 253.409 97.0367 255.735 102.654C258.062 108.271 259.259 114.291 259.259 120.37V212.963C259.259 219.043 258.062 225.063 255.735 230.68C253.409 236.297 249.998 241.4 245.699 245.699C241.4 249.998 236.297 253.409 230.68 255.735C225.063 258.062 219.043 259.259 212.963 259.259H120.37C108.092 259.259 96.3163 254.382 87.634 245.699C78.9518 237.017 74.0741 225.242 74.0741 212.963V120.37C74.0741 108.092 78.9518 96.3163 87.634 87.634C96.3163 78.9518 108.092 74.0741 120.37 74.0741ZM138.889 111.111H194.445C201.812 111.111 208.877 114.038 214.086 119.247C219.296 124.456 222.222 131.522 222.222 138.889V194.445C222.222 201.812 219.296 208.877 214.086 214.086C208.877 219.296 201.812 222.222 194.445 222.222H138.889C131.522 222.222 124.456 219.296 119.247 214.086C114.038 208.877 111.111 201.812 111.111 194.445V138.889C111.111 131.522 114.038 124.456 119.247 119.247C124.456 114.038 131.522 111.111 138.889 111.111ZM768.519 37.0371H898.148C915.338 37.0371 931.824 43.8658 943.979 56.0209C956.134 68.1761 962.963 84.662 962.963 101.852V231.482C962.963 248.672 956.134 265.157 943.979 277.313C931.824 289.468 915.338 296.296 898.148 296.296H768.519C751.329 296.296 734.843 289.468 722.688 277.313C710.532 265.157 703.704 248.672 703.704 231.482V101.852C703.704 84.662 710.532 68.1761 722.688 56.0209C734.843 43.8658 751.329 37.0371 768.519 37.0371ZM787.037 74.0741H879.63C885.709 74.0741 891.73 75.2716 897.346 77.5982C902.963 79.9248 908.067 83.335 912.366 87.634C916.665 91.933 920.075 97.0367 922.402 102.654C924.729 108.271 925.926 114.291 925.926 120.37V212.963C925.926 219.043 924.729 225.063 922.402 230.68C920.075 236.297 916.665 241.4 912.366 245.699C908.067 249.998 902.963 253.409 897.346 255.735C891.73 258.062 885.709 259.259 879.63 259.259H787.037C774.759 259.259 762.983 254.382 754.301 245.699C745.618 237.017 740.741 225.242 740.741 212.963V120.37C740.741 108.092 745.618 96.3163 754.301 87.634C762.983 78.9518 774.759 74.0741 787.037 74.0741ZM805.556 111.111H861.111C868.478 111.111 875.544 114.038 880.753 119.247C885.962 124.456 888.889 131.522 888.889 138.889V194.445C888.889 201.812 885.962 208.877 880.753 214.086C875.544 219.296 868.478 222.222 861.111 222.222H805.556C798.189 222.222 791.123 219.296 785.914 214.086C780.704 208.877 777.778 201.812 777.778 194.445V138.889C777.778 131.522 780.704 124.456 785.914 119.247C791.123 114.038 798.189 111.111 805.556 111.111ZM101.852 703.704H231.482C248.672 703.704 265.157 710.532 277.313 722.688C289.468 734.843 296.296 751.329 296.296 768.519V898.148C296.296 915.338 289.468 931.824 277.313 943.979C265.157 956.134 248.672 962.963 231.482 962.963H101.852C84.662 962.963 68.1761 956.134 56.0209 943.979C43.8658 931.824 37.0371 915.338 37.0371 898.148V768.519C37.0371 751.329 43.8658 734.843 56.0209 722.688C68.1761 710.532 84.662 703.704 101.852 703.704ZM120.37 740.741H212.963C219.043 740.741 225.063 741.938 230.68 744.265C236.297 746.591 241.4 750.002 245.699 754.301C249.998 758.6 253.409 763.703 255.735 769.32C258.062 774.937 259.259 780.957 259.259 787.037V879.63C259.259 885.709 258.062 891.73 255.735 897.346C253.409 902.963 249.998 908.067 245.699 912.366C241.4 916.665 236.297 920.075 230.68 922.402C225.063 924.729 219.043 925.926 212.963 925.926H120.37C114.291 925.926 108.271 924.729 102.654 922.402C97.0367 920.075 91.933 916.665 87.634 912.366C83.335 908.067 79.9248 902.963 77.5982 897.346C75.2716 891.73 74.0741 885.709 74.0741 879.63V787.037C74.0741 774.759 78.9518 762.983 87.634 754.301C96.3163 745.618 108.092 740.741 120.37 740.741ZM138.889 777.778H194.445C201.812 777.778 208.877 780.704 214.086 785.914C219.296 791.123 222.222 798.189 222.222 805.556V861.111C222.222 868.478 219.296 875.544 214.086 880.753C208.877 885.962 201.812 888.889 194.445 888.889H138.889C131.522 888.889 124.456 885.962 119.247 880.753C114.038 875.544 111.111 868.478 111.111 861.111V805.556C111.111 798.189 114.038 791.123 119.247 785.914C124.456 780.704 131.522 777.778 138.889 777.778Z" fill="black"/>
</g>
<defs>
<clipPath id="clip0_208_1752">
<rect width="1000" height="1000" fill="white"/>
</clipPath>
</defs>
</svg>
