<svg width="38" height="38" viewBox="0 0 38 38" fill="none" xmlns="http://www.w3.org/2000/svg">
<path fill-rule="evenodd" clip-rule="evenodd" d="M12.3217 7.77083C12.3217 7.42487 15.8969 5 19.4467 5C22.9966 5 26.5717 7.42487 26.5717 7.77083C26.5717 9.00583 26.4403 9.73733 26.3295 10.1355C26.2559 10.3968 26.0112 10.5417 25.7397 10.5417H13.1538C12.8822 10.5417 12.6376 10.3968 12.564 10.1355C12.4532 9.73733 12.3217 9.00583 12.3217 7.77083ZM18.2592 7.375C18.0493 7.375 17.8479 7.45841 17.6995 7.60687C17.551 7.75534 17.4676 7.9567 17.4676 8.16667C17.4676 8.37663 17.551 8.57799 17.6995 8.72646C17.8479 8.87493 18.0493 8.95833 18.2592 8.95833H20.6342C20.8442 8.95833 21.0456 8.87493 21.194 8.72646C21.3425 8.57799 21.4259 8.37663 21.4259 8.16667C21.4259 7.9567 21.3425 7.75534 21.194 7.60687C21.0456 7.45841 20.8442 7.375 20.6342 7.375H18.2592ZM13.1435 15.4642C10.5072 14.6488 11.1722 13.1922 12.1777 12.125H26.9359C27.7402 13.1526 28.1717 14.5388 25.7405 15.3685C25.7669 15.6033 25.7801 15.8416 25.7801 16.0833C25.7797 16.9409 25.6052 17.7895 25.2671 18.5776C24.929 19.3658 24.4344 20.077 23.8132 20.6683C23.192 21.2595 22.4573 21.7185 21.6534 22.0173C20.8496 22.3161 19.9934 22.4485 19.1368 22.4066C18.2803 22.3646 17.4412 22.1491 16.6704 21.7732C15.8996 21.3972 15.2132 20.8686 14.6528 20.2195C14.0923 19.5703 13.6696 18.8141 13.4102 17.9967C13.1507 17.1793 13.06 16.3178 13.1435 15.4642ZM19.2314 16.0833C21.323 16.0833 22.9443 15.9725 24.1872 15.7793C24.1936 15.8796 24.1967 15.9809 24.1967 16.0833C24.1962 16.7173 24.0687 17.3447 23.8219 17.9286C23.5751 18.5125 23.2139 19.041 22.7596 19.4832C22.3053 19.9253 21.7671 20.272 21.1767 20.5029C20.5863 20.7338 19.9557 20.8441 19.322 20.8275C18.6883 20.8108 18.0644 20.6675 17.4869 20.406C16.9095 20.1444 16.3902 19.7699 15.9597 19.3045C15.5293 18.8392 15.1963 18.2924 14.9805 17.6963C14.7647 17.1003 14.6704 16.467 14.7031 15.834C15.8613 15.9939 17.3457 16.0833 19.2314 16.0833ZM26.1102 27.6417C25.3942 26.5244 24.4086 25.6052 23.2441 24.9688C22.0797 24.3324 20.7738 23.9992 19.4467 24C18.1192 23.999 16.8127 24.3322 15.6478 24.9689C14.4828 25.6056 13.4969 26.5253 12.7809 27.6432C12.5146 27.2344 12.1066 26.9384 11.6354 26.812L10.1059 26.4027C9.59892 26.2668 9.05874 26.3378 8.60414 26.6002C8.14955 26.8625 7.81777 27.2946 7.68179 27.8016L7.06745 30.0958C7.00017 30.3469 6.983 30.6088 7.01693 30.8665C7.05086 31.1242 7.13522 31.3727 7.2652 31.5978C7.39517 31.8229 7.56821 32.0202 7.77444 32.1784C7.98067 32.3366 8.21604 32.4527 8.46712 32.5199L9.99583 32.93C10.253 32.9989 10.5214 33.0152 10.7851 32.9779C11.0487 32.9407 11.3021 32.8506 11.5301 32.7131C11.5307 32.923 11.6147 33.1242 11.7636 33.2722C11.9125 33.4202 12.1142 33.503 12.3241 33.5024C12.5341 33.5017 12.7352 33.4177 12.8832 33.2688C13.0312 33.1199 13.114 32.9183 13.1134 32.7083V31.9167C13.1134 31.6148 13.134 31.3184 13.1752 31.0276L17.295 32.132C17.4862 32.5413 17.7903 32.8876 18.1714 33.1302C18.5525 33.3728 18.9949 33.5017 19.4467 33.5017C19.8985 33.5017 20.341 33.3728 20.7221 33.1302C21.1032 32.8876 21.4073 32.5413 21.5985 32.132L25.7183 31.0276C25.759 31.3184 25.7796 31.6148 25.7801 31.9167V32.7083C25.779 32.9183 25.8614 33.1201 26.0092 33.2693C26.1569 33.4185 26.3578 33.5029 26.5678 33.504C26.7778 33.505 26.9795 33.4226 27.1287 33.2749C27.2779 33.1272 27.3624 32.9262 27.3634 32.7162C27.8067 32.9822 28.3546 33.0749 28.8937 32.93L30.4232 32.5207C30.6743 32.4535 30.9097 32.3374 31.1159 32.1792C31.3221 32.021 31.4952 31.8237 31.6251 31.5986C31.7551 31.3735 31.8395 31.125 31.8734 30.8673C31.9073 30.6096 31.8902 30.3477 31.8229 30.0966L31.2077 27.8024C31.0718 27.2954 30.74 26.8633 30.2854 26.6009C29.8308 26.3386 29.2906 26.2676 28.7837 26.4035L27.2542 26.8128C26.784 26.9388 26.3767 27.2344 26.1102 27.6417ZM13.5908 29.4989C14.0187 28.4649 14.7126 27.5625 15.6021 26.8834C16.4915 26.2043 17.5448 25.7727 18.6551 25.6324V28.8854C18.3001 29.0108 17.98 29.2189 17.7212 29.4924C17.4624 29.7659 17.2724 30.097 17.1667 30.4584L13.5908 29.4989ZM25.3027 29.4989C24.8748 28.4649 24.1809 27.5625 23.2914 26.8834C22.402 26.2043 21.3486 25.7727 20.2384 25.6324V28.8854C20.9541 29.1387 21.513 29.7245 21.7267 30.4584L25.3027 29.4989ZM19.4467 31.9167C19.6567 31.9167 19.8581 31.8333 20.0065 31.6848C20.155 31.5363 20.2384 31.335 20.2384 31.125C20.2384 30.915 20.155 30.7137 20.0065 30.5652C19.8581 30.4167 19.6567 30.3333 19.4467 30.3333C19.2368 30.3333 19.0354 30.4167 18.887 30.5652C18.7385 30.7137 18.6551 30.915 18.6551 31.125C18.6551 31.335 18.7385 31.5363 18.887 31.6848C19.0354 31.8333 19.2368 31.9167 19.4467 31.9167Z" fill="#4450D5"/>
</svg>
