<svg width="1000" height="1000" viewBox="0 0 1000 1000" fill="none" xmlns="http://www.w3.org/2000/svg">
<g clip-path="url(#clip0_208_1748)">
<path d="M916.667 0H83.3333C37.3096 0 0 37.3096 0 83.3333V916.667C0 962.69 37.3096 1000 83.3333 1000H916.667C962.69 1000 1000 962.69 1000 916.667V83.3333C1000 37.3096 962.69 0 916.667 0Z" fill="white"/>
<path d="M425.926 38.8887C430.346 38.8887 434.585 40.6446 437.711 43.7702C440.837 46.8958 442.593 51.1351 442.593 55.5553C442.593 59.9756 440.837 64.2148 437.711 67.3405C434.585 70.4661 430.346 72.222 425.926 72.222C421.506 72.222 417.266 70.4661 414.141 67.3405C411.015 64.2148 409.259 59.9756 409.259 55.5553C409.259 51.1351 411.015 46.8958 414.141 43.7702C417.266 40.6446 421.506 38.8887 425.926 38.8887ZM537.037 38.8887C541.457 38.8887 545.697 40.6446 548.822 43.7702C551.948 46.8958 553.704 51.1351 553.704 55.5553C553.704 59.9756 551.948 64.2148 548.822 67.3405C545.697 70.4661 541.457 72.222 537.037 72.222C532.617 72.222 528.378 70.4661 525.252 67.3405C522.126 64.2148 520.37 59.9756 520.37 55.5553C520.37 51.1351 522.126 46.8958 525.252 43.7702C528.378 40.6446 532.617 38.8887 537.037 38.8887ZM574.074 38.8887C578.494 38.8887 582.734 40.6446 585.859 43.7702C588.985 46.8958 590.741 51.1351 590.741 55.5553C590.741 59.9756 588.985 64.2148 585.859 67.3405C582.734 70.4661 578.494 72.222 574.074 72.222C569.654 72.222 565.415 70.4661 562.289 67.3405C559.163 64.2148 557.407 59.9756 557.407 55.5553C557.407 51.1351 559.163 46.8958 562.289 43.7702C565.415 40.6446 569.654 38.8887 574.074 38.8887ZM611.111 38.8887C615.531 38.8887 619.771 40.6446 622.896 43.7702C626.022 46.8958 627.778 51.1351 627.778 55.5553C627.778 59.9756 626.022 64.2148 622.896 67.3405C619.771 70.4661 615.531 72.222 611.111 72.222C606.691 72.222 602.452 70.4661 599.326 67.3405C596.2 64.2148 594.444 59.9756 594.444 55.5553C594.444 51.1351 596.2 46.8958 599.326 43.7702C602.452 40.6446 606.691 38.8887 611.111 38.8887ZM351.852 75.9257C356.272 75.9257 360.511 77.6817 363.637 80.8073C366.763 83.9329 368.519 88.1721 368.519 92.5924C368.519 97.0127 366.763 101.252 363.637 104.377C360.511 107.503 356.272 109.259 351.852 109.259C347.432 109.259 343.192 107.503 340.067 104.377C336.941 101.252 335.185 97.0127 335.185 92.5924C335.185 88.1721 336.941 83.9329 340.067 80.8073C343.192 77.6817 347.432 75.9257 351.852 75.9257ZM388.889 75.9257C393.309 75.9257 397.548 77.6817 400.674 80.8073C403.8 83.9329 405.556 88.1721 405.556 92.5924C405.556 97.0127 403.8 101.252 400.674 104.377C397.548 107.503 393.309 109.259 388.889 109.259C384.469 109.259 380.229 107.503 377.104 104.377C373.978 101.252 372.222 97.0127 372.222 92.5924C372.222 88.1721 373.978 83.9329 377.104 80.8073C380.229 77.6817 384.469 75.9257 388.889 75.9257ZM425.926 75.9257C430.346 75.9257 434.585 77.6817 437.711 80.8073C440.837 83.9329 442.593 88.1721 442.593 92.5924C442.593 97.0127 440.837 101.252 437.711 104.377C434.585 107.503 430.346 109.259 425.926 109.259C421.506 109.259 417.266 107.503 414.141 104.377C411.015 101.252 409.259 97.0127 409.259 92.5924C409.259 88.1721 411.015 83.9329 414.141 80.8073C417.266 77.6817 421.506 75.9257 425.926 75.9257ZM611.111 75.9257C615.531 75.9257 619.771 77.6817 622.896 80.8073C626.022 83.9329 627.778 88.1721 627.778 92.5924C627.778 97.0127 626.022 101.252 622.896 104.377C619.771 107.503 615.531 109.259 611.111 109.259C606.691 109.259 602.452 107.503 599.326 104.377C596.2 101.252 594.444 97.0127 594.444 92.5924C594.444 88.1721 596.2 83.9329 599.326 80.8073C602.452 77.6817 606.691 75.9257 611.111 75.9257ZM648.148 75.9257C652.568 75.9257 656.808 77.6817 659.933 80.8073C663.059 83.9329 664.815 88.1721 664.815 92.5924C664.815 97.0127 663.059 101.252 659.933 104.377C656.808 107.503 652.568 109.259 648.148 109.259C643.728 109.259 639.489 107.503 636.363 104.377C633.238 101.252 631.481 97.0127 631.481 92.5924C631.481 88.1721 633.238 83.9329 636.363 80.8073C639.489 77.6817 643.728 75.9257 648.148 75.9257ZM351.852 112.963C356.272 112.963 360.511 114.719 363.637 117.844C366.763 120.97 368.519 125.209 368.519 129.629C368.519 134.05 366.763 138.289 363.637 141.415C360.511 144.54 356.272 146.296 351.852 146.296C347.432 146.296 343.192 144.54 340.067 141.415C336.941 138.289 335.185 134.05 335.185 129.629C335.185 125.209 336.941 120.97 340.067 117.844C343.192 114.719 347.432 112.963 351.852 112.963ZM574.074 112.963C578.494 112.963 582.734 114.719 585.859 117.844C588.985 120.97 590.741 125.209 590.741 129.629C590.741 134.05 588.985 138.289 585.859 141.415C582.734 144.54 578.494 146.296 574.074 146.296C569.654 146.296 565.415 144.54 562.289 141.415C559.163 138.289 557.407 134.05 557.407 129.629C557.407 125.209 559.163 120.97 562.289 117.844C565.415 114.719 569.654 112.963 574.074 112.963ZM611.111 112.963C615.531 112.963 619.771 114.719 622.896 117.844C626.022 120.97 627.778 125.209 627.778 129.629C627.778 134.05 626.022 138.289 622.896 141.415C619.771 144.54 615.531 146.296 611.111 146.296C606.691 146.296 602.452 144.54 599.326 141.415C596.2 138.289 594.444 134.05 594.444 129.629C594.444 125.209 596.2 120.97 599.326 117.844C602.452 114.719 606.691 112.963 611.111 112.963ZM388.889 150C393.309 150 397.548 151.756 400.674 154.881C403.8 158.007 405.556 162.246 405.556 166.666C405.556 171.087 403.8 175.326 400.674 178.452C397.548 181.577 393.309 183.333 388.889 183.333C384.469 183.333 380.229 181.577 377.104 178.452C373.978 175.326 372.222 171.087 372.222 166.666C372.222 162.246 373.978 158.007 377.104 154.881C380.229 151.756 384.469 150 388.889 150ZM500 150C504.42 150 508.66 151.756 511.785 154.881C514.911 158.007 516.667 162.246 516.667 166.666C516.667 171.087 514.911 175.326 511.785 178.452C508.66 181.577 504.42 183.333 500 183.333C495.58 183.333 491.341 181.577 488.215 178.452C485.089 175.326 483.333 171.087 483.333 166.666C483.333 162.246 485.089 158.007 488.215 154.881C491.341 151.756 495.58 150 500 150ZM574.074 150C578.494 150 582.734 151.756 585.859 154.881C588.985 158.007 590.741 162.246 590.741 166.666C590.741 171.087 588.985 175.326 585.859 178.452C582.734 181.577 578.494 183.333 574.074 183.333C569.654 183.333 565.415 181.577 562.289 178.452C559.163 175.326 557.407 171.087 557.407 166.666C557.407 162.246 559.163 158.007 562.289 154.881C565.415 151.756 569.654 150 574.074 150ZM351.852 187.037C356.272 187.037 360.511 188.793 363.637 191.918C366.763 195.044 368.519 199.283 368.519 203.703C368.519 208.124 366.763 212.363 363.637 215.489C360.511 218.614 356.272 220.37 351.852 220.37C347.432 220.37 343.192 218.614 340.067 215.489C336.941 212.363 335.185 208.124 335.185 203.703C335.185 199.283 336.941 195.044 340.067 191.918C343.192 188.793 347.432 187.037 351.852 187.037ZM388.889 187.037C393.309 187.037 397.548 188.793 400.674 191.918C403.8 195.044 405.556 199.283 405.556 203.703C405.556 208.124 403.8 212.363 400.674 215.489C397.548 218.614 393.309 220.37 388.889 220.37C384.469 220.37 380.229 218.614 377.104 215.489C373.978 212.363 372.222 208.124 372.222 203.703C372.222 199.283 373.978 195.044 377.104 191.918C380.229 188.793 384.469 187.037 388.889 187.037ZM425.926 187.037C430.346 187.037 434.585 188.793 437.711 191.918C440.837 195.044 442.593 199.283 442.593 203.703C442.593 208.124 440.837 212.363 437.711 215.489C434.585 218.614 430.346 220.37 425.926 220.37C421.506 220.37 417.266 218.614 414.141 215.489C411.015 212.363 409.259 208.124 409.259 203.703C409.259 199.283 411.015 195.044 414.141 191.918C417.266 188.793 421.506 187.037 425.926 187.037ZM500 187.037C504.42 187.037 508.66 188.793 511.785 191.918C514.911 195.044 516.667 199.283 516.667 203.703C516.667 208.124 514.911 212.363 511.785 215.489C508.66 218.614 504.42 220.37 500 220.37C495.58 220.37 491.341 218.614 488.215 215.489C485.089 212.363 483.333 208.124 483.333 203.703C483.333 199.283 485.089 195.044 488.215 191.918C491.341 188.793 495.58 187.037 500 187.037ZM574.074 187.037C578.494 187.037 582.734 188.793 585.859 191.918C588.985 195.044 590.741 199.283 590.741 203.703C590.741 208.124 588.985 212.363 585.859 215.489C582.734 218.614 578.494 220.37 574.074 220.37C569.654 220.37 565.415 218.614 562.289 215.489C559.163 212.363 557.407 208.124 557.407 203.703C557.407 199.283 559.163 195.044 562.289 191.918C565.415 188.793 569.654 187.037 574.074 187.037ZM611.111 187.037C615.531 187.037 619.771 188.793 622.896 191.918C626.022 195.044 627.778 199.283 627.778 203.703C627.778 208.124 626.022 212.363 622.896 215.489C619.771 218.614 615.531 220.37 611.111 220.37C606.691 220.37 602.452 218.614 599.326 215.489C596.2 212.363 594.444 208.124 594.444 203.703C594.444 199.283 596.2 195.044 599.326 191.918C602.452 188.793 606.691 187.037 611.111 187.037ZM351.852 224.074C356.272 224.074 360.511 225.83 363.637 228.955C366.763 232.081 368.519 236.32 368.519 240.741C368.519 245.161 366.763 249.4 363.637 252.526C360.511 255.651 356.272 257.407 351.852 257.407C347.432 257.407 343.192 255.651 340.067 252.526C336.941 249.4 335.185 245.161 335.185 240.741C335.185 236.32 336.941 232.081 340.067 228.955C343.192 225.83 347.432 224.074 351.852 224.074ZM425.926 224.074C430.346 224.074 434.585 225.83 437.711 228.955C440.837 232.081 442.593 236.32 442.593 240.741C442.593 245.161 440.837 249.4 437.711 252.526C434.585 255.651 430.346 257.407 425.926 257.407C421.506 257.407 417.266 255.651 414.141 252.526C411.015 249.4 409.259 245.161 409.259 240.741C409.259 236.32 411.015 232.081 414.141 228.955C417.266 225.83 421.506 224.074 425.926 224.074ZM500 224.074C504.42 224.074 508.66 225.83 511.785 228.955C514.911 232.081 516.667 236.32 516.667 240.741C516.667 245.161 514.911 249.4 511.785 252.526C508.66 255.651 504.42 257.407 500 257.407C495.58 257.407 491.341 255.651 488.215 252.526C485.089 249.4 483.333 245.161 483.333 240.741C483.333 236.32 485.089 232.081 488.215 228.955C491.341 225.83 495.58 224.074 500 224.074ZM611.111 224.074C615.531 224.074 619.771 225.83 622.896 228.955C626.022 232.081 627.778 236.32 627.778 240.741C627.778 245.161 626.022 249.4 622.896 252.526C619.771 255.651 615.531 257.407 611.111 257.407C606.691 257.407 602.452 255.651 599.326 252.526C596.2 249.4 594.444 245.161 594.444 240.741C594.444 236.32 596.2 232.081 599.326 228.955C602.452 225.83 606.691 224.074 611.111 224.074ZM648.148 224.074C652.568 224.074 656.808 225.83 659.933 228.955C663.059 232.081 664.815 236.32 664.815 240.741C664.815 245.161 663.059 249.4 659.933 252.526C656.808 255.651 652.568 257.407 648.148 257.407C643.728 257.407 639.489 255.651 636.363 252.526C633.238 249.4 631.481 245.161 631.481 240.741C631.481 236.32 633.238 232.081 636.363 228.955C639.489 225.83 643.728 224.074 648.148 224.074ZM351.852 261.111C356.272 261.111 360.511 262.867 363.637 265.992C366.763 269.118 368.519 273.357 368.519 277.778C368.519 282.198 366.763 286.437 363.637 289.563C360.511 292.688 356.272 294.444 351.852 294.444C347.432 294.444 343.192 292.688 340.067 289.563C336.941 286.437 335.185 282.198 335.185 277.778C335.185 273.357 336.941 269.118 340.067 265.992C343.192 262.867 347.432 261.111 351.852 261.111ZM425.926 261.111C430.346 261.111 434.585 262.867 437.711 265.992C440.837 269.118 442.593 273.357 442.593 277.778C442.593 282.198 440.837 286.437 437.711 289.563C434.585 292.688 430.346 294.444 425.926 294.444C421.506 294.444 417.266 292.688 414.141 289.563C411.015 286.437 409.259 282.198 409.259 277.778C409.259 273.357 411.015 269.118 414.141 265.992C417.266 262.867 421.506 261.111 425.926 261.111ZM500 261.111C504.42 261.111 508.66 262.867 511.785 265.992C514.911 269.118 516.667 273.357 516.667 277.778C516.667 282.198 514.911 286.437 511.785 289.563C508.66 292.688 504.42 294.444 500 294.444C495.58 294.444 491.341 292.688 488.215 289.563C485.089 286.437 483.333 282.198 483.333 277.778C483.333 273.357 485.089 269.118 488.215 265.992C491.341 262.867 495.58 261.111 500 261.111ZM574.074 261.111C578.494 261.111 582.734 262.867 585.859 265.992C588.985 269.118 590.741 273.357 590.741 277.778C590.741 282.198 588.985 286.437 585.859 289.563C582.734 292.688 578.494 294.444 574.074 294.444C569.654 294.444 565.415 292.688 562.289 289.563C559.163 286.437 557.407 282.198 557.407 277.778C557.407 273.357 559.163 269.118 562.289 265.992C565.415 262.867 569.654 261.111 574.074 261.111ZM648.148 261.111C652.568 261.111 656.808 262.867 659.933 265.992C663.059 269.118 664.815 273.357 664.815 277.778C664.815 282.198 663.059 286.437 659.933 289.563C656.808 292.688 652.568 294.444 648.148 294.444C643.728 294.444 639.489 292.688 636.363 289.563C633.238 286.437 631.481 282.198 631.481 277.778C631.481 273.357 633.238 269.118 636.363 265.992C639.489 262.867 643.728 261.111 648.148 261.111ZM351.852 298.148C356.272 298.148 360.511 299.904 363.637 303.029C366.763 306.155 368.519 310.394 368.519 314.815C368.519 319.235 366.763 323.474 363.637 326.6C360.511 329.725 356.272 331.481 351.852 331.481C347.432 331.481 343.192 329.725 340.067 326.6C336.941 323.474 335.185 319.235 335.185 314.815C335.185 310.394 336.941 306.155 340.067 303.029C343.192 299.904 347.432 298.148 351.852 298.148ZM425.926 298.148C430.346 298.148 434.585 299.904 437.711 303.029C440.837 306.155 442.593 310.394 442.593 314.815C442.593 319.235 440.837 323.474 437.711 326.6C434.585 329.725 430.346 331.481 425.926 331.481C421.506 331.481 417.266 329.725 414.141 326.6C411.015 323.474 409.259 319.235 409.259 314.815C409.259 310.394 411.015 306.155 414.141 303.029C417.266 299.904 421.506 298.148 425.926 298.148ZM462.963 298.148C467.383 298.148 471.622 299.904 474.748 303.029C477.874 306.155 479.63 310.394 479.63 314.815C479.63 319.235 477.874 323.474 474.748 326.6C471.622 329.725 467.383 331.481 462.963 331.481C458.543 331.481 454.303 329.725 451.178 326.6C448.052 323.474 446.296 319.235 446.296 314.815C446.296 310.394 448.052 306.155 451.178 303.029C454.303 299.904 458.543 298.148 462.963 298.148ZM574.074 298.148C578.494 298.148 582.734 299.904 585.859 303.029C588.985 306.155 590.741 310.394 590.741 314.815C590.741 319.235 588.985 323.474 585.859 326.6C582.734 329.725 578.494 331.481 574.074 331.481C569.654 331.481 565.415 329.725 562.289 326.6C559.163 323.474 557.407 319.235 557.407 314.815C557.407 310.394 559.163 306.155 562.289 303.029C565.415 299.904 569.654 298.148 574.074 298.148ZM648.148 298.148C652.568 298.148 656.808 299.904 659.933 303.029C663.059 306.155 664.815 310.394 664.815 314.815C664.815 319.235 663.059 323.474 659.933 326.6C656.808 329.725 652.568 331.481 648.148 331.481C643.728 331.481 639.489 329.725 636.363 326.6C633.238 323.474 631.481 319.235 631.481 314.815C631.481 310.394 633.238 306.155 636.363 303.029C639.489 299.904 643.728 298.148 648.148 298.148ZM55.5556 335.185C59.9759 335.185 64.2151 336.941 67.3407 340.067C70.4663 343.192 72.2222 347.431 72.2222 351.852C72.2222 354.04 71.7912 356.208 70.9536 358.23C70.116 360.252 68.8883 362.089 67.3407 363.637C65.7931 365.184 63.9557 366.412 61.9336 367.25C59.9115 368.087 57.7443 368.518 55.5556 368.518C51.1353 368.518 46.8961 366.762 43.7705 363.637C40.6449 360.511 38.8889 356.272 38.8889 351.852C38.8889 347.431 40.6449 343.192 43.7705 340.067C46.8961 336.941 51.1353 335.185 55.5556 335.185ZM92.5926 335.185C97.0129 335.185 101.252 336.941 104.378 340.067C107.503 343.192 109.259 347.431 109.259 351.852C109.259 356.272 107.503 360.511 104.378 363.637C101.252 366.762 97.0129 368.518 92.5926 368.518C88.1723 368.518 83.9331 366.762 80.8075 363.637C77.6819 360.511 75.926 356.272 75.926 351.852C75.926 347.431 77.6819 343.192 80.8075 340.067C83.9331 336.941 88.1723 335.185 92.5926 335.185ZM166.667 335.185C171.087 335.185 175.326 336.941 178.452 340.067C181.577 343.192 183.333 347.431 183.333 351.852C183.333 356.272 181.577 360.511 178.452 363.637C175.326 366.762 171.087 368.518 166.667 368.518C162.246 368.518 158.007 366.762 154.882 363.637C151.756 360.511 150 356.272 150 351.852C150 347.431 151.756 343.192 154.882 340.067C158.007 336.941 162.246 335.185 166.667 335.185ZM277.778 335.185C282.198 335.185 286.437 336.941 289.563 340.067C292.689 343.192 294.444 347.431 294.444 351.852C294.444 356.272 292.689 360.511 289.563 363.637C286.437 366.762 282.198 368.518 277.778 368.518C273.358 368.518 269.118 366.762 265.993 363.637C262.867 360.511 261.111 356.272 261.111 351.852C261.111 347.431 262.867 343.192 265.993 340.067C269.118 336.941 273.358 335.185 277.778 335.185ZM314.815 335.185C319.235 335.185 323.474 336.941 326.6 340.067C329.726 343.192 331.481 347.431 331.481 351.852C331.481 356.272 329.726 360.511 326.6 363.637C323.474 366.762 319.235 368.518 314.815 368.518C310.395 368.518 306.155 366.762 303.03 363.637C299.904 360.511 298.148 356.272 298.148 351.852C298.148 347.431 299.904 343.192 303.03 340.067C306.155 336.941 310.395 335.185 314.815 335.185ZM462.963 335.185C467.383 335.185 471.622 336.941 474.748 340.067C477.874 343.192 479.63 347.431 479.63 351.852C479.63 356.272 477.874 360.511 474.748 363.637C471.622 366.762 467.383 368.518 462.963 368.518C458.543 368.518 454.303 366.762 451.178 363.637C448.052 360.511 446.296 356.272 446.296 351.852C446.296 347.431 448.052 343.192 451.178 340.067C454.303 336.941 458.543 335.185 462.963 335.185ZM500 335.185C504.42 335.185 508.66 336.941 511.785 340.067C514.911 343.192 516.667 347.431 516.667 351.852C516.667 356.272 514.911 360.511 511.785 363.637C508.66 366.762 504.42 368.518 500 368.518C495.58 368.518 491.341 366.762 488.215 363.637C485.089 360.511 483.333 356.272 483.333 351.852C483.333 347.431 485.089 343.192 488.215 340.067C491.341 336.941 495.58 335.185 500 335.185ZM537.037 335.185C541.457 335.185 545.697 336.941 548.822 340.067C551.948 343.192 553.704 347.431 553.704 351.852C553.704 356.272 551.948 360.511 548.822 363.637C545.697 366.762 541.457 368.518 537.037 368.518C532.617 368.518 528.378 366.762 525.252 363.637C522.126 360.511 520.37 356.272 520.37 351.852C520.37 347.431 522.126 343.192 525.252 340.067C528.378 336.941 532.617 335.185 537.037 335.185ZM722.222 335.185C726.643 335.185 730.882 336.941 734.007 340.067C737.133 343.192 738.889 347.431 738.889 351.852C738.889 356.272 737.133 360.511 734.007 363.637C730.882 366.762 726.643 368.518 722.222 368.518C717.802 368.518 713.563 366.762 710.437 363.637C707.312 360.511 705.556 356.272 705.556 351.852C705.556 347.431 707.312 343.192 710.437 340.067C713.563 336.941 717.802 335.185 722.222 335.185ZM759.259 335.185C763.68 335.185 767.919 336.941 771.044 340.067C774.17 343.192 775.926 347.431 775.926 351.852C775.926 356.272 774.17 360.511 771.044 363.637C767.919 366.762 763.68 368.518 759.259 368.518C754.839 368.518 750.6 366.762 747.474 363.637C744.349 360.511 742.593 356.272 742.593 351.852C742.593 347.431 744.349 343.192 747.474 340.067C750.6 336.941 754.839 335.185 759.259 335.185ZM796.296 335.185C800.717 335.185 804.956 336.941 808.081 340.067C811.207 343.192 812.963 347.431 812.963 351.852C812.963 356.272 811.207 360.511 808.081 363.637C804.956 366.762 800.717 368.518 796.296 368.518C791.876 368.518 787.637 366.762 784.511 363.637C781.386 360.511 779.63 356.272 779.63 351.852C779.63 347.431 781.386 343.192 784.511 340.067C787.637 336.941 791.876 335.185 796.296 335.185ZM870.37 335.185C874.791 335.185 879.03 336.941 882.156 340.067C885.281 343.192 887.037 347.431 887.037 351.852C887.037 356.272 885.281 360.511 882.156 363.637C879.03 366.762 874.791 368.518 870.37 368.518C865.95 368.518 861.711 366.762 858.585 363.637C855.46 360.511 853.704 356.272 853.704 351.852C853.704 347.431 855.46 343.192 858.585 340.067C861.711 336.941 865.95 335.185 870.37 335.185ZM907.407 335.185C911.828 335.185 916.067 336.941 919.193 340.067C922.318 343.192 924.074 347.431 924.074 351.852C924.074 356.272 922.318 360.511 919.193 363.637C916.067 366.762 911.828 368.518 907.407 368.518C902.987 368.518 898.748 366.762 895.622 363.637C892.497 360.511 890.741 356.272 890.741 351.852C890.741 347.431 892.497 343.192 895.622 340.067C898.748 336.941 902.987 335.185 907.407 335.185ZM92.5926 372.222C97.0129 372.222 101.252 373.978 104.378 377.104C107.503 380.229 109.259 384.468 109.259 388.889C109.259 393.309 107.503 397.548 104.378 400.674C101.252 403.799 97.0129 405.555 92.5926 405.555C88.1723 405.555 83.9331 403.799 80.8075 400.674C77.6819 397.548 75.926 393.309 75.926 388.889C75.926 384.468 77.6819 380.229 80.8075 377.104C83.9331 373.978 88.1723 372.222 92.5926 372.222ZM129.63 372.222C134.05 372.222 138.289 373.978 141.415 377.104C144.54 380.229 146.296 384.468 146.296 388.889C146.296 393.309 144.54 397.548 141.415 400.674C138.289 403.799 134.05 405.555 129.63 405.555C125.209 405.555 120.97 403.799 117.845 400.674C114.719 397.548 112.963 393.309 112.963 388.889C112.963 384.468 114.719 380.229 117.845 377.104C120.97 373.978 125.209 372.222 129.63 372.222ZM203.704 372.222C208.124 372.222 212.363 373.978 215.489 377.104C218.614 380.229 220.37 384.468 220.37 388.889C220.37 393.309 218.614 397.548 215.489 400.674C212.363 403.799 208.124 405.555 203.704 405.555C199.283 405.555 195.044 403.799 191.919 400.674C188.793 397.548 187.037 393.309 187.037 388.889C187.037 384.468 188.793 380.229 191.919 377.104C195.044 373.978 199.283 372.222 203.704 372.222ZM314.815 372.222C319.235 372.222 323.474 373.978 326.6 377.104C329.726 380.229 331.481 384.468 331.481 388.889C331.481 393.309 329.726 397.548 326.6 400.674C323.474 403.799 319.235 405.555 314.815 405.555C310.395 405.555 306.155 403.799 303.03 400.674C299.904 397.548 298.148 393.309 298.148 388.889C298.148 384.468 299.904 380.229 303.03 377.104C306.155 373.978 310.395 372.222 314.815 372.222ZM388.889 372.222C393.309 372.222 397.548 373.978 400.674 377.104C403.8 380.229 405.556 384.468 405.556 388.889C405.556 393.309 403.8 397.548 400.674 400.674C397.548 403.799 393.309 405.555 388.889 405.555C384.469 405.555 380.229 403.799 377.104 400.674C373.978 397.548 372.222 393.309 372.222 388.889C372.222 384.468 373.978 380.229 377.104 377.104C380.229 373.978 384.469 372.222 388.889 372.222ZM462.963 372.222C467.383 372.222 471.622 373.978 474.748 377.104C477.874 380.229 479.63 384.468 479.63 388.889C479.63 393.309 477.874 397.548 474.748 400.674C471.622 403.799 467.383 405.555 462.963 405.555C458.543 405.555 454.303 403.799 451.178 400.674C448.052 397.548 446.296 393.309 446.296 388.889C446.296 384.468 448.052 380.229 451.178 377.104C454.303 373.978 458.543 372.222 462.963 372.222ZM500 372.222C504.42 372.222 508.66 373.978 511.785 377.104C514.911 380.229 516.667 384.468 516.667 388.889C516.667 393.309 514.911 397.548 511.785 400.674C508.66 403.799 504.42 405.555 500 405.555C495.58 405.555 491.341 403.799 488.215 400.674C485.089 397.548 483.333 393.309 483.333 388.889C483.333 384.468 485.089 380.229 488.215 377.104C491.341 373.978 495.58 372.222 500 372.222ZM648.148 372.222C652.568 372.222 656.808 373.978 659.933 377.104C663.059 380.229 664.815 384.468 664.815 388.889C664.815 393.309 663.059 397.548 659.933 400.674C656.808 403.799 652.568 405.555 648.148 405.555C643.728 405.555 639.489 403.799 636.363 400.674C633.238 397.548 631.481 393.309 631.481 388.889C631.481 384.468 633.238 380.229 636.363 377.104C639.489 373.978 643.728 372.222 648.148 372.222ZM722.222 372.222C726.643 372.222 730.882 373.978 734.007 377.104C737.133 380.229 738.889 384.468 738.889 388.889C738.889 393.309 737.133 397.548 734.007 400.674C730.882 403.799 726.643 405.555 722.222 405.555C717.802 405.555 713.563 403.799 710.437 400.674C707.312 397.548 705.556 393.309 705.556 388.889C705.556 384.468 707.312 380.229 710.437 377.104C713.563 373.978 717.802 372.222 722.222 372.222ZM944.444 372.222C948.865 372.222 953.104 373.978 956.23 377.104C959.355 380.229 961.111 384.468 961.111 388.889C961.111 393.309 959.355 397.548 956.23 400.674C953.104 403.799 948.865 405.555 944.444 405.555C940.024 405.555 935.785 403.799 932.659 400.674C929.534 397.548 927.778 393.309 927.778 388.889C927.778 384.468 929.534 380.229 932.659 377.104C935.785 373.978 940.024 372.222 944.444 372.222ZM92.5926 409.259C97.0129 409.259 101.252 411.015 104.378 414.141C107.503 417.266 109.259 421.505 109.259 425.926C109.259 430.346 107.503 434.585 104.378 437.711C101.252 440.836 97.0129 442.592 92.5926 442.592C88.1723 442.592 83.9331 440.836 80.8075 437.711C77.6819 434.585 75.926 430.346 75.926 425.926C75.926 421.505 77.6819 417.266 80.8075 414.141C83.9331 411.015 88.1723 409.259 92.5926 409.259ZM166.667 409.259C171.087 409.259 175.326 411.015 178.452 414.141C181.577 417.266 183.333 421.505 183.333 425.926C183.333 430.346 181.577 434.585 178.452 437.711C175.326 440.836 171.087 442.592 166.667 442.592C162.246 442.592 158.007 440.836 154.882 437.711C151.756 434.585 150 430.346 150 425.926C150 421.505 151.756 417.266 154.882 414.141C158.007 411.015 162.246 409.259 166.667 409.259ZM240.741 409.259C245.161 409.259 249.4 411.015 252.526 414.141C255.651 417.266 257.407 421.505 257.407 425.926C257.407 430.346 255.651 434.585 252.526 437.711C249.4 440.836 245.161 442.592 240.741 442.592C236.32 442.592 232.081 440.836 228.956 437.711C225.83 434.585 224.074 430.346 224.074 425.926C224.074 421.505 225.83 417.266 228.956 414.141C232.081 411.015 236.32 409.259 240.741 409.259ZM277.778 409.259C282.198 409.259 286.437 411.015 289.563 414.141C292.689 417.266 294.444 421.505 294.444 425.926C294.444 430.346 292.689 434.585 289.563 437.711C286.437 440.836 282.198 442.592 277.778 442.592C273.358 442.592 269.118 440.836 265.993 437.711C262.867 434.585 261.111 430.346 261.111 425.926C261.111 421.505 262.867 417.266 265.993 414.141C269.118 411.015 273.358 409.259 277.778 409.259ZM351.852 409.259C356.272 409.259 360.511 411.015 363.637 414.141C366.763 417.266 368.519 421.505 368.519 425.926C368.519 430.346 366.763 434.585 363.637 437.711C360.511 440.836 356.272 442.592 351.852 442.592C347.432 442.592 343.192 440.836 340.067 437.711C336.941 434.585 335.185 430.346 335.185 425.926C335.185 421.505 336.941 417.266 340.067 414.141C343.192 411.015 347.432 409.259 351.852 409.259ZM462.963 409.259C467.383 409.259 471.622 411.015 474.748 414.141C477.874 417.266 479.63 421.505 479.63 425.926C479.63 430.346 477.874 434.585 474.748 437.711C471.622 440.836 467.383 442.592 462.963 442.592C458.543 442.592 454.303 440.836 451.178 437.711C448.052 434.585 446.296 430.346 446.296 425.926C446.296 421.505 448.052 417.266 451.178 414.141C454.303 411.015 458.543 409.259 462.963 409.259ZM500 409.259C504.42 409.259 508.66 411.015 511.785 414.141C514.911 417.266 516.667 421.505 516.667 425.926C516.667 430.346 514.911 434.585 511.785 437.711C508.66 440.836 504.42 442.592 500 442.592C495.58 442.592 491.341 440.836 488.215 437.711C485.089 434.585 483.333 430.346 483.333 425.926C483.333 421.505 485.089 417.266 488.215 414.141C491.341 411.015 495.58 409.259 500 409.259ZM648.148 409.259C652.568 409.259 656.808 411.015 659.933 414.141C663.059 417.266 664.815 421.505 664.815 425.926C664.815 430.346 663.059 434.585 659.933 437.711C656.808 440.836 652.568 442.592 648.148 442.592C643.728 442.592 639.489 440.836 636.363 437.711C633.238 434.585 631.481 430.346 631.481 425.926C631.481 421.505 633.238 417.266 636.363 414.141C639.489 411.015 643.728 409.259 648.148 409.259ZM722.222 409.259C726.643 409.259 730.882 411.015 734.007 414.141C737.133 417.266 738.889 421.505 738.889 425.926C738.889 430.346 737.133 434.585 734.007 437.711C730.882 440.836 726.643 442.592 722.222 442.592C717.802 442.592 713.563 440.836 710.437 437.711C707.312 434.585 705.556 430.346 705.556 425.926C705.556 421.505 707.312 417.266 710.437 414.141C713.563 411.015 717.802 409.259 722.222 409.259ZM796.296 409.259C800.717 409.259 804.956 411.015 808.081 414.141C811.207 417.266 812.963 421.505 812.963 425.926C812.963 430.346 811.207 434.585 808.081 437.711C804.956 440.836 800.717 442.592 796.296 442.592C791.876 442.592 787.637 440.836 784.511 437.711C781.386 434.585 779.63 430.346 779.63 425.926C779.63 421.505 781.386 417.266 784.511 414.141C787.637 411.015 791.876 409.259 796.296 409.259ZM907.407 409.259C911.828 409.259 916.067 411.015 919.193 414.141C922.318 417.266 924.074 421.505 924.074 425.926C924.074 430.346 922.318 434.585 919.193 437.711C916.067 440.836 911.828 442.592 907.407 442.592C902.987 442.592 898.748 440.836 895.622 437.711C892.497 434.585 890.741 430.346 890.741 425.926C890.741 421.505 892.497 417.266 895.622 414.141C898.748 411.015 902.987 409.259 907.407 409.259ZM944.444 409.259C948.865 409.259 953.104 411.015 956.23 414.141C959.355 417.266 961.111 421.505 961.111 425.926C961.111 430.346 959.355 434.585 956.23 437.711C953.104 440.836 948.865 442.592 944.444 442.592C940.024 442.592 935.785 440.836 932.659 437.711C929.534 434.585 927.778 430.346 927.778 425.926C927.778 421.505 929.534 417.266 932.659 414.141C935.785 411.015 940.024 409.259 944.444 409.259ZM55.5556 446.296C59.9759 446.296 64.2151 448.052 67.3407 451.178C70.4663 454.303 72.2222 458.542 72.2222 462.963C72.2222 465.151 71.7912 467.319 70.9536 469.341C70.116 471.363 68.8883 473.2 67.3407 474.748C65.7931 476.295 63.9557 477.523 61.9336 478.361C59.9115 479.198 57.7443 479.629 55.5556 479.629C51.1353 479.629 46.8961 477.873 43.7705 474.748C40.6449 471.622 38.8889 467.383 38.8889 462.963C38.8889 458.542 40.6449 454.303 43.7705 451.178C46.8961 448.052 51.1353 446.296 55.5556 446.296ZM92.5926 446.296C97.0129 446.296 101.252 448.052 104.378 451.178C107.503 454.303 109.259 458.542 109.259 462.963C109.259 467.383 107.503 471.622 104.378 474.748C101.252 477.873 97.0129 479.629 92.5926 479.629C88.1723 479.629 83.9331 477.873 80.8075 474.748C77.6819 471.622 75.926 467.383 75.926 462.963C75.926 458.542 77.6819 454.303 80.8075 451.178C83.9331 448.052 88.1723 446.296 92.5926 446.296ZM129.63 446.296C134.05 446.296 138.289 448.052 141.415 451.178C144.54 454.303 146.296 458.542 146.296 462.963C146.296 467.383 144.54 471.622 141.415 474.748C138.289 477.873 134.05 479.629 129.63 479.629C125.209 479.629 120.97 477.873 117.845 474.748C114.719 471.622 112.963 467.383 112.963 462.963C112.963 458.542 114.719 454.303 117.845 451.178C120.97 448.052 125.209 446.296 129.63 446.296ZM166.667 446.296C171.087 446.296 175.326 448.052 178.452 451.178C181.577 454.303 183.333 458.542 183.333 462.963C183.333 467.383 181.577 471.622 178.452 474.748C175.326 477.873 171.087 479.629 166.667 479.629C162.246 479.629 158.007 477.873 154.882 474.748C151.756 471.622 150 467.383 150 462.963C150 458.542 151.756 454.303 154.882 451.178C158.007 448.052 162.246 446.296 166.667 446.296ZM240.741 446.296C245.161 446.296 249.4 448.052 252.526 451.178C255.651 454.303 257.407 458.542 257.407 462.963C257.407 467.383 255.651 471.622 252.526 474.748C249.4 477.873 245.161 479.629 240.741 479.629C236.32 479.629 232.081 477.873 228.956 474.748C225.83 471.622 224.074 467.383 224.074 462.963C224.074 458.542 225.83 454.303 228.956 451.178C232.081 448.052 236.32 446.296 240.741 446.296ZM388.889 446.296C393.309 446.296 397.548 448.052 400.674 451.178C403.8 454.303 405.556 458.542 405.556 462.963C405.556 467.383 403.8 471.622 400.674 474.748C397.548 477.873 393.309 479.629 388.889 479.629C384.469 479.629 380.229 477.873 377.104 474.748C373.978 471.622 372.222 467.383 372.222 462.963C372.222 458.542 373.978 454.303 377.104 451.178C380.229 448.052 384.469 446.296 388.889 446.296ZM425.926 446.296C430.346 446.296 434.585 448.052 437.711 451.178C440.837 454.303 442.593 458.542 442.593 462.963C442.593 467.383 440.837 471.622 437.711 474.748C434.585 477.873 430.346 479.629 425.926 479.629C421.506 479.629 417.266 477.873 414.141 474.748C411.015 471.622 409.259 467.383 409.259 462.963C409.259 458.542 411.015 454.303 414.141 451.178C417.266 448.052 421.506 446.296 425.926 446.296ZM462.963 446.296C467.383 446.296 471.622 448.052 474.748 451.178C477.874 454.303 479.63 458.542 479.63 462.963C479.63 467.383 477.874 471.622 474.748 474.748C471.622 477.873 467.383 479.629 462.963 479.629C458.543 479.629 454.303 477.873 451.178 474.748C448.052 471.622 446.296 467.383 446.296 462.963C446.296 458.542 448.052 454.303 451.178 451.178C454.303 448.052 458.543 446.296 462.963 446.296ZM500 446.296C504.42 446.296 508.66 448.052 511.785 451.178C514.911 454.303 516.667 458.542 516.667 462.963C516.667 467.383 514.911 471.622 511.785 474.748C508.66 477.873 504.42 479.629 500 479.629C495.58 479.629 491.341 477.873 488.215 474.748C485.089 471.622 483.333 467.383 483.333 462.963C483.333 458.542 485.089 454.303 488.215 451.178C491.341 448.052 495.58 446.296 500 446.296ZM537.037 446.296C541.457 446.296 545.697 448.052 548.822 451.178C551.948 454.303 553.704 458.542 553.704 462.963C553.704 467.383 551.948 471.622 548.822 474.748C545.697 477.873 541.457 479.629 537.037 479.629C532.617 479.629 528.378 477.873 525.252 474.748C522.126 471.622 520.37 467.383 520.37 462.963C520.37 458.542 522.126 454.303 525.252 451.178C528.378 448.052 532.617 446.296 537.037 446.296ZM611.111 446.296C615.531 446.296 619.771 448.052 622.896 451.178C626.022 454.303 627.778 458.542 627.778 462.963C627.778 467.383 626.022 471.622 622.896 474.748C619.771 477.873 615.531 479.629 611.111 479.629C606.691 479.629 602.452 477.873 599.326 474.748C596.2 471.622 594.444 467.383 594.444 462.963C594.444 458.542 596.2 454.303 599.326 451.178C602.452 448.052 606.691 446.296 611.111 446.296ZM648.148 446.296C652.568 446.296 656.808 448.052 659.933 451.178C663.059 454.303 664.815 458.542 664.815 462.963C664.815 467.383 663.059 471.622 659.933 474.748C656.808 477.873 652.568 479.629 648.148 479.629C643.728 479.629 639.489 477.873 636.363 474.748C633.238 471.622 631.481 467.383 631.481 462.963C631.481 458.542 633.238 454.303 636.363 451.178C639.489 448.052 643.728 446.296 648.148 446.296ZM722.222 446.296C726.643 446.296 730.882 448.052 734.007 451.178C737.133 454.303 738.889 458.542 738.889 462.963C738.889 467.383 737.133 471.622 734.007 474.748C730.882 477.873 726.643 479.629 722.222 479.629C717.802 479.629 713.563 477.873 710.437 474.748C707.312 471.622 705.556 467.383 705.556 462.963C705.556 458.542 707.312 454.303 710.437 451.178C713.563 448.052 717.802 446.296 722.222 446.296ZM759.259 446.296C763.68 446.296 767.919 448.052 771.044 451.178C774.17 454.303 775.926 458.542 775.926 462.963C775.926 467.383 774.17 471.622 771.044 474.748C767.919 477.873 763.68 479.629 759.259 479.629C754.839 479.629 750.6 477.873 747.474 474.748C744.349 471.622 742.593 467.383 742.593 462.963C742.593 458.542 744.349 454.303 747.474 451.178C750.6 448.052 754.839 446.296 759.259 446.296ZM796.296 446.296C800.717 446.296 804.956 448.052 808.081 451.178C811.207 454.303 812.963 458.542 812.963 462.963C812.963 467.383 811.207 471.622 808.081 474.748C804.956 477.873 800.717 479.629 796.296 479.629C791.876 479.629 787.637 477.873 784.511 474.748C781.386 471.622 779.63 467.383 779.63 462.963C779.63 458.542 781.386 454.303 784.511 451.178C787.637 448.052 791.876 446.296 796.296 446.296ZM166.667 483.333C171.087 483.333 175.326 485.089 178.452 488.215C181.577 491.34 183.333 495.579 183.333 500C183.333 504.42 181.577 508.659 178.452 511.785C175.326 514.91 171.087 516.666 166.667 516.666C162.246 516.666 158.007 514.91 154.882 511.785C151.756 508.659 150 504.42 150 500C150 495.579 151.756 491.34 154.882 488.215C158.007 485.089 162.246 483.333 166.667 483.333ZM277.778 483.333C282.198 483.333 286.437 485.089 289.563 488.215C292.689 491.34 294.444 495.579 294.444 500C294.444 504.42 292.689 508.659 289.563 511.785C286.437 514.91 282.198 516.666 277.778 516.666C273.358 516.666 269.118 514.91 265.993 511.785C262.867 508.659 261.111 504.42 261.111 500C261.111 495.579 262.867 491.34 265.993 488.215C269.118 485.089 273.358 483.333 277.778 483.333ZM314.815 483.333C319.235 483.333 323.474 485.089 326.6 488.215C329.726 491.34 331.481 495.579 331.481 500C331.481 504.42 329.726 508.659 326.6 511.785C323.474 514.91 319.235 516.666 314.815 516.666C310.395 516.666 306.155 514.91 303.03 511.785C299.904 508.659 298.148 504.42 298.148 500C298.148 495.579 299.904 491.34 303.03 488.215C306.155 485.089 310.395 483.333 314.815 483.333ZM351.852 483.333C356.272 483.333 360.511 485.089 363.637 488.215C366.763 491.34 368.519 495.579 368.519 500C368.519 504.42 366.763 508.659 363.637 511.785C360.511 514.91 356.272 516.666 351.852 516.666C347.432 516.666 343.192 514.91 340.067 511.785C336.941 508.659 335.185 504.42 335.185 500C335.185 495.579 336.941 491.34 340.067 488.215C343.192 485.089 347.432 483.333 351.852 483.333ZM425.926 483.333C430.346 483.333 434.585 485.089 437.711 488.215C440.837 491.34 442.593 495.579 442.593 500C442.593 504.42 440.837 508.659 437.711 511.785C434.585 514.91 430.346 516.666 425.926 516.666C421.506 516.666 417.266 514.91 414.141 511.785C411.015 508.659 409.259 504.42 409.259 500C409.259 495.579 411.015 491.34 414.141 488.215C417.266 485.089 421.506 483.333 425.926 483.333ZM462.963 483.333C467.383 483.333 471.622 485.089 474.748 488.215C477.874 491.34 479.63 495.579 479.63 500C479.63 504.42 477.874 508.659 474.748 511.785C471.622 514.91 467.383 516.666 462.963 516.666C458.543 516.666 454.303 514.91 451.178 511.785C448.052 508.659 446.296 504.42 446.296 500C446.296 495.579 448.052 491.34 451.178 488.215C454.303 485.089 458.543 483.333 462.963 483.333ZM500 483.333C504.42 483.333 508.66 485.089 511.785 488.215C514.911 491.34 516.667 495.579 516.667 500C516.667 504.42 514.911 508.659 511.785 511.785C508.66 514.91 504.42 516.666 500 516.666C495.58 516.666 491.341 514.91 488.215 511.785C485.089 508.659 483.333 504.42 483.333 500C483.333 495.579 485.089 491.34 488.215 488.215C491.341 485.089 495.58 483.333 500 483.333ZM537.037 483.333C541.457 483.333 545.697 485.089 548.822 488.215C551.948 491.34 553.704 495.579 553.704 500C553.704 504.42 551.948 508.659 548.822 511.785C545.697 514.91 541.457 516.666 537.037 516.666C532.617 516.666 528.378 514.91 525.252 511.785C522.126 508.659 520.37 504.42 520.37 500C520.37 495.579 522.126 491.34 525.252 488.215C528.378 485.089 532.617 483.333 537.037 483.333ZM648.148 483.333C652.568 483.333 656.808 485.089 659.933 488.215C663.059 491.34 664.815 495.579 664.815 500C664.815 504.42 663.059 508.659 659.933 511.785C656.808 514.91 652.568 516.666 648.148 516.666C643.728 516.666 639.489 514.91 636.363 511.785C633.238 508.659 631.481 504.42 631.481 500C631.481 495.579 633.238 491.34 636.363 488.215C639.489 485.089 643.728 483.333 648.148 483.333ZM722.222 483.333C726.643 483.333 730.882 485.089 734.007 488.215C737.133 491.34 738.889 495.579 738.889 500C738.889 504.42 737.133 508.659 734.007 511.785C730.882 514.91 726.643 516.666 722.222 516.666C717.802 516.666 713.563 514.91 710.437 511.785C707.312 508.659 705.556 504.42 705.556 500C705.556 495.579 707.312 491.34 710.437 488.215C713.563 485.089 717.802 483.333 722.222 483.333ZM759.259 483.333C763.68 483.333 767.919 485.089 771.044 488.215C774.17 491.34 775.926 495.579 775.926 500C775.926 504.42 774.17 508.659 771.044 511.785C767.919 514.91 763.68 516.666 759.259 516.666C754.839 516.666 750.6 514.91 747.474 511.785C744.349 508.659 742.593 504.42 742.593 500C742.593 495.579 744.349 491.34 747.474 488.215C750.6 485.089 754.839 483.333 759.259 483.333ZM833.333 483.333C837.754 483.333 841.993 485.089 845.118 488.215C848.244 491.34 850 495.579 850 500C850 504.42 848.244 508.659 845.118 511.785C841.993 514.91 837.754 516.666 833.333 516.666C828.913 516.666 824.674 514.91 821.548 511.785C818.423 508.659 816.667 504.42 816.667 500C816.667 495.579 818.423 491.34 821.548 488.215C824.674 485.089 828.913 483.333 833.333 483.333ZM907.407 483.333C911.828 483.333 916.067 485.089 919.193 488.215C922.318 491.34 924.074 495.579 924.074 500C924.074 504.42 922.318 508.659 919.193 511.785C916.067 514.91 911.828 516.666 907.407 516.666C902.987 516.666 898.748 514.91 895.622 511.785C892.497 508.659 890.741 504.42 890.741 500C890.741 495.579 892.497 491.34 895.622 488.215C898.748 485.089 902.987 483.333 907.407 483.333ZM944.444 483.333C948.865 483.333 953.104 485.089 956.23 488.215C959.355 491.34 961.111 495.579 961.111 500C961.111 504.42 959.355 508.659 956.23 511.785C953.104 514.91 948.865 516.666 944.444 516.666C940.024 516.666 935.785 514.91 932.659 511.785C929.534 508.659 927.778 504.42 927.778 500C927.778 495.579 929.534 491.34 932.659 488.215C935.785 485.089 940.024 483.333 944.444 483.333ZM92.5926 520.37C97.0129 520.37 101.252 522.126 104.378 525.252C107.503 528.377 109.259 532.617 109.259 537.037C109.259 541.457 107.503 545.696 104.378 548.822C101.252 551.948 97.0129 553.703 92.5926 553.703C88.1723 553.703 83.9331 551.948 80.8075 548.822C77.6819 545.696 75.926 541.457 75.926 537.037C75.926 532.617 77.6819 528.377 80.8075 525.252C83.9331 522.126 88.1723 520.37 92.5926 520.37ZM129.63 520.37C134.05 520.37 138.289 522.126 141.415 525.252C144.54 528.377 146.296 532.617 146.296 537.037C146.296 541.457 144.54 545.696 141.415 548.822C138.289 551.948 134.05 553.703 129.63 553.703C125.209 553.703 120.97 551.948 117.845 548.822C114.719 545.696 112.963 541.457 112.963 537.037C112.963 532.617 114.719 528.377 117.845 525.252C120.97 522.126 125.209 520.37 129.63 520.37ZM166.667 520.37C171.087 520.37 175.326 522.126 178.452 525.252C181.577 528.377 183.333 532.617 183.333 537.037C183.333 541.457 181.577 545.696 178.452 548.822C175.326 551.948 171.087 553.703 166.667 553.703C162.246 553.703 158.007 551.948 154.882 548.822C151.756 545.696 150 541.457 150 537.037C150 532.617 151.756 528.377 154.882 525.252C158.007 522.126 162.246 520.37 166.667 520.37ZM203.704 520.37C208.124 520.37 212.363 522.126 215.489 525.252C218.614 528.377 220.37 532.617 220.37 537.037C220.37 541.457 218.614 545.696 215.489 548.822C212.363 551.948 208.124 553.703 203.704 553.703C199.283 553.703 195.044 551.948 191.919 548.822C188.793 545.696 187.037 541.457 187.037 537.037C187.037 532.617 188.793 528.377 191.919 525.252C195.044 522.126 199.283 520.37 203.704 520.37ZM240.741 520.37C245.161 520.37 249.4 522.126 252.526 525.252C255.651 528.377 257.407 532.617 257.407 537.037C257.407 541.457 255.651 545.696 252.526 548.822C249.4 551.948 245.161 553.703 240.741 553.703C236.32 553.703 232.081 551.948 228.956 548.822C225.83 545.696 224.074 541.457 224.074 537.037C224.074 532.617 225.83 528.377 228.956 525.252C232.081 522.126 236.32 520.37 240.741 520.37ZM351.852 520.37C356.272 520.37 360.511 522.126 363.637 525.252C366.763 528.377 368.519 532.617 368.519 537.037C368.519 541.457 366.763 545.696 363.637 548.822C360.511 551.948 356.272 553.703 351.852 553.703C347.432 553.703 343.192 551.948 340.067 548.822C336.941 545.696 335.185 541.457 335.185 537.037C335.185 532.617 336.941 528.377 340.067 525.252C343.192 522.126 347.432 520.37 351.852 520.37ZM462.963 520.37C467.383 520.37 471.622 522.126 474.748 525.252C477.874 528.377 479.63 532.617 479.63 537.037C479.63 541.457 477.874 545.696 474.748 548.822C471.622 551.948 467.383 553.703 462.963 553.703C458.543 553.703 454.303 551.948 451.178 548.822C448.052 545.696 446.296 541.457 446.296 537.037C446.296 532.617 448.052 528.377 451.178 525.252C454.303 522.126 458.543 520.37 462.963 520.37ZM685.185 520.37C689.606 520.37 693.845 522.126 696.97 525.252C700.096 528.377 701.852 532.617 701.852 537.037C701.852 541.457 700.096 545.696 696.97 548.822C693.845 551.948 689.606 553.703 685.185 553.703C680.765 553.703 676.526 551.948 673.4 548.822C670.275 545.696 668.519 541.457 668.519 537.037C668.519 532.617 670.275 528.377 673.4 525.252C676.526 522.126 680.765 520.37 685.185 520.37ZM722.222 520.37C726.643 520.37 730.882 522.126 734.007 525.252C737.133 528.377 738.889 532.617 738.889 537.037C738.889 541.457 737.133 545.696 734.007 548.822C730.882 551.948 726.643 553.703 722.222 553.703C717.802 553.703 713.563 551.948 710.437 548.822C707.312 545.696 705.556 541.457 705.556 537.037C705.556 532.617 707.312 528.377 710.437 525.252C713.563 522.126 717.802 520.37 722.222 520.37ZM759.259 520.37C763.68 520.37 767.919 522.126 771.044 525.252C774.17 528.377 775.926 532.617 775.926 537.037C775.926 541.457 774.17 545.696 771.044 548.822C767.919 551.948 763.68 553.703 759.259 553.703C754.839 553.703 750.6 551.948 747.474 548.822C744.349 545.696 742.593 541.457 742.593 537.037C742.593 532.617 744.349 528.377 747.474 525.252C750.6 522.126 754.839 520.37 759.259 520.37ZM833.333 520.37C837.754 520.37 841.993 522.126 845.118 525.252C848.244 528.377 850 532.617 850 537.037C850 541.457 848.244 545.696 845.118 548.822C841.993 551.948 837.754 553.703 833.333 553.703C828.913 553.703 824.674 551.948 821.548 548.822C818.423 545.696 816.667 541.457 816.667 537.037C816.667 532.617 818.423 528.377 821.548 525.252C824.674 522.126 828.913 520.37 833.333 520.37ZM870.37 520.37C874.791 520.37 879.03 522.126 882.156 525.252C885.281 528.377 887.037 532.617 887.037 537.037C887.037 541.457 885.281 545.696 882.156 548.822C879.03 551.948 874.791 553.703 870.37 553.703C865.95 553.703 861.711 551.948 858.585 548.822C855.46 545.696 853.704 541.457 853.704 537.037C853.704 532.617 855.46 528.377 858.585 525.252C861.711 522.126 865.95 520.37 870.37 520.37ZM944.444 520.37C948.865 520.37 953.104 522.126 956.23 525.252C959.355 528.377 961.111 532.617 961.111 537.037C961.111 541.457 959.355 545.696 956.23 548.822C953.104 551.948 948.865 553.703 944.444 553.703C940.024 553.703 935.785 551.948 932.659 548.822C929.534 545.696 927.778 541.457 927.778 537.037C927.778 532.617 929.534 528.377 932.659 525.252C935.785 522.126 940.024 520.37 944.444 520.37ZM55.5556 557.407C59.9759 557.407 64.2151 559.163 67.3407 562.289C70.4663 565.414 72.2222 569.654 72.2222 574.074C72.2222 576.263 71.7912 578.43 70.9536 580.452C70.116 582.474 68.8883 584.311 67.3407 585.859C65.7931 587.407 63.9557 588.634 61.9336 589.472C59.9115 590.309 57.7443 590.741 55.5556 590.741C51.1353 590.741 46.8961 588.985 43.7705 585.859C40.6449 582.733 38.8889 578.494 38.8889 574.074C38.8889 569.654 40.6449 565.414 43.7705 562.289C46.8961 559.163 51.1353 557.407 55.5556 557.407ZM129.63 557.407C134.05 557.407 138.289 559.163 141.415 562.289C144.54 565.414 146.296 569.654 146.296 574.074C146.296 578.494 144.54 582.733 141.415 585.859C138.289 588.985 134.05 590.741 129.63 590.741C125.209 590.741 120.97 588.985 117.845 585.859C114.719 582.733 112.963 578.494 112.963 574.074C112.963 569.654 114.719 565.414 117.845 562.289C120.97 559.163 125.209 557.407 129.63 557.407ZM166.667 557.407C171.087 557.407 175.326 559.163 178.452 562.289C181.577 565.414 183.333 569.654 183.333 574.074C183.333 578.494 181.577 582.733 178.452 585.859C175.326 588.985 171.087 590.741 166.667 590.741C162.246 590.741 158.007 588.985 154.882 585.859C151.756 582.733 150 578.494 150 574.074C150 569.654 151.756 565.414 154.882 562.289C158.007 559.163 162.246 557.407 166.667 557.407ZM277.778 557.407C282.198 557.407 286.437 559.163 289.563 562.289C292.689 565.414 294.444 569.654 294.444 574.074C294.444 578.494 292.689 582.733 289.563 585.859C286.437 588.985 282.198 590.741 277.778 590.741C273.358 590.741 269.118 588.985 265.993 585.859C262.867 582.733 261.111 578.494 261.111 574.074C261.111 569.654 262.867 565.414 265.993 562.289C269.118 559.163 273.358 557.407 277.778 557.407ZM314.815 557.407C319.235 557.407 323.474 559.163 326.6 562.289C329.726 565.414 331.481 569.654 331.481 574.074C331.481 578.494 329.726 582.733 326.6 585.859C323.474 588.985 319.235 590.741 314.815 590.741C310.395 590.741 306.155 588.985 303.03 585.859C299.904 582.733 298.148 578.494 298.148 574.074C298.148 569.654 299.904 565.414 303.03 562.289C306.155 559.163 310.395 557.407 314.815 557.407ZM351.852 557.407C356.272 557.407 360.511 559.163 363.637 562.289C366.763 565.414 368.519 569.654 368.519 574.074C368.519 578.494 366.763 582.733 363.637 585.859C360.511 588.985 356.272 590.741 351.852 590.741C347.432 590.741 343.192 588.985 340.067 585.859C336.941 582.733 335.185 578.494 335.185 574.074C335.185 569.654 336.941 565.414 340.067 562.289C343.192 559.163 347.432 557.407 351.852 557.407ZM462.963 557.407C467.383 557.407 471.622 559.163 474.748 562.289C477.874 565.414 479.63 569.654 479.63 574.074C479.63 578.494 477.874 582.733 474.748 585.859C471.622 588.985 467.383 590.741 462.963 590.741C458.543 590.741 454.303 588.985 451.178 585.859C448.052 582.733 446.296 578.494 446.296 574.074C446.296 569.654 448.052 565.414 451.178 562.289C454.303 559.163 458.543 557.407 462.963 557.407ZM574.074 557.407C578.494 557.407 582.734 559.163 585.859 562.289C588.985 565.414 590.741 569.654 590.741 574.074C590.741 578.494 588.985 582.733 585.859 585.859C582.734 588.985 578.494 590.741 574.074 590.741C569.654 590.741 565.415 588.985 562.289 585.859C559.163 582.733 557.407 578.494 557.407 574.074C557.407 569.654 559.163 565.414 562.289 562.289C565.415 559.163 569.654 557.407 574.074 557.407ZM648.148 557.407C652.568 557.407 656.808 559.163 659.933 562.289C663.059 565.414 664.815 569.654 664.815 574.074C664.815 578.494 663.059 582.733 659.933 585.859C656.808 588.985 652.568 590.741 648.148 590.741C643.728 590.741 639.489 588.985 636.363 585.859C633.238 582.733 631.481 578.494 631.481 574.074C631.481 569.654 633.238 565.414 636.363 562.289C639.489 559.163 643.728 557.407 648.148 557.407ZM759.259 557.407C763.68 557.407 767.919 559.163 771.044 562.289C774.17 565.414 775.926 569.654 775.926 574.074C775.926 578.494 774.17 582.733 771.044 585.859C767.919 588.985 763.68 590.741 759.259 590.741C754.839 590.741 750.6 588.985 747.474 585.859C744.349 582.733 742.593 578.494 742.593 574.074C742.593 569.654 744.349 565.414 747.474 562.289C750.6 559.163 754.839 557.407 759.259 557.407ZM796.296 557.407C800.717 557.407 804.956 559.163 808.081 562.289C811.207 565.414 812.963 569.654 812.963 574.074C812.963 578.494 811.207 582.733 808.081 585.859C804.956 588.985 800.717 590.741 796.296 590.741C791.876 590.741 787.637 588.985 784.511 585.859C781.386 582.733 779.63 578.494 779.63 574.074C779.63 569.654 781.386 565.414 784.511 562.289C787.637 559.163 791.876 557.407 796.296 557.407ZM870.37 557.407C874.791 557.407 879.03 559.163 882.156 562.289C885.281 565.414 887.037 569.654 887.037 574.074C887.037 578.494 885.281 582.733 882.156 585.859C879.03 588.985 874.791 590.741 870.37 590.741C865.95 590.741 861.711 588.985 858.585 585.859C855.46 582.733 853.704 578.494 853.704 574.074C853.704 569.654 855.46 565.414 858.585 562.289C861.711 559.163 865.95 557.407 870.37 557.407ZM944.444 557.407C948.865 557.407 953.104 559.163 956.23 562.289C959.355 565.414 961.111 569.654 961.111 574.074C961.111 578.494 959.355 582.733 956.23 585.859C953.104 588.985 948.865 590.741 944.444 590.741C940.024 590.741 935.785 588.985 932.659 585.859C929.534 582.733 927.778 578.494 927.778 574.074C927.778 569.654 929.534 565.414 932.659 562.289C935.785 559.163 940.024 557.407 944.444 557.407ZM92.5926 594.444C97.0129 594.444 101.252 596.2 104.378 599.326C107.503 602.451 109.259 606.691 109.259 611.111C109.259 615.531 107.503 619.77 104.378 622.896C101.252 626.022 97.0129 627.778 92.5926 627.778C88.1723 627.778 83.9331 626.022 80.8075 622.896C77.6819 619.77 75.926 615.531 75.926 611.111C75.926 606.691 77.6819 602.451 80.8075 599.326C83.9331 596.2 88.1723 594.444 92.5926 594.444ZM129.63 594.444C134.05 594.444 138.289 596.2 141.415 599.326C144.54 602.451 146.296 606.691 146.296 611.111C146.296 615.531 144.54 619.77 141.415 622.896C138.289 626.022 134.05 627.778 129.63 627.778C125.209 627.778 120.97 626.022 117.845 622.896C114.719 619.77 112.963 615.531 112.963 611.111C112.963 606.691 114.719 602.451 117.845 599.326C120.97 596.2 125.209 594.444 129.63 594.444ZM314.815 594.444C319.235 594.444 323.474 596.2 326.6 599.326C329.726 602.451 331.481 606.691 331.481 611.111C331.481 615.531 329.726 619.77 326.6 622.896C323.474 626.022 319.235 627.778 314.815 627.778C310.395 627.778 306.155 626.022 303.03 622.896C299.904 619.77 298.148 615.531 298.148 611.111C298.148 606.691 299.904 602.451 303.03 599.326C306.155 596.2 310.395 594.444 314.815 594.444ZM462.963 594.444C467.383 594.444 471.622 596.2 474.748 599.326C477.874 602.451 479.63 606.691 479.63 611.111C479.63 615.531 477.874 619.77 474.748 622.896C471.622 626.022 467.383 627.778 462.963 627.778C458.543 627.778 454.303 626.022 451.178 622.896C448.052 619.77 446.296 615.531 446.296 611.111C446.296 606.691 448.052 602.451 451.178 599.326C454.303 596.2 458.543 594.444 462.963 594.444ZM500 594.444C504.42 594.444 508.66 596.2 511.785 599.326C514.911 602.451 516.667 606.691 516.667 611.111C516.667 615.531 514.911 619.77 511.785 622.896C508.66 626.022 504.42 627.778 500 627.778C495.58 627.778 491.341 626.022 488.215 622.896C485.089 619.77 483.333 615.531 483.333 611.111C483.333 606.691 485.089 602.451 488.215 599.326C491.341 596.2 495.58 594.444 500 594.444ZM537.037 594.444C541.457 594.444 545.697 596.2 548.822 599.326C551.948 602.451 553.704 606.691 553.704 611.111C553.704 615.531 551.948 619.77 548.822 622.896C545.697 626.022 541.457 627.778 537.037 627.778C532.617 627.778 528.378 626.022 525.252 622.896C522.126 619.77 520.37 615.531 520.37 611.111C520.37 606.691 522.126 602.451 525.252 599.326C528.378 596.2 532.617 594.444 537.037 594.444ZM574.074 594.444C578.494 594.444 582.734 596.2 585.859 599.326C588.985 602.451 590.741 606.691 590.741 611.111C590.741 615.531 588.985 619.77 585.859 622.896C582.734 626.022 578.494 627.778 574.074 627.778C569.654 627.778 565.415 626.022 562.289 622.896C559.163 619.77 557.407 615.531 557.407 611.111C557.407 606.691 559.163 602.451 562.289 599.326C565.415 596.2 569.654 594.444 574.074 594.444ZM611.111 594.444C615.531 594.444 619.771 596.2 622.896 599.326C626.022 602.451 627.778 606.691 627.778 611.111C627.778 615.531 626.022 619.77 622.896 622.896C619.771 626.022 615.531 627.778 611.111 627.778C606.691 627.778 602.452 626.022 599.326 622.896C596.2 619.77 594.444 615.531 594.444 611.111C594.444 606.691 596.2 602.451 599.326 599.326C602.452 596.2 606.691 594.444 611.111 594.444ZM648.148 594.444C652.568 594.444 656.808 596.2 659.933 599.326C663.059 602.451 664.815 606.691 664.815 611.111C664.815 615.531 663.059 619.77 659.933 622.896C656.808 626.022 652.568 627.778 648.148 627.778C643.728 627.778 639.489 626.022 636.363 622.896C633.238 619.77 631.481 615.531 631.481 611.111C631.481 606.691 633.238 602.451 636.363 599.326C639.489 596.2 643.728 594.444 648.148 594.444ZM796.296 594.444C800.717 594.444 804.956 596.2 808.081 599.326C811.207 602.451 812.963 606.691 812.963 611.111C812.963 615.531 811.207 619.77 808.081 622.896C804.956 626.022 800.717 627.778 796.296 627.778C791.876 627.778 787.637 626.022 784.511 622.896C781.386 619.77 779.63 615.531 779.63 611.111C779.63 606.691 781.386 602.451 784.511 599.326C787.637 596.2 791.876 594.444 796.296 594.444ZM907.407 594.444C911.828 594.444 916.067 596.2 919.193 599.326C922.318 602.451 924.074 606.691 924.074 611.111C924.074 615.531 922.318 619.77 919.193 622.896C916.067 626.022 911.828 627.778 907.407 627.778C902.987 627.778 898.748 626.022 895.622 622.896C892.497 619.77 890.741 615.531 890.741 611.111C890.741 606.691 892.497 602.451 895.622 599.326C898.748 596.2 902.987 594.444 907.407 594.444ZM55.5556 631.481C59.9759 631.481 64.2151 633.237 67.3407 636.363C70.4663 639.488 72.2222 643.728 72.2222 648.148C72.2222 650.337 71.7912 652.504 70.9536 654.526C70.116 656.548 68.8883 658.385 67.3407 659.933C65.7931 661.481 63.9557 662.708 61.9336 663.546C59.9115 664.384 57.7443 664.815 55.5556 664.815C51.1353 664.815 46.8961 663.059 43.7705 659.933C40.6449 656.807 38.8889 652.568 38.8889 648.148C38.8889 643.728 40.6449 639.488 43.7705 636.363C46.8961 633.237 51.1353 631.481 55.5556 631.481ZM92.5926 631.481C97.0129 631.481 101.252 633.237 104.378 636.363C107.503 639.488 109.259 643.728 109.259 648.148C109.259 652.568 107.503 656.807 104.378 659.933C101.252 663.059 97.0129 664.815 92.5926 664.815C88.1723 664.815 83.9331 663.059 80.8075 659.933C77.6819 656.807 75.926 652.568 75.926 648.148C75.926 643.728 77.6819 639.488 80.8075 636.363C83.9331 633.237 88.1723 631.481 92.5926 631.481ZM129.63 631.481C134.05 631.481 138.289 633.237 141.415 636.363C144.54 639.488 146.296 643.728 146.296 648.148C146.296 652.568 144.54 656.807 141.415 659.933C138.289 663.059 134.05 664.815 129.63 664.815C125.209 664.815 120.97 663.059 117.845 659.933C114.719 656.807 112.963 652.568 112.963 648.148C112.963 643.728 114.719 639.488 117.845 636.363C120.97 633.237 125.209 631.481 129.63 631.481ZM203.704 631.481C208.124 631.481 212.363 633.237 215.489 636.363C218.614 639.488 220.37 643.728 220.37 648.148C220.37 652.568 218.614 656.807 215.489 659.933C212.363 663.059 208.124 664.815 203.704 664.815C199.283 664.815 195.044 663.059 191.919 659.933C188.793 656.807 187.037 652.568 187.037 648.148C187.037 643.728 188.793 639.488 191.919 636.363C195.044 633.237 199.283 631.481 203.704 631.481ZM240.741 631.481C245.161 631.481 249.4 633.237 252.526 636.363C255.651 639.488 257.407 643.728 257.407 648.148C257.407 652.568 255.651 656.807 252.526 659.933C249.4 663.059 245.161 664.815 240.741 664.815C236.32 664.815 232.081 663.059 228.956 659.933C225.83 656.807 224.074 652.568 224.074 648.148C224.074 643.728 225.83 639.488 228.956 636.363C232.081 633.237 236.32 631.481 240.741 631.481ZM277.778 631.481C282.198 631.481 286.437 633.237 289.563 636.363C292.689 639.488 294.444 643.728 294.444 648.148C294.444 652.568 292.689 656.807 289.563 659.933C286.437 663.059 282.198 664.815 277.778 664.815C273.358 664.815 269.118 663.059 265.993 659.933C262.867 656.807 261.111 652.568 261.111 648.148C261.111 643.728 262.867 639.488 265.993 636.363C269.118 633.237 273.358 631.481 277.778 631.481ZM314.815 631.481C319.235 631.481 323.474 633.237 326.6 636.363C329.726 639.488 331.481 643.728 331.481 648.148C331.481 652.568 329.726 656.807 326.6 659.933C323.474 663.059 319.235 664.815 314.815 664.815C310.395 664.815 306.155 663.059 303.03 659.933C299.904 656.807 298.148 652.568 298.148 648.148C298.148 643.728 299.904 639.488 303.03 636.363C306.155 633.237 310.395 631.481 314.815 631.481ZM351.852 631.481C356.272 631.481 360.511 633.237 363.637 636.363C366.763 639.488 368.519 643.728 368.519 648.148C368.519 652.568 366.763 656.807 363.637 659.933C360.511 663.059 356.272 664.815 351.852 664.815C347.432 664.815 343.192 663.059 340.067 659.933C336.941 656.807 335.185 652.568 335.185 648.148C335.185 643.728 336.941 639.488 340.067 636.363C343.192 633.237 347.432 631.481 351.852 631.481ZM648.148 631.481C652.568 631.481 656.808 633.237 659.933 636.363C663.059 639.488 664.815 643.728 664.815 648.148C664.815 652.568 663.059 656.807 659.933 659.933C656.808 663.059 652.568 664.815 648.148 664.815C643.728 664.815 639.489 663.059 636.363 659.933C633.238 656.807 631.481 652.568 631.481 648.148C631.481 643.728 633.238 639.488 636.363 636.363C639.489 633.237 643.728 631.481 648.148 631.481ZM685.185 631.481C689.606 631.481 693.845 633.237 696.97 636.363C700.096 639.488 701.852 643.728 701.852 648.148C701.852 652.568 700.096 656.807 696.97 659.933C693.845 663.059 689.606 664.815 685.185 664.815C680.765 664.815 676.526 663.059 673.4 659.933C670.275 656.807 668.519 652.568 668.519 648.148C668.519 643.728 670.275 639.488 673.4 636.363C676.526 633.237 680.765 631.481 685.185 631.481ZM722.222 631.481C726.643 631.481 730.882 633.237 734.007 636.363C737.133 639.488 738.889 643.728 738.889 648.148C738.889 652.568 737.133 656.807 734.007 659.933C730.882 663.059 726.643 664.815 722.222 664.815C717.802 664.815 713.563 663.059 710.437 659.933C707.312 656.807 705.556 652.568 705.556 648.148C705.556 643.728 707.312 639.488 710.437 636.363C713.563 633.237 717.802 631.481 722.222 631.481ZM759.259 631.481C763.68 631.481 767.919 633.237 771.044 636.363C774.17 639.488 775.926 643.728 775.926 648.148C775.926 652.568 774.17 656.807 771.044 659.933C767.919 663.059 763.68 664.815 759.259 664.815C754.839 664.815 750.6 663.059 747.474 659.933C744.349 656.807 742.593 652.568 742.593 648.148C742.593 643.728 744.349 639.488 747.474 636.363C750.6 633.237 754.839 631.481 759.259 631.481ZM796.296 631.481C800.717 631.481 804.956 633.237 808.081 636.363C811.207 639.488 812.963 643.728 812.963 648.148C812.963 652.568 811.207 656.807 808.081 659.933C804.956 663.059 800.717 664.815 796.296 664.815C791.876 664.815 787.637 663.059 784.511 659.933C781.386 656.807 779.63 652.568 779.63 648.148C779.63 643.728 781.386 639.488 784.511 636.363C787.637 633.237 791.876 631.481 796.296 631.481ZM833.333 631.481C837.754 631.481 841.993 633.237 845.118 636.363C848.244 639.488 850 643.728 850 648.148C850 652.568 848.244 656.807 845.118 659.933C841.993 663.059 837.754 664.815 833.333 664.815C828.913 664.815 824.674 663.059 821.548 659.933C818.423 656.807 816.667 652.568 816.667 648.148C816.667 643.728 818.423 639.488 821.548 636.363C824.674 633.237 828.913 631.481 833.333 631.481ZM870.37 631.481C874.791 631.481 879.03 633.237 882.156 636.363C885.281 639.488 887.037 643.728 887.037 648.148C887.037 652.568 885.281 656.807 882.156 659.933C879.03 663.059 874.791 664.815 870.37 664.815C865.95 664.815 861.711 663.059 858.585 659.933C855.46 656.807 853.704 652.568 853.704 648.148C853.704 643.728 855.46 639.488 858.585 636.363C861.711 633.237 865.95 631.481 870.37 631.481ZM351.852 668.518C356.272 668.518 360.511 670.274 363.637 673.4C366.763 676.526 368.519 680.765 368.519 685.185C368.519 689.605 366.763 693.844 363.637 696.97C360.511 700.096 356.272 701.852 351.852 701.852C347.432 701.852 343.192 700.096 340.067 696.97C336.941 693.844 335.185 689.605 335.185 685.185C335.185 680.765 336.941 676.526 340.067 673.4C343.192 670.274 347.432 668.518 351.852 668.518ZM388.889 668.518C393.309 668.518 397.548 670.274 400.674 673.4C403.8 676.526 405.556 680.765 405.556 685.185C405.556 689.605 403.8 693.844 400.674 696.97C397.548 700.096 393.309 701.852 388.889 701.852C384.469 701.852 380.229 700.096 377.104 696.97C373.978 693.844 372.222 689.605 372.222 685.185C372.222 680.765 373.978 676.526 377.104 673.4C380.229 670.274 384.469 668.518 388.889 668.518ZM425.926 668.518C430.346 668.518 434.585 670.274 437.711 673.4C440.837 676.526 442.593 680.765 442.593 685.185C442.593 689.605 440.837 693.844 437.711 696.97C434.585 700.096 430.346 701.852 425.926 701.852C421.506 701.852 417.266 700.096 414.141 696.97C411.015 693.844 409.259 689.605 409.259 685.185C409.259 680.765 411.015 676.526 414.141 673.4C417.266 670.274 421.506 668.518 425.926 668.518ZM462.963 668.518C467.383 668.518 471.622 670.274 474.748 673.4C477.874 676.526 479.63 680.765 479.63 685.185C479.63 689.605 477.874 693.844 474.748 696.97C471.622 700.096 467.383 701.852 462.963 701.852C458.543 701.852 454.303 700.096 451.178 696.97C448.052 693.844 446.296 689.605 446.296 685.185C446.296 680.765 448.052 676.526 451.178 673.4C454.303 670.274 458.543 668.518 462.963 668.518ZM537.037 668.518C541.457 668.518 545.697 670.274 548.822 673.4C551.948 676.526 553.704 680.765 553.704 685.185C553.704 689.605 551.948 693.844 548.822 696.97C545.697 700.096 541.457 701.852 537.037 701.852C532.617 701.852 528.378 700.096 525.252 696.97C522.126 693.844 520.37 689.605 520.37 685.185C520.37 680.765 522.126 676.526 525.252 673.4C528.378 670.274 532.617 668.518 537.037 668.518ZM574.074 668.518C578.494 668.518 582.734 670.274 585.859 673.4C588.985 676.526 590.741 680.765 590.741 685.185C590.741 689.605 588.985 693.844 585.859 696.97C582.734 700.096 578.494 701.852 574.074 701.852C569.654 701.852 565.415 700.096 562.289 696.97C559.163 693.844 557.407 689.605 557.407 685.185C557.407 680.765 559.163 676.526 562.289 673.4C565.415 670.274 569.654 668.518 574.074 668.518ZM611.111 668.518C615.531 668.518 619.771 670.274 622.896 673.4C626.022 676.526 627.778 680.765 627.778 685.185C627.778 689.605 626.022 693.844 622.896 696.97C619.771 700.096 615.531 701.852 611.111 701.852C606.691 701.852 602.452 700.096 599.326 696.97C596.2 693.844 594.444 689.605 594.444 685.185C594.444 680.765 596.2 676.526 599.326 673.4C602.452 670.274 606.691 668.518 611.111 668.518ZM648.148 668.518C652.568 668.518 656.808 670.274 659.933 673.4C663.059 676.526 664.815 680.765 664.815 685.185C664.815 689.605 663.059 693.844 659.933 696.97C656.808 700.096 652.568 701.852 648.148 701.852C643.728 701.852 639.489 700.096 636.363 696.97C633.238 693.844 631.481 689.605 631.481 685.185C631.481 680.765 633.238 676.526 636.363 673.4C639.489 670.274 643.728 668.518 648.148 668.518ZM796.296 668.518C800.717 668.518 804.956 670.274 808.081 673.4C811.207 676.526 812.963 680.765 812.963 685.185C812.963 689.605 811.207 693.844 808.081 696.97C804.956 700.096 800.717 701.852 796.296 701.852C791.876 701.852 787.637 700.096 784.511 696.97C781.386 693.844 779.63 689.605 779.63 685.185C779.63 680.765 781.386 676.526 784.511 673.4C787.637 670.274 791.876 668.518 796.296 668.518ZM833.333 668.518C837.754 668.518 841.993 670.274 845.118 673.4C848.244 676.526 850 680.765 850 685.185C850 689.605 848.244 693.844 845.118 696.97C841.993 700.096 837.754 701.852 833.333 701.852C828.913 701.852 824.674 700.096 821.548 696.97C818.423 693.844 816.667 689.605 816.667 685.185C816.667 680.765 818.423 676.526 821.548 673.4C824.674 670.274 828.913 668.518 833.333 668.518ZM944.444 668.518C948.865 668.518 953.104 670.274 956.23 673.4C959.355 676.526 961.111 680.765 961.111 685.185C961.111 689.605 959.355 693.844 956.23 696.97C953.104 700.096 948.865 701.852 944.444 701.852C940.024 701.852 935.785 700.096 932.659 696.97C929.534 693.844 927.778 689.605 927.778 685.185C927.778 680.765 929.534 676.526 932.659 673.4C935.785 670.274 940.024 668.518 944.444 668.518ZM351.852 705.555C356.272 705.555 360.511 707.311 363.637 710.437C366.763 713.563 368.519 717.802 368.519 722.222C368.519 726.642 366.763 730.882 363.637 734.007C360.511 737.133 356.272 738.889 351.852 738.889C347.432 738.889 343.192 737.133 340.067 734.007C336.941 730.882 335.185 726.642 335.185 722.222C335.185 717.802 336.941 713.563 340.067 710.437C343.192 707.311 347.432 705.555 351.852 705.555ZM388.889 705.555C393.309 705.555 397.548 707.311 400.674 710.437C403.8 713.563 405.556 717.802 405.556 722.222C405.556 726.642 403.8 730.882 400.674 734.007C397.548 737.133 393.309 738.889 388.889 738.889C384.469 738.889 380.229 737.133 377.104 734.007C373.978 730.882 372.222 726.642 372.222 722.222C372.222 717.802 373.978 713.563 377.104 710.437C380.229 707.311 384.469 705.555 388.889 705.555ZM425.926 705.555C430.346 705.555 434.585 707.311 437.711 710.437C440.837 713.563 442.593 717.802 442.593 722.222C442.593 726.642 440.837 730.882 437.711 734.007C434.585 737.133 430.346 738.889 425.926 738.889C421.506 738.889 417.266 737.133 414.141 734.007C411.015 730.882 409.259 726.642 409.259 722.222C409.259 717.802 411.015 713.563 414.141 710.437C417.266 707.311 421.506 705.555 425.926 705.555ZM611.111 705.555C615.531 705.555 619.771 707.311 622.896 710.437C626.022 713.563 627.778 717.802 627.778 722.222C627.778 726.642 626.022 730.882 622.896 734.007C619.771 737.133 615.531 738.889 611.111 738.889C606.691 738.889 602.452 737.133 599.326 734.007C596.2 730.882 594.444 726.642 594.444 722.222C594.444 717.802 596.2 713.563 599.326 710.437C602.452 707.311 606.691 705.555 611.111 705.555ZM648.148 705.555C652.568 705.555 656.808 707.311 659.933 710.437C663.059 713.563 664.815 717.802 664.815 722.222C664.815 726.642 663.059 730.882 659.933 734.007C656.808 737.133 652.568 738.889 648.148 738.889C643.728 738.889 639.489 737.133 636.363 734.007C633.238 730.882 631.481 726.642 631.481 722.222C631.481 717.802 633.238 713.563 636.363 710.437C639.489 707.311 643.728 705.555 648.148 705.555ZM722.222 705.555C726.643 705.555 730.882 707.311 734.007 710.437C737.133 713.563 738.889 717.802 738.889 722.222C738.889 726.642 737.133 730.882 734.007 734.007C730.882 737.133 726.643 738.889 722.222 738.889C717.802 738.889 713.563 737.133 710.437 734.007C707.312 730.882 705.556 726.642 705.556 722.222C705.556 717.802 707.312 713.563 710.437 710.437C713.563 707.311 717.802 705.555 722.222 705.555ZM796.296 705.555C800.717 705.555 804.956 707.311 808.081 710.437C811.207 713.563 812.963 717.802 812.963 722.222C812.963 726.642 811.207 730.882 808.081 734.007C804.956 737.133 800.717 738.889 796.296 738.889C791.876 738.889 787.637 737.133 784.511 734.007C781.386 730.882 779.63 726.642 779.63 722.222C779.63 717.802 781.386 713.563 784.511 710.437C787.637 707.311 791.876 705.555 796.296 705.555ZM833.333 705.555C837.754 705.555 841.993 707.311 845.118 710.437C848.244 713.563 850 717.802 850 722.222C850 726.642 848.244 730.882 845.118 734.007C841.993 737.133 837.754 738.889 833.333 738.889C828.913 738.889 824.674 737.133 821.548 734.007C818.423 730.882 816.667 726.642 816.667 722.222C816.667 717.802 818.423 713.563 821.548 710.437C824.674 707.311 828.913 705.555 833.333 705.555ZM907.407 705.555C911.828 705.555 916.067 707.311 919.193 710.437C922.318 713.563 924.074 717.802 924.074 722.222C924.074 726.642 922.318 730.882 919.193 734.007C916.067 737.133 911.828 738.889 907.407 738.889C902.987 738.889 898.748 737.133 895.622 734.007C892.497 730.882 890.741 726.642 890.741 722.222C890.741 717.802 892.497 713.563 895.622 710.437C898.748 707.311 902.987 705.555 907.407 705.555ZM944.444 705.555C948.865 705.555 953.104 707.311 956.23 710.437C959.355 713.563 961.111 717.802 961.111 722.222C961.111 726.642 959.355 730.882 956.23 734.007C953.104 737.133 948.865 738.889 944.444 738.889C940.024 738.889 935.785 737.133 932.659 734.007C929.534 730.882 927.778 726.642 927.778 722.222C927.778 717.802 929.534 713.563 932.659 710.437C935.785 707.311 940.024 705.555 944.444 705.555ZM388.889 742.592C393.309 742.592 397.548 744.348 400.674 747.474C403.8 750.6 405.556 754.839 405.556 759.259C405.556 763.679 403.8 767.919 400.674 771.044C397.548 774.17 393.309 775.926 388.889 775.926C384.469 775.926 380.229 774.17 377.104 771.044C373.978 767.919 372.222 763.679 372.222 759.259C372.222 754.839 373.978 750.6 377.104 747.474C380.229 744.348 384.469 742.592 388.889 742.592ZM462.963 742.592C467.383 742.592 471.622 744.348 474.748 747.474C477.874 750.6 479.63 754.839 479.63 759.259C479.63 763.679 477.874 767.919 474.748 771.044C471.622 774.17 467.383 775.926 462.963 775.926C458.543 775.926 454.303 774.17 451.178 771.044C448.052 767.919 446.296 763.679 446.296 759.259C446.296 754.839 448.052 750.6 451.178 747.474C454.303 744.348 458.543 742.592 462.963 742.592ZM648.148 742.592C652.568 742.592 656.808 744.348 659.933 747.474C663.059 750.6 664.815 754.839 664.815 759.259C664.815 763.679 663.059 767.919 659.933 771.044C656.808 774.17 652.568 775.926 648.148 775.926C643.728 775.926 639.489 774.17 636.363 771.044C633.238 767.919 631.481 763.679 631.481 759.259C631.481 754.839 633.238 750.6 636.363 747.474C639.489 744.348 643.728 742.592 648.148 742.592ZM796.296 742.592C800.717 742.592 804.956 744.348 808.081 747.474C811.207 750.6 812.963 754.839 812.963 759.259C812.963 763.679 811.207 767.919 808.081 771.044C804.956 774.17 800.717 775.926 796.296 775.926C791.876 775.926 787.637 774.17 784.511 771.044C781.386 767.919 779.63 763.679 779.63 759.259C779.63 754.839 781.386 750.6 784.511 747.474C787.637 744.348 791.876 742.592 796.296 742.592ZM833.333 742.592C837.754 742.592 841.993 744.348 845.118 747.474C848.244 750.6 850 754.839 850 759.259C850 763.679 848.244 767.919 845.118 771.044C841.993 774.17 837.754 775.926 833.333 775.926C828.913 775.926 824.674 774.17 821.548 771.044C818.423 767.919 816.667 763.679 816.667 759.259C816.667 754.839 818.423 750.6 821.548 747.474C824.674 744.348 828.913 742.592 833.333 742.592ZM870.37 742.592C874.791 742.592 879.03 744.348 882.156 747.474C885.281 750.6 887.037 754.839 887.037 759.259C887.037 763.679 885.281 767.919 882.156 771.044C879.03 774.17 874.791 775.926 870.37 775.926C865.95 775.926 861.711 774.17 858.585 771.044C855.46 767.919 853.704 763.679 853.704 759.259C853.704 754.839 855.46 750.6 858.585 747.474C861.711 744.348 865.95 742.592 870.37 742.592ZM907.407 742.592C911.828 742.592 916.067 744.348 919.193 747.474C922.318 750.6 924.074 754.839 924.074 759.259C924.074 763.679 922.318 767.919 919.193 771.044C916.067 774.17 911.828 775.926 907.407 775.926C902.987 775.926 898.748 774.17 895.622 771.044C892.497 767.919 890.741 763.679 890.741 759.259C890.741 754.839 892.497 750.6 895.622 747.474C898.748 744.348 902.987 742.592 907.407 742.592ZM944.444 742.592C948.865 742.592 953.104 744.348 956.23 747.474C959.355 750.6 961.111 754.839 961.111 759.259C961.111 763.679 959.355 767.919 956.23 771.044C953.104 774.17 948.865 775.926 944.444 775.926C940.024 775.926 935.785 774.17 932.659 771.044C929.534 767.919 927.778 763.679 927.778 759.259C927.778 754.839 929.534 750.6 932.659 747.474C935.785 744.348 940.024 742.592 944.444 742.592ZM425.926 779.629C430.346 779.629 434.585 781.385 437.711 784.511C440.837 787.637 442.593 791.876 442.593 796.296C442.593 800.716 440.837 804.956 437.711 808.081C434.585 811.207 430.346 812.963 425.926 812.963C421.506 812.963 417.266 811.207 414.141 808.081C411.015 804.956 409.259 800.716 409.259 796.296C409.259 791.876 411.015 787.637 414.141 784.511C417.266 781.385 421.506 779.629 425.926 779.629ZM500 779.629C504.42 779.629 508.66 781.385 511.785 784.511C514.911 787.637 516.667 791.876 516.667 796.296C516.667 800.716 514.911 804.956 511.785 808.081C508.66 811.207 504.42 812.963 500 812.963C495.58 812.963 491.341 811.207 488.215 808.081C485.089 804.956 483.333 800.716 483.333 796.296C483.333 791.876 485.089 787.637 488.215 784.511C491.341 781.385 495.58 779.629 500 779.629ZM537.037 779.629C541.457 779.629 545.697 781.385 548.822 784.511C551.948 787.637 553.704 791.876 553.704 796.296C553.704 800.716 551.948 804.956 548.822 808.081C545.697 811.207 541.457 812.963 537.037 812.963C532.617 812.963 528.378 811.207 525.252 808.081C522.126 804.956 520.37 800.716 520.37 796.296C520.37 791.876 522.126 787.637 525.252 784.511C528.378 781.385 532.617 779.629 537.037 779.629ZM574.074 779.629C578.494 779.629 582.734 781.385 585.859 784.511C588.985 787.637 590.741 791.876 590.741 796.296C590.741 800.716 588.985 804.956 585.859 808.081C582.734 811.207 578.494 812.963 574.074 812.963C569.654 812.963 565.415 811.207 562.289 808.081C559.163 804.956 557.407 800.716 557.407 796.296C557.407 791.876 559.163 787.637 562.289 784.511C565.415 781.385 569.654 779.629 574.074 779.629ZM648.148 779.629C652.568 779.629 656.808 781.385 659.933 784.511C663.059 787.637 664.815 791.876 664.815 796.296C664.815 800.716 663.059 804.956 659.933 808.081C656.808 811.207 652.568 812.963 648.148 812.963C643.728 812.963 639.489 811.207 636.363 808.081C633.238 804.956 631.481 800.716 631.481 796.296C631.481 791.876 633.238 787.637 636.363 784.511C639.489 781.385 643.728 779.629 648.148 779.629ZM685.185 779.629C689.606 779.629 693.845 781.385 696.97 784.511C700.096 787.637 701.852 791.876 701.852 796.296C701.852 800.716 700.096 804.956 696.97 808.081C693.845 811.207 689.606 812.963 685.185 812.963C680.765 812.963 676.526 811.207 673.4 808.081C670.275 804.956 668.519 800.716 668.519 796.296C668.519 791.876 670.275 787.637 673.4 784.511C676.526 781.385 680.765 779.629 685.185 779.629ZM722.222 779.629C726.643 779.629 730.882 781.385 734.007 784.511C737.133 787.637 738.889 791.876 738.889 796.296C738.889 800.716 737.133 804.956 734.007 808.081C730.882 811.207 726.643 812.963 722.222 812.963C717.802 812.963 713.563 811.207 710.437 808.081C707.312 804.956 705.556 800.716 705.556 796.296C705.556 791.876 707.312 787.637 710.437 784.511C713.563 781.385 717.802 779.629 722.222 779.629ZM759.259 779.629C763.68 779.629 767.919 781.385 771.044 784.511C774.17 787.637 775.926 791.876 775.926 796.296C775.926 800.716 774.17 804.956 771.044 808.081C767.919 811.207 763.68 812.963 759.259 812.963C754.839 812.963 750.6 811.207 747.474 808.081C744.349 804.956 742.593 800.716 742.593 796.296C742.593 791.876 744.349 787.637 747.474 784.511C750.6 781.385 754.839 779.629 759.259 779.629ZM796.296 779.629C800.717 779.629 804.956 781.385 808.081 784.511C811.207 787.637 812.963 791.876 812.963 796.296C812.963 800.716 811.207 804.956 808.081 808.081C804.956 811.207 800.717 812.963 796.296 812.963C791.876 812.963 787.637 811.207 784.511 808.081C781.386 804.956 779.63 800.716 779.63 796.296C779.63 791.876 781.386 787.637 784.511 784.511C787.637 781.385 791.876 779.629 796.296 779.629ZM833.333 779.629C837.754 779.629 841.993 781.385 845.118 784.511C848.244 787.637 850 791.876 850 796.296C850 800.716 848.244 804.956 845.118 808.081C841.993 811.207 837.754 812.963 833.333 812.963C828.913 812.963 824.674 811.207 821.548 808.081C818.423 804.956 816.667 800.716 816.667 796.296C816.667 791.876 818.423 787.637 821.548 784.511C824.674 781.385 828.913 779.629 833.333 779.629ZM907.407 779.629C911.828 779.629 916.067 781.385 919.193 784.511C922.318 787.637 924.074 791.876 924.074 796.296C924.074 800.716 922.318 804.956 919.193 808.081C916.067 811.207 911.828 812.963 907.407 812.963C902.987 812.963 898.748 811.207 895.622 808.081C892.497 804.956 890.741 800.716 890.741 796.296C890.741 791.876 892.497 787.637 895.622 784.511C898.748 781.385 902.987 779.629 907.407 779.629ZM351.852 816.666C356.272 816.666 360.511 818.422 363.637 821.548C366.763 824.674 368.519 828.913 368.519 833.333C368.519 837.753 366.763 841.993 363.637 845.118C360.511 848.244 356.272 850 351.852 850C347.432 850 343.192 848.244 340.067 845.118C336.941 841.993 335.185 837.753 335.185 833.333C335.185 828.913 336.941 824.674 340.067 821.548C343.192 818.422 347.432 816.666 351.852 816.666ZM388.889 816.666C393.309 816.666 397.548 818.422 400.674 821.548C403.8 824.674 405.556 828.913 405.556 833.333C405.556 837.753 403.8 841.993 400.674 845.118C397.548 848.244 393.309 850 388.889 850C384.469 850 380.229 848.244 377.104 845.118C373.978 841.993 372.222 837.753 372.222 833.333C372.222 828.913 373.978 824.674 377.104 821.548C380.229 818.422 384.469 816.666 388.889 816.666ZM500 816.666C504.42 816.666 508.66 818.422 511.785 821.548C514.911 824.674 516.667 828.913 516.667 833.333C516.667 837.753 514.911 841.993 511.785 845.118C508.66 848.244 504.42 850 500 850C495.58 850 491.341 848.244 488.215 845.118C485.089 841.993 483.333 837.753 483.333 833.333C483.333 828.913 485.089 824.674 488.215 821.548C491.341 818.422 495.58 816.666 500 816.666ZM537.037 816.666C541.457 816.666 545.697 818.422 548.822 821.548C551.948 824.674 553.704 828.913 553.704 833.333C553.704 837.753 551.948 841.993 548.822 845.118C545.697 848.244 541.457 850 537.037 850C532.617 850 528.378 848.244 525.252 845.118C522.126 841.993 520.37 837.753 520.37 833.333C520.37 828.913 522.126 824.674 525.252 821.548C528.378 818.422 532.617 816.666 537.037 816.666ZM648.148 816.666C652.568 816.666 656.808 818.422 659.933 821.548C663.059 824.674 664.815 828.913 664.815 833.333C664.815 837.753 663.059 841.993 659.933 845.118C656.808 848.244 652.568 850 648.148 850C643.728 850 639.489 848.244 636.363 845.118C633.238 841.993 631.481 837.753 631.481 833.333C631.481 828.913 633.238 824.674 636.363 821.548C639.489 818.422 643.728 816.666 648.148 816.666ZM759.259 816.666C763.68 816.666 767.919 818.422 771.044 821.548C774.17 824.674 775.926 828.913 775.926 833.333C775.926 837.753 774.17 841.993 771.044 845.118C767.919 848.244 763.68 850 759.259 850C754.839 850 750.6 848.244 747.474 845.118C744.349 841.993 742.593 837.753 742.593 833.333C742.593 828.913 744.349 824.674 747.474 821.548C750.6 818.422 754.839 816.666 759.259 816.666ZM796.296 816.666C800.717 816.666 804.956 818.422 808.081 821.548C811.207 824.674 812.963 828.913 812.963 833.333C812.963 837.753 811.207 841.993 808.081 845.118C804.956 848.244 800.717 850 796.296 850C791.876 850 787.637 848.244 784.511 845.118C781.386 841.993 779.63 837.753 779.63 833.333C779.63 828.913 781.386 824.674 784.511 821.548C787.637 818.422 791.876 816.666 796.296 816.666ZM833.333 816.666C837.754 816.666 841.993 818.422 845.118 821.548C848.244 824.674 850 828.913 850 833.333C850 837.753 848.244 841.993 845.118 845.118C841.993 848.244 837.754 850 833.333 850C828.913 850 824.674 848.244 821.548 845.118C818.423 841.993 816.667 837.753 816.667 833.333C816.667 828.913 818.423 824.674 821.548 821.548C824.674 818.422 828.913 816.666 833.333 816.666ZM870.37 816.666C874.791 816.666 879.03 818.422 882.156 821.548C885.281 824.674 887.037 828.913 887.037 833.333C887.037 837.753 885.281 841.993 882.156 845.118C879.03 848.244 874.791 850 870.37 850C865.95 850 861.711 848.244 858.585 845.118C855.46 841.993 853.704 837.753 853.704 833.333C853.704 828.913 855.46 824.674 858.585 821.548C861.711 818.422 865.95 816.666 870.37 816.666ZM388.889 853.703C393.309 853.703 397.548 855.459 400.674 858.585C403.8 861.711 405.556 865.95 405.556 870.37C405.556 874.79 403.8 879.03 400.674 882.155C397.548 885.281 393.309 887.037 388.889 887.037C384.469 887.037 380.229 885.281 377.104 882.155C373.978 879.03 372.222 874.79 372.222 870.37C372.222 865.95 373.978 861.711 377.104 858.585C380.229 855.459 384.469 853.703 388.889 853.703ZM611.111 853.703C615.531 853.703 619.771 855.459 622.896 858.585C626.022 861.711 627.778 865.95 627.778 870.37C627.778 874.79 626.022 879.03 622.896 882.155C619.771 885.281 615.531 887.037 611.111 887.037C606.691 887.037 602.452 885.281 599.326 882.155C596.2 879.03 594.444 874.79 594.444 870.37C594.444 865.95 596.2 861.711 599.326 858.585C602.452 855.459 606.691 853.703 611.111 853.703ZM648.148 853.703C652.568 853.703 656.808 855.459 659.933 858.585C663.059 861.711 664.815 865.95 664.815 870.37C664.815 874.79 663.059 879.03 659.933 882.155C656.808 885.281 652.568 887.037 648.148 887.037C643.728 887.037 639.489 885.281 636.363 882.155C633.238 879.03 631.481 874.79 631.481 870.37C631.481 865.95 633.238 861.711 636.363 858.585C639.489 855.459 643.728 853.703 648.148 853.703ZM759.259 853.703C763.68 853.703 767.919 855.459 771.044 858.585C774.17 861.711 775.926 865.95 775.926 870.37C775.926 874.79 774.17 879.03 771.044 882.155C767.919 885.281 763.68 887.037 759.259 887.037C754.839 887.037 750.6 885.281 747.474 882.155C744.349 879.03 742.593 874.79 742.593 870.37C742.593 865.95 744.349 861.711 747.474 858.585C750.6 855.459 754.839 853.703 759.259 853.703ZM796.296 853.703C800.717 853.703 804.956 855.459 808.081 858.585C811.207 861.711 812.963 865.95 812.963 870.37C812.963 874.79 811.207 879.03 808.081 882.155C804.956 885.281 800.717 887.037 796.296 887.037C791.876 887.037 787.637 885.281 784.511 882.155C781.386 879.03 779.63 874.79 779.63 870.37C779.63 865.95 781.386 861.711 784.511 858.585C787.637 855.459 791.876 853.703 796.296 853.703ZM870.37 853.703C874.791 853.703 879.03 855.459 882.156 858.585C885.281 861.711 887.037 865.95 887.037 870.37C887.037 874.79 885.281 879.03 882.156 882.155C879.03 885.281 874.791 887.037 870.37 887.037C865.95 887.037 861.711 885.281 858.585 882.155C855.46 879.03 853.704 874.79 853.704 870.37C853.704 865.95 855.46 861.711 858.585 858.585C861.711 855.459 865.95 853.703 870.37 853.703ZM944.444 853.703C948.865 853.703 953.104 855.459 956.23 858.585C959.355 861.711 961.111 865.95 961.111 870.37C961.111 874.79 959.355 879.03 956.23 882.155C953.104 885.281 948.865 887.037 944.444 887.037C940.024 887.037 935.785 885.281 932.659 882.155C929.534 879.03 927.778 874.79 927.778 870.37C927.778 865.95 929.534 861.711 932.659 858.585C935.785 855.459 940.024 853.703 944.444 853.703ZM351.852 890.741C356.272 890.741 360.511 892.497 363.637 895.622C366.763 898.748 368.519 902.987 368.519 907.407C368.519 911.827 366.763 916.067 363.637 919.192C360.511 922.318 356.272 924.074 351.852 924.074C347.432 924.074 343.192 922.318 340.067 919.192C336.941 916.067 335.185 911.827 335.185 907.407C335.185 902.987 336.941 898.748 340.067 895.622C343.192 892.497 347.432 890.741 351.852 890.741ZM425.926 890.741C430.346 890.741 434.585 892.497 437.711 895.622C440.837 898.748 442.593 902.987 442.593 907.407C442.593 911.827 440.837 916.067 437.711 919.192C434.585 922.318 430.346 924.074 425.926 924.074C421.506 924.074 417.266 922.318 414.141 919.192C411.015 916.067 409.259 911.827 409.259 907.407C409.259 902.987 411.015 898.748 414.141 895.622C417.266 892.497 421.506 890.741 425.926 890.741ZM537.037 890.741C541.457 890.741 545.697 892.497 548.822 895.622C551.948 898.748 553.704 902.987 553.704 907.407C553.704 911.827 551.948 916.067 548.822 919.192C545.697 922.318 541.457 924.074 537.037 924.074C532.617 924.074 528.378 922.318 525.252 919.192C522.126 916.067 520.37 911.827 520.37 907.407C520.37 902.987 522.126 898.748 525.252 895.622C528.378 892.497 532.617 890.741 537.037 890.741ZM574.074 890.741C578.494 890.741 582.734 892.497 585.859 895.622C588.985 898.748 590.741 902.987 590.741 907.407C590.741 911.827 588.985 916.067 585.859 919.192C582.734 922.318 578.494 924.074 574.074 924.074C569.654 924.074 565.415 922.318 562.289 919.192C559.163 916.067 557.407 911.827 557.407 907.407C557.407 902.987 559.163 898.748 562.289 895.622C565.415 892.497 569.654 890.741 574.074 890.741ZM611.111 890.741C615.531 890.741 619.771 892.497 622.896 895.622C626.022 898.748 627.778 902.987 627.778 907.407C627.778 911.827 626.022 916.067 622.896 919.192C619.771 922.318 615.531 924.074 611.111 924.074C606.691 924.074 602.452 922.318 599.326 919.192C596.2 916.067 594.444 911.827 594.444 907.407C594.444 902.987 596.2 898.748 599.326 895.622C602.452 892.497 606.691 890.741 611.111 890.741ZM648.148 890.741C652.568 890.741 656.808 892.497 659.933 895.622C663.059 898.748 664.815 902.987 664.815 907.407C664.815 911.827 663.059 916.067 659.933 919.192C656.808 922.318 652.568 924.074 648.148 924.074C643.728 924.074 639.489 922.318 636.363 919.192C633.238 916.067 631.481 911.827 631.481 907.407C631.481 902.987 633.238 898.748 636.363 895.622C639.489 892.497 643.728 890.741 648.148 890.741ZM833.333 890.741C837.754 890.741 841.993 892.497 845.118 895.622C848.244 898.748 850 902.987 850 907.407C850 911.827 848.244 916.067 845.118 919.192C841.993 922.318 837.754 924.074 833.333 924.074C828.913 924.074 824.674 922.318 821.548 919.192C818.423 916.067 816.667 911.827 816.667 907.407C816.667 902.987 818.423 898.748 821.548 895.622C824.674 892.497 828.913 890.741 833.333 890.741ZM351.852 927.778C356.272 927.778 360.511 929.534 363.637 932.659C366.763 935.785 368.519 940.024 368.519 944.444C368.519 948.865 366.763 953.104 363.637 956.229C360.511 959.355 356.272 961.111 351.852 961.111C347.432 961.111 343.192 959.355 340.067 956.229C336.941 953.104 335.185 948.865 335.185 944.444C335.185 940.024 336.941 935.785 340.067 932.659C343.192 929.534 347.432 927.778 351.852 927.778ZM462.963 927.778C467.383 927.778 471.622 929.534 474.748 932.659C477.874 935.785 479.63 940.024 479.63 944.444C479.63 948.865 477.874 953.104 474.748 956.229C471.622 959.355 467.383 961.111 462.963 961.111C458.543 961.111 454.303 959.355 451.178 956.229C448.052 953.104 446.296 948.865 446.296 944.444C446.296 940.024 448.052 935.785 451.178 932.659C454.303 929.534 458.543 927.778 462.963 927.778ZM611.111 927.778C615.531 927.778 619.771 929.534 622.896 932.659C626.022 935.785 627.778 940.024 627.778 944.444C627.778 948.865 626.022 953.104 622.896 956.229C619.771 959.355 615.531 961.111 611.111 961.111C606.691 961.111 602.452 959.355 599.326 956.229C596.2 953.104 594.444 948.865 594.444 944.444C594.444 940.024 596.2 935.785 599.326 932.659C602.452 929.534 606.691 927.778 611.111 927.778ZM648.148 927.778C652.568 927.778 656.808 929.534 659.933 932.659C663.059 935.785 664.815 940.024 664.815 944.444C664.815 948.865 663.059 953.104 659.933 956.229C656.808 959.355 652.568 961.111 648.148 961.111C643.728 961.111 639.489 959.355 636.363 956.229C633.238 953.104 631.481 948.865 631.481 944.444C631.481 940.024 633.238 935.785 636.363 932.659C639.489 929.534 643.728 927.778 648.148 927.778ZM685.185 927.778C689.606 927.778 693.845 929.534 696.97 932.659C700.096 935.785 701.852 940.024 701.852 944.444C701.852 948.865 700.096 953.104 696.97 956.229C693.845 959.355 689.606 961.111 685.185 961.111C680.765 961.111 676.526 959.355 673.4 956.229C670.275 953.104 668.519 948.865 668.519 944.444C668.519 940.024 670.275 935.785 673.4 932.659C676.526 929.534 680.765 927.778 685.185 927.778ZM759.259 927.778C763.68 927.778 767.919 929.534 771.044 932.659C774.17 935.785 775.926 940.024 775.926 944.444C775.926 948.865 774.17 953.104 771.044 956.229C767.919 959.355 763.68 961.111 759.259 961.111C754.839 961.111 750.6 959.355 747.474 956.229C744.349 953.104 742.593 948.865 742.593 944.444C742.593 940.024 744.349 935.785 747.474 932.659C750.6 929.534 754.839 927.778 759.259 927.778ZM907.407 927.778C911.828 927.778 916.067 929.534 919.193 932.659C922.318 935.785 924.074 940.024 924.074 944.444C924.074 948.865 922.318 953.104 919.193 956.229C916.067 959.355 911.828 961.111 907.407 961.111C902.987 961.111 898.748 959.355 895.622 956.229C892.497 953.104 890.741 948.865 890.741 944.444C890.741 940.024 892.497 935.785 895.622 932.659C898.748 929.534 902.987 927.778 907.407 927.778ZM944.444 927.778C948.865 927.778 953.104 929.534 956.23 932.659C959.355 935.785 961.111 940.024 961.111 944.444C961.111 948.865 959.355 953.104 956.23 956.229C953.104 959.355 948.865 961.111 944.444 961.111C940.024 961.111 935.785 959.355 932.659 956.229C929.534 953.104 927.778 948.865 927.778 944.444C927.778 940.024 929.534 935.785 932.659 932.659C935.785 929.534 940.024 927.778 944.444 927.778Z" fill="black"/>
<path fill-rule="evenodd" clip-rule="evenodd" d="M101.852 37.0371H231.482C248.672 37.0371 265.157 43.8658 277.313 56.0209C289.468 68.1761 296.296 84.662 296.296 101.852V231.482C296.296 248.672 289.468 265.157 277.313 277.313C265.157 289.468 248.672 296.296 231.482 296.296H101.852C84.662 296.296 68.1761 289.468 56.0209 277.313C43.8658 265.157 37.0371 248.672 37.0371 231.482V101.852C37.0371 84.662 43.8658 68.1761 56.0209 56.0209C68.1761 43.8658 84.662 37.0371 101.852 37.0371ZM120.37 74.0741H212.963C219.043 74.0741 225.063 75.2716 230.68 77.5982C236.297 79.9248 241.4 83.335 245.699 87.634C249.998 91.933 253.409 97.0367 255.735 102.654C258.062 108.271 259.259 114.291 259.259 120.37V212.963C259.259 219.043 258.062 225.063 255.735 230.68C253.409 236.297 249.998 241.4 245.699 245.699C241.4 249.998 236.297 253.409 230.68 255.735C225.063 258.062 219.043 259.259 212.963 259.259H120.37C108.092 259.259 96.3163 254.382 87.634 245.699C78.9518 237.017 74.0741 225.242 74.0741 212.963V120.37C74.0741 108.092 78.9518 96.3163 87.634 87.634C96.3163 78.9518 108.092 74.0741 120.37 74.0741ZM138.889 111.111H194.445C201.812 111.111 208.877 114.038 214.086 119.247C219.296 124.456 222.222 131.522 222.222 138.889V194.445C222.222 201.812 219.296 208.877 214.086 214.086C208.877 219.296 201.812 222.222 194.445 222.222H138.889C131.522 222.222 124.456 219.296 119.247 214.086C114.038 208.877 111.111 201.812 111.111 194.445V138.889C111.111 131.522 114.038 124.456 119.247 119.247C124.456 114.038 131.522 111.111 138.889 111.111ZM768.519 37.0371H898.148C915.338 37.0371 931.824 43.8658 943.979 56.0209C956.134 68.1761 962.963 84.662 962.963 101.852V231.482C962.963 248.672 956.134 265.157 943.979 277.313C931.824 289.468 915.338 296.296 898.148 296.296H768.519C751.329 296.296 734.843 289.468 722.688 277.313C710.532 265.157 703.704 248.672 703.704 231.482V101.852C703.704 84.662 710.532 68.1761 722.688 56.0209C734.843 43.8658 751.329 37.0371 768.519 37.0371ZM787.037 74.0741H879.63C885.709 74.0741 891.73 75.2716 897.346 77.5982C902.963 79.9248 908.067 83.335 912.366 87.634C916.665 91.933 920.075 97.0367 922.402 102.654C924.729 108.271 925.926 114.291 925.926 120.37V212.963C925.926 219.043 924.729 225.063 922.402 230.68C920.075 236.297 916.665 241.4 912.366 245.699C908.067 249.998 902.963 253.409 897.346 255.735C891.73 258.062 885.709 259.259 879.63 259.259H787.037C774.759 259.259 762.983 254.382 754.301 245.699C745.618 237.017 740.741 225.242 740.741 212.963V120.37C740.741 108.092 745.618 96.3163 754.301 87.634C762.983 78.9518 774.759 74.0741 787.037 74.0741ZM805.556 111.111H861.111C868.478 111.111 875.544 114.038 880.753 119.247C885.962 124.456 888.889 131.522 888.889 138.889V194.445C888.889 201.812 885.962 208.877 880.753 214.086C875.544 219.296 868.478 222.222 861.111 222.222H805.556C798.189 222.222 791.123 219.296 785.914 214.086C780.704 208.877 777.778 201.812 777.778 194.445V138.889C777.778 131.522 780.704 124.456 785.914 119.247C791.123 114.038 798.189 111.111 805.556 111.111ZM101.852 703.704H231.482C248.672 703.704 265.157 710.532 277.313 722.688C289.468 734.843 296.296 751.329 296.296 768.519V898.148C296.296 915.338 289.468 931.824 277.313 943.979C265.157 956.134 248.672 962.963 231.482 962.963H101.852C84.662 962.963 68.1761 956.134 56.0209 943.979C43.8658 931.824 37.0371 915.338 37.0371 898.148V768.519C37.0371 751.329 43.8658 734.843 56.0209 722.688C68.1761 710.532 84.662 703.704 101.852 703.704ZM120.37 740.741H212.963C219.043 740.741 225.063 741.938 230.68 744.265C236.297 746.591 241.4 750.002 245.699 754.301C249.998 758.6 253.409 763.703 255.735 769.32C258.062 774.937 259.259 780.957 259.259 787.037V879.63C259.259 885.709 258.062 891.73 255.735 897.346C253.409 902.963 249.998 908.067 245.699 912.366C241.4 916.665 236.297 920.075 230.68 922.402C225.063 924.729 219.043 925.926 212.963 925.926H120.37C114.291 925.926 108.271 924.729 102.654 922.402C97.0367 920.075 91.933 916.665 87.634 912.366C83.335 908.067 79.9248 902.963 77.5982 897.346C75.2716 891.73 74.0741 885.709 74.0741 879.63V787.037C74.0741 774.759 78.9518 762.983 87.634 754.301C96.3163 745.618 108.092 740.741 120.37 740.741ZM138.889 777.778H194.445C201.812 777.778 208.877 780.704 214.086 785.914C219.296 791.123 222.222 798.189 222.222 805.556V861.111C222.222 868.478 219.296 875.544 214.086 880.753C208.877 885.962 201.812 888.889 194.445 888.889H138.889C131.522 888.889 124.456 885.962 119.247 880.753C114.038 875.544 111.111 868.478 111.111 861.111V805.556C111.111 798.189 114.038 791.123 119.247 785.914C124.456 780.704 131.522 777.778 138.889 777.778Z" fill="black"/>
</g>
<defs>
<clipPath id="clip0_208_1748">
<rect width="1000" height="1000" fill="white"/>
</clipPath>
</defs>
</svg>
