<svg width="38" height="38" viewBox="0 0 38 38" fill="none" xmlns="http://www.w3.org/2000/svg">
<path d="M34.8334 21.3401V28.5C34.8334 29.7597 34.333 30.9679 33.4422 31.8587C32.5514 32.7495 31.3432 33.25 30.0834 33.25H7.91675C6.65697 33.25 5.44879 32.7495 4.55799 31.8587C3.66719 30.9679 3.16675 29.7597 3.16675 28.5V21.3401L4.04233 21.7787C8.68297 24.1161 13.8068 25.3333 19.0028 25.3327C24.1989 25.3322 29.3224 24.1139 33.9626 21.7755L34.8334 21.3401ZM22.1667 3.16663C23.4265 3.16663 24.6347 3.66707 25.5255 4.55787C26.4163 5.44867 26.9167 6.65685 26.9167 7.91663V9.49996H30.0834C31.3432 9.49996 32.5514 10.0004 33.4422 10.8912C34.333 11.782 34.8334 12.9902 34.8334 14.25V17.7998L32.5423 18.9461C28.4431 21.0125 23.9254 22.1134 19.3351 22.1645C14.7448 22.2155 10.2036 21.2154 6.0595 19.2406L5.03508 18.734L3.16675 17.7998V14.25C3.16675 12.9902 3.66719 11.782 4.55799 10.8912C5.44879 10.0004 6.65697 9.49996 7.91675 9.49996H11.0834V7.91663C11.0834 6.65685 11.5839 5.44867 12.4747 4.55787C13.3655 3.66707 14.5736 3.16663 15.8334 3.16663H22.1667ZM19.0001 15.8333C18.5802 15.8333 18.1774 16.0001 17.8805 16.297C17.5836 16.594 17.4167 16.9967 17.4167 17.4166C17.4157 17.6246 17.4556 17.8306 17.5342 18.0231C17.6129 18.2156 17.7286 18.3908 17.8749 18.5385C18.0212 18.6863 18.1952 18.8038 18.3869 18.8843C18.5786 18.9649 18.7842 19.0068 18.9922 19.0079C19.2001 19.0089 19.4062 18.969 19.5987 18.8904C19.7912 18.8118 19.9663 18.696 20.1141 18.5497C20.2618 18.4034 20.3793 18.2295 20.4599 18.0378C20.5404 17.8461 20.5824 17.6404 20.5834 17.4325C20.5834 16.5426 19.8741 15.8333 19.0001 15.8333ZM22.1667 6.33329H15.8334C15.4135 6.33329 15.0108 6.50011 14.7138 6.79704C14.4169 7.09397 14.2501 7.4967 14.2501 7.91663V9.49996H23.7501V7.91663C23.7501 7.4967 23.5833 7.09397 23.2863 6.79704C22.9894 6.50011 22.5867 6.33329 22.1667 6.33329Z" fill="#FF0000"/>
</svg>
