<svg width="38" height="38" viewBox="0 0 38 38" fill="none" xmlns="http://www.w3.org/2000/svg">
<path d="M32.0624 19.3206C32.0684 19.1068 32.0684 18.8931 32.0624 18.6793L34.2771 15.9124C34.3933 15.7672 34.4736 15.5967 34.5118 15.4146C34.55 15.2326 34.5448 15.0442 34.4968 14.8645C34.1331 13.5 33.59 12.1897 32.8818 10.968C32.789 10.8082 32.6602 10.6722 32.5055 10.5709C32.3509 10.4696 32.1748 10.4058 31.9912 10.3846L28.4703 9.99276C28.3238 9.83838 28.1754 9.68995 28.0249 9.54745L27.6093 6.0176C27.5879 5.83385 27.5239 5.65764 27.4224 5.50301C27.3209 5.34839 27.1846 5.21962 27.0245 5.12698C25.8028 4.41932 24.4925 3.87722 23.128 3.51495C22.9483 3.46694 22.7599 3.46181 22.5778 3.49997C22.3958 3.53813 22.2253 3.61851 22.08 3.73463L19.3206 5.93745H18.6793L15.9124 3.72721C15.7672 3.61109 15.5967 3.53071 15.4146 3.49255C15.2326 3.45439 15.0442 3.45952 14.8645 3.50752C13.5 3.87124 12.1897 4.4143 10.968 5.12252C10.8082 5.21534 10.6722 5.34418 10.5709 5.4988C10.4696 5.65341 10.4058 5.82954 10.3846 6.01315L9.99276 9.54002C9.83838 9.68747 9.68995 9.83591 9.54745 9.98534L6.0176 10.3906C5.83385 10.4119 5.65764 10.476 5.50301 10.5775C5.34839 10.679 5.21962 10.8153 5.12698 10.9754C4.41943 12.1973 3.87687 13.5075 3.51346 14.8719C3.46566 15.0517 3.46077 15.2402 3.49919 15.4222C3.53761 15.6043 3.61825 15.7747 3.73463 15.9199L5.93745 18.6793V19.3206L3.72721 22.0874C3.61109 22.2327 3.53071 22.4032 3.49255 22.5853C3.45439 22.7673 3.45952 22.9557 3.50752 23.1354C3.87124 24.4999 4.4143 25.8102 5.12252 27.0319C5.21534 27.1917 5.34418 27.3277 5.4988 27.429C5.65341 27.5303 5.82954 27.594 6.01315 27.6153L9.53409 28.0071C9.68153 28.1615 9.82997 28.3099 9.9794 28.4524L10.3906 31.9823C10.4119 32.166 10.476 32.3422 10.5775 32.4969C10.679 32.6515 10.8153 32.7803 10.9754 32.8729C12.1973 33.5805 13.5075 34.123 14.8719 34.4864C15.0517 34.5342 15.2402 34.5391 15.4222 34.5007C15.6043 34.4623 15.7747 34.3816 15.9199 34.2653L18.6793 32.0624C18.8931 32.0684 19.1068 32.0684 19.3206 32.0624L22.0874 34.2771C22.2327 34.3933 22.4032 34.4736 22.5853 34.5118C22.7673 34.55 22.9557 34.5448 23.1354 34.4968C24.5002 34.1338 25.8105 33.5907 27.0319 32.8818C27.1917 32.789 27.3277 32.6602 27.429 32.5055C27.5303 32.3509 27.594 32.1748 27.6153 31.9912L28.0071 28.4703C28.1615 28.3238 28.3099 28.1754 28.4524 28.0249L31.9823 27.6093C32.166 27.5879 32.3422 27.5239 32.4969 27.4224C32.6515 27.3209 32.7803 27.1846 32.8729 27.0245C33.5805 25.8026 34.123 24.4924 34.4864 23.128C34.5342 22.9482 34.5391 22.7597 34.5007 22.5777C34.4623 22.3956 34.3816 22.2252 34.2653 22.08L32.0624 19.3206ZM18.9999 24.9374C17.8256 24.9374 16.6777 24.5892 15.7012 23.9368C14.7248 23.2844 13.9638 22.3571 13.5144 21.2721C13.065 20.1872 12.9474 18.9934 13.1765 17.8416C13.4056 16.6898 13.9711 15.6319 14.8015 14.8015C15.6319 13.9711 16.6898 13.4056 17.8416 13.1765C18.9934 12.9474 20.1872 13.065 21.2721 13.5144C22.3571 13.9638 23.2844 14.7248 23.9368 15.7012C24.5892 16.6777 24.9374 17.8256 24.9374 18.9999C24.9374 20.5747 24.3119 22.0849 23.1984 23.1984C22.0849 24.3119 20.5747 24.9374 18.9999 24.9374Z" fill="#FF0000"/>
</svg>
