<svg width="38" height="38" viewBox="0 0 38 38" fill="none" xmlns="http://www.w3.org/2000/svg">
<path d="M35.625 36.8125H3.5625C2.93261 36.8125 2.32852 36.5623 1.88312 36.1169C1.43772 35.6715 1.1875 35.0674 1.1875 34.4375V2.375C1.1875 2.06006 1.31261 1.75801 1.53531 1.53531C1.75801 1.31261 2.06006 1.1875 2.375 1.1875C2.68994 1.1875 2.99199 1.31261 3.21469 1.53531C3.43739 1.75801 3.5625 2.06006 3.5625 2.375V34.4375H35.625C35.9399 34.4375 36.242 34.5626 36.4647 34.7853C36.6874 35.008 36.8125 35.3101 36.8125 35.625C36.8125 35.9399 36.6874 36.242 36.4647 36.4647C36.242 36.6874 35.9399 36.8125 35.625 36.8125Z" fill="#FF0000"/>
<path d="M11.5781 32.0625H8.60938C7.90075 32.0625 7.22115 31.781 6.72007 31.2799C6.219 30.7789 5.9375 30.0993 5.9375 29.3906V18.1094C5.9375 17.4007 6.219 16.7211 6.72007 16.2201C7.22115 15.719 7.90075 15.4375 8.60938 15.4375H11.5781C12.2868 15.4375 12.9664 15.719 13.4674 16.2201C13.9685 16.7211 14.25 17.4007 14.25 18.1094V29.3906C14.25 30.0993 13.9685 30.7789 13.4674 31.2799C12.9664 31.781 12.2868 32.0625 11.5781 32.0625ZM22.2656 32.0625H19.2969C18.5882 32.0625 17.9086 31.781 17.4076 31.2799C16.9065 30.7789 16.625 30.0993 16.625 29.3906V14.5469C16.625 13.8382 16.9065 13.1586 17.4076 12.6576C17.9086 12.1565 18.5882 11.875 19.2969 11.875H22.2656C22.9743 11.875 23.6539 12.1565 24.1549 12.6576C24.656 13.1586 24.9375 13.8382 24.9375 14.5469V29.3906C24.9375 30.0993 24.656 30.7789 24.1549 31.2799C23.6539 31.781 22.9743 32.0625 22.2656 32.0625ZM32.9264 32.0625H29.9577C29.249 32.0625 28.5694 31.781 28.0684 31.2799C27.5673 30.7789 27.2858 30.0993 27.2858 29.3906V9.79688C27.2858 9.08825 27.5673 8.40865 28.0684 7.90757C28.5694 7.4065 29.249 7.125 29.9577 7.125H32.9264C33.635 7.125 34.3146 7.4065 34.8157 7.90757C35.3168 8.40865 35.5983 9.08825 35.5983 9.79688V29.3906C35.5983 30.0993 35.3168 30.7789 34.8157 31.2799C34.3146 31.781 33.635 32.0625 32.9264 32.0625Z" fill="#FF0000"/>
</svg>
