<svg width="512" height="512" viewBox="0 0 512 512" fill="none" xmlns="http://www.w3.org/2000/svg">
<path d="M123.35 270.05C123.35 299.36 102.05 317.85 76.4099 317.85C47.7099 317.85 24.9399 294.96 24.9399 266.99C24.9399 238.96 47.8299 215.89 75.8599 215.89C88.2799 215.95 102.48 221.95 111.79 231.01L103.16 243.86C95.4499 236.27 85.0399 231.5 75.6799 231.5C57.6899 231.5 40.6699 246.56 40.6699 267C40.6699 286.34 56.0299 302.25 77.0799 302.25C94.0299 302.25 106.76 291.91 106.76 276.85V276.54H76.2199V262.34H122.92C123.16 264.61 123.35 267.3 123.35 270.05Z" fill="#FF0000"/>
<path d="M132.46 279.48C132.46 257.94 149.96 240.43 171.57 240.43C193.05 240.43 210.49 257.93 210.49 279.48C210.49 301.02 193.05 318.53 171.57 318.53C149.97 318.52 132.46 301.02 132.46 279.48ZM195.74 279.48C195.74 266.08 184.91 255.18 171.57 255.18C158.11 255.18 147.21 266.07 147.21 279.48C147.21 292.88 158.1 303.72 171.57 303.72C184.91 303.71 195.74 292.88 195.74 279.48Z" fill="#FF0000"/>
<path d="M281.61 301.2H234.91L228.18 316.19H211.41L257.8 215.51H258.72L305.11 316.19H288.34L281.61 301.2ZM275.61 287.92L258.29 249.36L240.91 287.92H275.61Z" fill="#FF0000"/>
<path d="M315.33 223.54C315.33 218.71 319.25 214.79 324.08 214.79C328.91 214.79 332.83 218.71 332.83 223.54C332.83 228.37 328.91 232.29 324.08 232.29C319.24 232.29 315.33 228.37 315.33 223.54ZM316.67 242.76H331.42V316.2H316.67V242.76Z" fill="#FF0000"/>
<path d="M392.68 239.82L390.29 255.98C389.62 255.92 388.88 255.92 388.15 255.92C377.56 256.04 365.02 261.55 365.02 284.56V316.2H350.27V242.76H364.1L364.96 254.27C372.12 243.67 383.02 239.88 392.68 239.82Z" fill="#FF0000"/>
<path d="M470.96 242.76V316.2H457.13L456.33 305.92C450.64 313.94 441.95 318.53 431.18 318.53C409.33 318.53 395.38 299.8 395.38 279.54C395.38 257.63 410.74 240.43 431.24 240.43C441.83 240.43 450.58 244.96 456.33 253.1L457.13 242.76H470.96ZM456.21 279.42C456.21 264.98 445.93 255.18 433.5 255.18C420.59 255.18 410.12 265.65 410.12 279.35C410.12 292.63 419.91 303.71 433.56 303.71C446.72 303.71 456.21 293.37 456.21 279.42Z" fill="#FF0000"/>
<path d="M475.887 230.56V231.675H471.45V230.56H475.887ZM472.744 228.509H474.059V236.669C474.059 237.041 474.113 237.32 474.221 237.505C474.332 237.687 474.473 237.81 474.644 237.873C474.819 237.933 475.003 237.962 475.196 237.962C475.341 237.962 475.46 237.955 475.553 237.94C475.646 237.922 475.72 237.907 475.776 237.896L476.043 239.077C475.954 239.111 475.83 239.144 475.67 239.178C475.51 239.215 475.308 239.233 475.062 239.233C474.691 239.233 474.327 239.153 473.97 238.994C473.617 238.834 473.323 238.59 473.089 238.263C472.859 237.936 472.744 237.524 472.744 237.026V228.509ZM477.866 239.122V230.56H479.137V231.898H479.248C479.427 231.441 479.715 231.086 480.112 230.833C480.51 230.577 480.987 230.449 481.545 230.449C482.11 230.449 482.58 230.577 482.955 230.833C483.334 231.086 483.629 231.441 483.841 231.898H483.93C484.15 231.456 484.479 231.105 484.917 230.845C485.355 230.581 485.881 230.449 486.494 230.449C487.26 230.449 487.886 230.689 488.373 231.168C488.86 231.644 489.103 232.385 489.103 233.392V239.122H487.788V233.392C487.788 232.76 487.615 232.309 487.269 232.037C486.924 231.766 486.517 231.631 486.049 231.631C485.447 231.631 484.98 231.813 484.649 232.177C484.319 232.537 484.153 232.994 484.153 233.548V239.122H482.816V233.258C482.816 232.771 482.658 232.379 482.342 232.082C482.026 231.781 481.619 231.631 481.121 231.631C480.779 231.631 480.46 231.722 480.162 231.904C479.869 232.086 479.631 232.338 479.449 232.662C479.271 232.981 479.181 233.351 479.181 233.771V239.122H477.866Z" fill="#FF0000"/>
<path d="M171.62 311.72C189.442 311.72 203.89 297.272 203.89 279.45C203.89 261.628 189.442 247.18 171.62 247.18C153.798 247.18 139.35 261.628 139.35 279.45C139.35 297.272 153.798 311.72 171.62 311.72Z" fill="url(#paint0_linear_151_128)"/>
<path d="M170.53 281.53C170.53 281.53 172.26 296.81 173.6 298.84C173.6 298.84 185.11 299.34 192.46 286.35C199.81 273.36 178.56 277.53 178.56 277.53C178.56 277.53 175.44 282.65 170.53 281.53Z" fill="white" stroke="#231F20" stroke-width="0.89" stroke-miterlimit="10"/>
<path d="M172.36 294.27C172.36 294.27 189.85 285.99 193.31 280.03Z" fill="white"/>
<path d="M172.36 294.27C172.36 294.27 189.85 285.99 193.31 280.03" stroke="#231F20" stroke-width="0.89" stroke-miterlimit="10"/>
<path d="M172.85 295.35C172.85 295.35 190.34 287.07 193.8 281.11Z" fill="white"/>
<path d="M172.85 295.35C172.85 295.35 190.34 287.07 193.8 281.11" stroke="#231F20" stroke-width="0.89" stroke-miterlimit="10"/>
<path d="M172.33 284.12C172.33 284.12 175.29 291.43 167.73 296.32C167.73 296.32 167.22 299.05 167.73 299.84C167.74 299.85 167.74 299.86 167.74 299.86C167.66 300 160.55 297.82 156.14 293.16C152.32 289.13 153.55 286.44 148.47 279.85C147.46 278.54 146.08 276.84 145.02 275.62C144.63 275.17 144.99 274.48 145.58 274.54L155.63 275.63C155.63 275.64 170.91 275.67 172.33 284.12Z" fill="white" stroke="#231F20" stroke-width="0.89" stroke-miterlimit="10"/>
<path d="M158.21 279.52C158.21 279.52 164.17 289.92 171.87 292.38" stroke="#231F20" stroke-width="0.5135" stroke-miterlimit="10"/>
<path d="M157.72 280.37C157.72 280.37 163.68 290.77 171.38 293.23" stroke="#231F20" stroke-width="0.5135" stroke-miterlimit="10"/>
<path d="M151.63 274.55C151.63 274.55 157.84 290.57 168.5 295.96" stroke="#231F20" stroke-width="0.5135" stroke-miterlimit="10"/>
<path d="M150.93 275.38C150.93 275.38 157.14 291.4 167.8 296.79" stroke="#231F20" stroke-width="0.5135" stroke-miterlimit="10"/>
<path d="M158.16 281.09C158.16 281.09 157.11 281.43 157.28 281.98C157.54 282.83 158.75 282 158.75 282L158.16 281.09Z" stroke="#231F20" stroke-width="0.5135" stroke-miterlimit="10"/>
<path d="M158.9 282.42C158.9 282.42 157.89 282.85 158.1 283.38C158.43 284.21 159.57 283.27 159.57 283.27L158.9 282.42Z" stroke="#231F20" stroke-width="0.5135" stroke-miterlimit="10"/>
<path d="M159.86 283.67C159.86 283.67 158.85 284.1 159.06 284.63C159.39 285.46 160.53 284.52 160.53 284.52L159.86 283.67Z" stroke="#231F20" stroke-width="0.5135" stroke-miterlimit="10"/>
<path d="M160.79 285.04C160.79 285.04 159.78 285.47 159.99 286C160.32 286.83 161.46 285.89 161.46 285.89L160.79 285.04Z" stroke="#231F20" stroke-width="0.5135" stroke-miterlimit="10"/>
<path d="M161.96 286.34C161.96 286.34 160.98 286.84 161.24 287.36C161.63 288.16 162.69 287.14 162.69 287.14L161.96 286.34Z" stroke="#231F20" stroke-width="0.5135" stroke-miterlimit="10"/>
<path d="M163 287.56C163 287.56 162.03 288.08 162.3 288.6C162.71 289.39 163.75 288.35 163.75 288.35L163 287.56Z" stroke="#231F20" stroke-width="0.5135" stroke-miterlimit="10"/>
<path d="M164.27 288.8C164.27 288.8 163.33 289.37 163.62 289.87C164.06 290.64 165.05 289.55 165.05 289.55L164.27 288.8Z" stroke="#231F20" stroke-width="0.5135" stroke-miterlimit="10"/>
<path d="M165.59 290.01C165.59 290.01 164.69 290.64 165.01 291.12C165.5 291.86 166.42 290.71 166.42 290.71L165.59 290.01Z" stroke="#231F20" stroke-width="0.5135" stroke-miterlimit="10"/>
<path d="M167 291.11C167 291.11 166.18 291.84 166.55 292.28C167.12 292.96 167.9 291.71 167.9 291.71L167 291.11Z" stroke="#231F20" stroke-width="0.5135" stroke-miterlimit="10"/>
<path d="M168.56 292.16C168.56 292.16 167.8 292.95 168.21 293.36C168.84 293.99 169.51 292.68 169.51 292.68L168.56 292.16Z" stroke="#231F20" stroke-width="0.5135" stroke-miterlimit="10"/>
<path d="M155.49 284.41C155.49 284.41 154.43 284.72 154.58 285.27C154.81 286.13 156.05 285.33 156.05 285.33L155.49 284.41Z" stroke="#231F20" stroke-width="0.5135" stroke-miterlimit="10"/>
<path d="M156.42 285.8C156.42 285.8 155.4 286.2 155.59 286.74C155.89 287.58 157.06 286.67 157.06 286.67L156.42 285.8Z" stroke="#231F20" stroke-width="0.5135" stroke-miterlimit="10"/>
<path d="M157.37 287.14C157.37 287.14 156.35 287.54 156.54 288.08C156.84 288.92 158.01 288.01 158.01 288.01L157.37 287.14Z" stroke="#231F20" stroke-width="0.5135" stroke-miterlimit="10"/>
<path d="M158.41 288.48C158.41 288.48 157.39 288.88 157.58 289.42C157.88 290.26 159.05 289.35 159.05 289.35L158.41 288.48Z" stroke="#231F20" stroke-width="0.5135" stroke-miterlimit="10"/>
<path d="M159.41 289.88C159.41 289.88 158.42 290.35 158.66 290.88C159.03 291.69 160.12 290.7 160.12 290.7L159.41 289.88Z" stroke="#231F20" stroke-width="0.5135" stroke-miterlimit="10"/>
<path d="M160.55 291.07C160.55 291.07 159.57 291.56 159.82 292.09C160.2 292.89 161.27 291.88 161.27 291.88L160.55 291.07Z" stroke="#231F20" stroke-width="0.5135" stroke-miterlimit="10"/>
<path d="M161.77 292.34C161.77 292.34 160.81 292.88 161.09 293.39C161.51 294.17 162.53 293.11 162.53 293.11L161.77 292.34Z" stroke="#231F20" stroke-width="0.5135" stroke-miterlimit="10"/>
<path d="M163.06 293.59C163.06 293.59 162.14 294.19 162.45 294.68C162.92 295.43 163.87 294.31 163.87 294.31L163.06 293.59Z" stroke="#231F20" stroke-width="0.5135" stroke-miterlimit="10"/>
<path d="M164.43 294.73C164.43 294.73 163.58 295.43 163.94 295.88C164.49 296.58 165.31 295.35 165.31 295.35L164.43 294.73Z" stroke="#231F20" stroke-width="0.5135" stroke-miterlimit="10"/>
<path d="M165.96 295.83C165.96 295.83 165.17 296.6 165.57 297.02C166.18 297.67 166.89 296.38 166.89 296.38L165.96 295.83Z" stroke="#231F20" stroke-width="0.5135" stroke-miterlimit="10"/>
<path d="M154.65 283.04C154.65 283.04 153.59 283.35 153.74 283.9C153.97 284.76 155.21 283.96 155.21 283.96L154.65 283.04Z" stroke="#231F20" stroke-width="0.5135" stroke-miterlimit="10"/>
<path d="M153.79 281.55C153.79 281.55 152.73 281.86 152.88 282.41C153.11 283.27 154.35 282.47 154.35 282.47L153.79 281.55Z" stroke="#231F20" stroke-width="0.5135" stroke-miterlimit="10"/>
<path d="M152.98 280.06C152.98 280.06 151.92 280.37 152.07 280.92C152.3 281.78 153.54 280.98 153.54 280.98L152.98 280.06Z" stroke="#231F20" stroke-width="0.5135" stroke-miterlimit="10"/>
<path d="M152.28 278.59C152.28 278.59 151.21 278.82 151.31 279.39C151.48 280.26 152.77 279.55 152.77 279.55L152.28 278.59Z" stroke="#231F20" stroke-width="0.5135" stroke-miterlimit="10"/>
<path d="M147.54 276.15C147.54 276.15 150.84 274.27 150.81 278.48C150.8 280.69 149.37 280.93 148.02 280.66C146.27 280.31 144.71 279.2 143.88 277.54C143.11 275.99 142.85 273.78 145.26 271.35C146.7 269.9 148.8 269.35 150.68 270.06C151.77 270.48 153.03 271.28 154.34 272.77C154.91 273.41 155.64 273.89 156.45 274.07C157.11 274.22 157.83 274.2 158.23 273.62C158.23 273.62 160.66 272.96 161.8 271.47C162.93 269.98 166.1 264.23 171.12 263.97C171.12 263.97 174.39 263.74 176.02 264.6C177.08 265.15 178.75 263.69 179.8 262.58C180.85 261.48 182.32 260.88 183.79 261.05C185.06 261.2 186.19 261.96 186.55 264.05C186.55 264.05 188.64 264.98 188.07 267.24C188.07 267.24 188.98 270.68 186.87 270.89C184.85 271.09 180.94 274.8 180.22 278.44C180.11 278.97 179.91 279.46 179.65 279.93C178.78 281.52 176.78 284.39 173.75 284.13C173.75 284.13 170.84 283.79 169.36 281.65C168.81 280.85 168.04 280.21 167.1 280.05C165.75 279.82 165.15 279.88 162.03 282.17C162.03 282.17 164 276.78 164.54 276.22C163.78 277.18 161.07 280.25 157.79 280.63C156.3 280.8 154.81 280.15 153.96 278.85C152.79 277.06 150.38 274.3 147.54 276.15Z" fill="white"/>
<path d="M147.54 276.15C148.45 275.47 150.16 275.32 150.68 276.61C151.23 277.99 151.36 280.37 149.57 280.9C144.87 281.63 140.98 275.82 144.29 271.99C145.68 270.02 148.32 268.86 150.68 269.74C152.2 270.29 153.45 271.33 154.49 272.48C154.97 273.03 155.55 273.46 156.21 273.68C156.91 273.91 157.71 273.93 158 273.36L158.13 273.32C159.44 272.9 160.8 272.25 161.59 271.17C162.4 269.99 163.22 268.74 164.19 267.62C165.64 265.94 167.47 264.39 169.69 263.83C171.89 263.41 174.25 263.44 176.32 264.32C177.5 264.43 178.71 263.07 179.56 262.25C181.91 259.74 186.51 260.04 186.94 264L186.69 263.68C188.06 264.32 188.87 265.89 188.43 267.35V267.15C188.69 268.38 188.95 269.96 187.87 270.95C187.48 271.31 186.82 271.33 186.6 271.4C185.24 271.84 184.03 272.97 183.07 274.04C182.07 275.19 181.24 276.5 180.8 277.93C180.62 278.64 180.41 279.58 179.99 280.24C178.79 282.37 176.93 284.51 174.24 284.61C172.12 284.55 170.04 283.49 168.87 281.73C166.86 279.06 164.28 280.91 162.15 282.36L161.63 282.7L161.82 282.11C162.55 280.03 163.13 277.94 164.4 276.11L164.67 276.35C162.56 278.88 159.24 281.89 155.68 280.69C153.92 280.09 153.31 278.17 152 277.05C150.8 275.82 149.14 275.39 147.54 276.15ZM147.54 276.15C148.88 274.76 151.17 275.3 152.44 276.53C153.78 277.55 154.3 279.42 155.93 280.05C159.12 281.17 162.41 278.44 164.39 276.1L164.66 276.34C164.38 276.7 164.24 277.28 164.05 277.76C163.64 278.72 162.62 281.25 162.22 282.24L161.89 281.99C163.22 281.02 164.37 279.8 166.13 279.58C167.47 279.48 168.76 280.12 169.54 281.19C170.2 282.15 171.04 282.77 172.1 283.21C175.04 284.73 177.87 282.38 179.19 279.78C179.61 279.08 179.71 278.46 179.93 277.65C180.42 276.05 181.32 274.65 182.39 273.42C183.48 272.22 184.68 271.07 186.39 270.53C186.92 270.42 187.12 270.44 187.34 270.26C188.07 269.54 187.83 268.21 187.64 267.26C187.86 266.4 187.69 265.51 187.02 264.91C186.76 264.66 186.46 264.48 186.15 264.34C185.86 260.9 182.24 260.68 180.14 262.8C179.05 263.82 177.82 265.29 176.13 265.07C174.82 264.46 173.39 264.33 171.95 264.33C169.03 264.18 166.55 265.92 164.72 268.07C163.77 269.15 162.98 270.34 162.13 271.56C161.18 272.82 159.75 273.49 158.28 273.95L158.46 273.82C157.9 274.64 156.79 274.57 155.98 274.3C153.8 273.47 152.85 271.03 150.44 270.34C148.35 269.56 146.01 270.6 144.75 272.37C142.03 275.44 144.58 280.05 148.38 280.48C150.23 280.79 150.7 279.4 150.55 277.83C150.51 275.93 149.15 275.44 147.54 276.15Z" fill="#231F20"/>
<path d="M182.75 263.6C182.4 263.73 182.33 264.33 182.74 264.29C182.78 264.29 182.77 264.27 182.78 264.3C182.8 264.37 182.98 264.4 183.29 264.4C183.55 264.59 183.23 265.13 182.87 265.19C182.15 265.35 181.65 264.32 182.06 263.81C182.17 263.61 182.75 263.36 182.75 263.6Z" fill="#231F20"/>
<path d="M183.02 268.22C184.77 268.48 186.42 267.42 188.09 267.11L188.15 267.17C187.78 268.16 186.71 268.54 185.75 268.58C184.82 268.66 183.85 268.7 182.98 268.29C182.98 268.3 183.02 268.22 183.02 268.22Z" fill="#231F20"/>
<path d="M170.4 271.05C170.81 270.02 170.3 268.71 169.09 269.71C168.74 270.02 168.63 270.6 168.84 271C169 271.39 169.65 271.41 170.27 271.17L170.4 271.39C169.84 271.92 168.77 272.19 168.22 271.42C166.57 268.98 171.31 266.94 171.08 270.24C171 270.61 170.93 270.98 170.57 271.26L170.4 271.05Z" fill="#231F20"/>
<path d="M164.24 273.77C164.24 273.77 158.4 272.75 154.47 269.72C154.47 269.72 155.62 276.94 160.26 278.9C160.26 278.9 162.36 279.85 164.15 277.64C164.26 277.51 165.95 274.71 164.24 273.77Z" fill="white" stroke="#231F20" stroke-width="0.89" stroke-miterlimit="10"/>
<path d="M161.62 273.28C161.62 273.28 160.27 277.24 158.88 277.88L160.03 278.78C160.03 278.78 162.44 276.65 162.99 273.68L161.62 273.28Z" fill="white" stroke="#231F20" stroke-width="0.89" stroke-miterlimit="10"/>
<path d="M182.77 292.83C182.77 292.83 177.83 284.95 178.3 280.77C178.55 278.57 179.77 276.33 180.88 274.7C182.35 272.52 184.56 270.91 187.13 270.35C188.6 270.03 190.27 270.01 191.86 270.76C193.63 271.6 194.98 272.49 195.94 273.24C197.65 274.57 198.32 276.93 197.35 278.86C197.34 278.88 197.33 278.9 197.32 278.92C197.1 279.34 196.75 279.67 196.34 279.91C195.1 280.64 192.03 282.36 190.03 282.69C190.03 282.69 190.5 284.82 189.26 286.1C188.01 287.37 184.47 288.57 182.77 292.83Z" fill="white" stroke="#231F20" stroke-width="0.89" stroke-miterlimit="10"/>
<path d="M195.36 278.87C197.4 272.28 190.92 271.88 187.76 272.06C186.61 272.12 185.5 272.5 184.57 273.18C182.25 274.88 178.4 278.92 180.79 285.94" fill="white"/>
<path d="M195.36 278.87C196.01 276.32 195.44 273.74 192.69 272.94C190.43 272.36 187.72 272.07 185.55 273.1C181.06 275.6 179.28 281.08 180.8 285.94C178.51 281.02 180.36 274.96 185.15 272.31C187.58 271.18 190.45 271.48 192.93 272.3C195.83 273.35 196.48 276.23 195.36 278.87Z" fill="#231F20"/>
<path d="M194.49 279.1C194.49 279.1 192.2 281.32 189.88 280.9Z" fill="white"/>
<path d="M194.49 279.1C193.71 280.68 191.52 281.83 189.88 280.9C191.59 280.51 192.82 279.73 194.49 279.1Z" fill="#231F20"/>
<path d="M169.7 270.52C170.042 270.52 170.32 270.242 170.32 269.9C170.32 269.558 170.042 269.28 169.7 269.28C169.358 269.28 169.08 269.558 169.08 269.9C169.08 270.242 169.358 270.52 169.7 270.52Z" stroke="#231F20" stroke-width="0.89" stroke-miterlimit="10"/>
<defs>
<linearGradient id="paint0_linear_151_128" x1="171.615" y1="250.186" x2="171.615" y2="314.725" gradientUnits="userSpaceOnUse">
<stop stop-color="#F8DA18"/>
<stop offset="1" stop-color="#EE652B"/>
</linearGradient>
</defs>
</svg>
