<svg width="38" height="38" viewBox="0 0 38 38" fill="none" xmlns="http://www.w3.org/2000/svg">
<path fill-rule="evenodd" clip-rule="evenodd" d="M36.841 18.2721C37.2932 18.05 37.6387 17.6575 37.8015 17.1807C37.9643 16.704 37.9312 16.1821 37.7093 15.7299L32.699 5.49076C32.5892 5.2667 32.4364 5.06646 32.2492 4.90146C32.062 4.73647 31.8442 4.60996 31.6081 4.52915C31.3721 4.44835 31.1224 4.41483 30.8734 4.43052C30.6244 4.4462 30.3809 4.51078 30.1568 4.62056L26.7444 6.29256C26.2924 6.51429 25.9468 6.90636 25.7837 7.38266C25.6205 7.85896 25.6531 8.38055 25.8742 8.83286L30.8864 19.072C30.9962 19.296 31.149 19.4963 31.3362 19.6613C31.5234 19.8263 31.7412 19.9528 31.9773 20.0336C32.2133 20.1144 32.463 20.1479 32.712 20.1322C32.961 20.1165 33.2045 20.0519 33.4286 19.9422L36.841 18.2721ZM29.4937 7.58836C29.3257 7.6707 29.1755 7.78533 29.0517 7.92571C28.928 8.06609 28.8331 8.22947 28.7725 8.40652C28.7119 8.58357 28.6868 8.77082 28.6985 8.95758C28.7103 9.14435 28.7587 9.32697 28.841 9.49501C28.9234 9.66306 29.038 9.81324 29.1784 9.93699C29.3188 10.0607 29.4822 10.1556 29.6592 10.2162C29.8363 10.2768 30.0235 10.302 30.2103 10.2902C30.397 10.2784 30.5797 10.23 30.7477 10.1477C31.0871 9.98137 31.3465 9.68707 31.4689 9.32951C31.5913 8.97194 31.5666 8.5804 31.4004 8.24101C31.2341 7.90163 30.9398 7.6422 30.5822 7.51981C30.2246 7.39741 29.8331 7.42207 29.4937 7.58836ZM7.6494 5.06896C7.19335 4.85489 6.67095 4.83071 6.19707 5.00173C5.72319 5.17276 5.33663 5.52499 5.1224 5.98096L0.279302 16.3018C0.0652306 16.7578 0.0410483 17.2802 0.212072 17.7541C0.383096 18.228 0.735324 18.6145 1.1913 18.8288L4.6322 20.4438C5.08825 20.6578 5.61066 20.682 6.08454 20.511C6.55841 20.34 6.94497 19.9877 7.1592 19.5318L12.0042 9.21096C12.1101 8.98503 12.1705 8.74045 12.1819 8.49118C12.1933 8.24191 12.1555 7.99283 12.0707 7.75817C11.9858 7.52351 11.8555 7.30787 11.6873 7.12356C11.5191 6.93924 11.3162 6.78987 11.0903 6.68396L7.6494 5.06896ZM3.9216 17.4874C4.0917 17.5721 4.27705 17.622 4.46672 17.6341C4.6564 17.6462 4.84657 17.6202 5.02606 17.5577C5.20554 17.4952 5.3707 17.3974 5.51182 17.2701C5.65294 17.1428 5.76717 16.9885 5.84778 16.8164C5.92839 16.6443 5.97375 16.4578 5.9812 16.2679C5.98865 16.0779 5.95803 15.8885 5.89115 15.7105C5.82426 15.5326 5.72247 15.3699 5.59175 15.2319C5.46103 15.094 5.30404 14.9835 5.13 14.9072C4.78819 14.7491 4.39771 14.7328 4.0439 14.8617C3.69008 14.9907 3.4017 15.2545 3.24177 15.5954C3.08185 15.9363 3.06338 16.3267 3.19041 16.6812C3.31744 17.0358 3.58154 17.3256 3.9216 17.4874Z" fill="#1D965C"/>
<path d="M26.8147 10.4384L26.8413 10.4346H26.847C27.1244 10.3982 27.3904 10.301 27.6259 10.1499C27.8614 9.99883 28.0606 9.7976 28.2093 9.5606L28.4848 8.3028C28.4523 8.05522 28.3713 7.81648 28.2464 7.60024C28.1215 7.384 27.9552 7.19449 27.7571 7.04256C27.5589 6.89063 27.3327 6.77925 27.0915 6.71479C26.8502 6.65033 26.5987 6.63405 26.3511 6.6669H26.3397L26.3017 6.6726L26.1744 6.6916L25.707 6.76C25.3118 6.8189 24.757 6.9082 24.1205 7.026C22.8646 7.2559 21.2116 7.6074 19.8037 8.0767C18.9962 8.3465 18.1944 8.8424 17.4895 9.3592C16.7618 9.8912 16.0227 10.5277 15.3273 11.1737C14.0984 12.335 12.9236 13.5523 11.8066 14.8217C10.7483 16.0187 10.4481 18.0118 11.7743 19.4501C12.4317 20.1645 13.5223 21.1373 14.9872 21.5781C16.5604 22.0531 18.3426 21.8441 20.083 20.5616L21.4529 19.6762C21.6036 19.7902 21.7746 19.9283 21.9659 20.0904C22.4409 20.4894 22.9634 20.9625 23.4555 21.4261C24.0135 21.9527 24.562 22.4892 25.1009 23.0354L25.2054 23.1399L25.2301 23.1665L25.2377 23.1741L25.4619 23.4059L25.7507 23.5484C26.8527 24.0994 27.9984 23.8714 28.7394 23.6244C29.5317 23.3565 30.286 22.9195 30.894 22.5167C31.6569 22.0044 32.3792 21.434 33.0543 20.8105L33.0923 20.7744L33.1056 20.763L33.1094 20.7592C33.4753 20.4125 33.6903 19.9347 33.7038 19.4309C33.7174 18.927 33.5302 18.4384 33.1835 18.0726C32.8368 17.7068 32.359 17.4936 31.8552 17.4801C31.3513 17.4665 30.8628 17.6537 30.4969 18.0004L30.495 18.0023L30.4741 18.0213L30.3791 18.1087C29.8771 18.5577 29.3459 18.9728 28.7888 19.3513C28.397 19.6278 27.9718 19.8538 27.5234 20.0239L27.4797 20.0372L27.3999 19.9574C27.0032 19.5623 26.6016 19.1722 26.1953 18.787L26.0623 18.6597C25.5245 18.1504 24.9727 17.6562 24.4074 17.1777C23.8811 16.7369 23.2807 16.2695 22.743 15.975C21.5403 15.3157 20.406 15.8306 19.8949 16.1593L17.9132 17.4399L17.86 17.4798C17.0411 18.0935 16.4863 18.0612 16.0835 17.9396C15.6541 17.8104 15.2209 17.5121 14.8295 17.1416C15.8098 16.0338 16.8394 14.9707 17.9151 13.9553C18.5459 13.3682 19.1672 12.84 19.7315 12.4258C20.3205 11.9964 20.7499 11.7665 21.0045 11.6829C22.1597 11.2972 23.6056 10.9837 24.8045 10.7633C25.4358 10.6477 26.0692 10.5445 26.7045 10.4536L26.8147 10.4384Z" fill="#1D965C"/>
<path fill-rule="evenodd" clip-rule="evenodd" d="M10.6951 7.737C10.2442 7.93544 9.88801 8.30126 9.70165 8.75729C9.5153 9.21332 9.51336 9.7239 9.69623 10.1813C9.87911 10.6388 10.2325 11.0073 10.6819 11.2092C11.1312 11.411 11.6415 11.4305 12.1049 11.2634L12.1543 11.2444L12.3025 11.1874C13.0461 10.894 13.7935 10.6103 14.5445 10.3362C15.1848 10.1025 15.8327 9.8783 16.3685 9.713C16.6237 9.63429 16.8817 9.56458 17.1418 9.50399L17.2463 9.5192C17.3616 9.53693 17.5072 9.5648 17.6833 9.6028C18.031 9.6807 18.4376 9.789 18.8347 9.903C19.288 10.0324 19.739 10.1699 20.1875 10.3153L20.273 10.3438L20.292 10.3514H20.2977C20.7736 10.5032 21.2902 10.4615 21.7356 10.2353C22.181 10.0091 22.5194 9.61655 22.6775 9.14268C22.8356 8.66881 22.8007 8.15174 22.5804 7.70339C22.3601 7.25503 21.9721 6.91148 21.5004 6.7471L20.9133 8.5103L21.5023 6.7471L21.489 6.7433L21.4624 6.7357L21.3636 6.7034C20.8713 6.54176 20.376 6.38973 19.8778 6.2474C19.424 6.1165 18.9665 5.99866 18.506 5.894C18.0453 5.78081 17.5741 5.71587 17.1 5.7002C16.7447 5.7002 16.3837 5.7762 16.1481 5.8332C15.8688 5.8978 15.5591 5.9852 15.2494 6.0802C14.576 6.29265 13.9077 6.52071 13.2449 6.7642C12.462 7.0497 11.683 7.34549 10.9079 7.6515L10.7521 7.7123L10.6951 7.737ZM7.94769 18.5632L8.00659 18.6183L8.17949 18.7779C9.0423 19.5789 9.91254 20.3719 10.7901 21.1567C11.5387 21.8255 12.312 22.5019 12.9656 23.0415C13.2949 23.3151 13.5749 23.538 13.8054 23.7103C13.9574 23.8218 14.0587 23.8933 14.1094 23.925L19.4978 25.9447C19.8119 26.0624 20.1515 26.0949 20.4823 26.0389C20.813 25.9828 21.123 25.8402 21.3807 25.6255L25.384 22.291C25.5747 22.1242 25.7968 21.9972 26.0373 21.9175C26.2778 21.8378 26.5318 21.807 26.7843 21.8269C27.0369 21.8468 27.2829 21.917 27.5079 22.0334C27.733 22.1498 27.9325 22.31 28.0946 22.5047C28.2568 22.6993 28.3785 22.9244 28.4524 23.1667C28.5263 23.409 28.551 23.6637 28.525 23.9157C28.4991 24.1677 28.423 24.412 28.3012 24.6342C28.1794 24.8563 28.0145 25.0519 27.816 25.2094L23.8146 28.5458C23.0412 29.1902 22.1109 29.6182 21.1184 29.7864C20.1259 29.9546 19.1065 29.857 18.164 29.5034L12.54 27.3944L12.4507 27.3488C11.9168 27.0828 11.1739 26.4938 10.5431 25.9694C9.76999 25.3245 9.0086 24.6658 8.25929 23.9934C7.36273 23.1915 6.47412 22.3808 5.59359 21.5614L5.41499 21.3961L5.35229 21.3391C4.98419 20.9949 4.76788 20.5186 4.75095 20.015C4.73403 19.5113 4.91787 19.0216 5.26204 18.6534C5.60621 18.2853 6.08252 18.069 6.58618 18.0521C7.08983 18.0352 7.57959 18.219 7.94769 18.5632ZM6.52649 28.2323C6.68651 28.0407 6.88271 27.8826 7.10387 27.7669C7.32503 27.6512 7.56683 27.5802 7.81544 27.5579C8.06405 27.5357 8.31461 27.5627 8.55279 27.6373C8.79098 27.7119 9.01212 27.8328 9.20359 27.9929L11.0238 29.5129C11.2959 29.7404 11.6263 29.8872 11.9776 29.9366L14.3279 30.2653C14.575 30.3 14.8129 30.383 15.028 30.5096C15.243 30.6362 15.431 30.804 15.5813 31.0033C15.7315 31.2025 15.841 31.4294 15.9036 31.671C15.9661 31.9127 15.9804 32.1642 15.9457 32.4113C15.9111 32.6585 15.828 32.8964 15.7014 33.1114C15.5748 33.3265 15.4071 33.5145 15.2078 33.6647C15.0085 33.815 14.7816 33.9245 14.54 33.987C14.2984 34.0495 14.0468 34.0639 13.7997 34.0292L11.4513 33.7005C10.3969 33.5525 9.40497 33.1122 8.58799 32.4294L6.76779 30.9094C6.57582 30.7495 6.41726 30.5533 6.30121 30.332C6.18516 30.1108 6.11389 29.8688 6.09147 29.6199C6.06906 29.3711 6.09595 29.1203 6.17059 28.8818C6.24524 28.6434 6.36618 28.422 6.52649 28.2304" fill="#1D965C"/>
</svg>
