<svg width="44" height="44" viewBox="0 0 44 44" fill="none" xmlns="http://www.w3.org/2000/svg">
<g clip-path="url(#clip0_106_130)">
<path fill-rule="evenodd" clip-rule="evenodd" d="M15.2054 23.0627C14.8717 22.7289 14.6842 22.2762 14.6842 21.8042C14.6842 21.3322 14.8717 20.8795 15.2054 20.5457L25.2753 10.4758C25.4395 10.3058 25.6359 10.1702 25.8531 10.0769C26.0702 9.9836 26.3038 9.93449 26.5402 9.93244C26.7765 9.93039 27.0109 9.97543 27.2297 10.0649C27.4485 10.1544 27.6472 10.2866 27.8143 10.4537C27.9815 10.6209 28.1136 10.8196 28.2032 11.0384C28.2927 11.2572 28.3377 11.4916 28.3356 11.7279C28.3336 11.9643 28.2845 12.1978 28.1912 12.415C28.0979 12.6322 27.9623 12.8286 27.7923 12.9928L18.9809 21.8042L27.7923 30.6155C28.1165 30.9512 28.2959 31.4009 28.2919 31.8676C28.2878 32.3343 28.1006 32.7808 27.7706 33.1108C27.4405 33.4409 26.9941 33.6281 26.5274 33.6321C26.0606 33.6362 25.611 33.4568 25.2753 33.1325L15.2054 23.0627Z" fill="black"/>
</g>
<defs>
<clipPath id="clip0_106_130">
<rect width="42.7216" height="42.7216" fill="white" transform="translate(0.443298 0.443359)"/>
</clipPath>
</defs>
</svg>
