<svg width="38" height="38" viewBox="0 0 38 38" fill="none" xmlns="http://www.w3.org/2000/svg">
<path d="M23.7499 22.1667C19.5224 22.1667 11.0833 24.2725 11.0833 28.5V31.6667H36.4166V28.5C36.4166 24.2725 27.9774 22.1667 23.7499 22.1667ZM9.49992 15.8334V11.0834H6.33325V15.8334H1.58325V19H6.33325V23.75H9.49992V19H14.2499V15.8334M23.7499 19C25.4296 19 27.0405 18.3328 28.2283 17.1451C29.416 15.9573 30.0833 14.3464 30.0833 12.6667C30.0833 10.987 29.416 9.37609 28.2283 8.18836C27.0405 7.00063 25.4296 6.33337 23.7499 6.33337C22.0702 6.33337 20.4593 7.00063 19.2716 8.18836C18.0838 9.37609 17.4166 10.987 17.4166 12.6667C17.4166 14.3464 18.0838 15.9573 19.2716 17.1451C20.4593 18.3328 22.0702 19 23.7499 19Z" fill="#FF0000"/>
</svg>
