<svg width="38" height="38" viewBox="0 0 38 38" fill="none" xmlns="http://www.w3.org/2000/svg">
<path d="M36.2544 8.9063C36.0834 8.7996 35.8881 8.73817 35.6869 8.72778C35.4856 8.71739 35.285 8.75839 35.104 8.84692C28.7316 11.9641 24.1805 10.5035 19.3696 8.9627C14.3094 7.35215 9.08438 5.68223 1.85398 9.21208C1.6543 9.30957 1.48598 9.46114 1.36816 9.64955C1.25034 9.83796 1.18775 10.0556 1.1875 10.2779V28.08C1.18747 28.2815 1.23871 28.4796 1.33639 28.6558C1.43407 28.8321 1.57498 28.9805 1.74586 29.0873C1.91674 29.194 2.11198 29.2555 2.31318 29.266C2.51439 29.2765 2.71496 29.2356 2.89602 29.1472C9.26844 26.03 13.8195 27.4907 18.6378 29.0315C21.4938 29.9443 24.4031 30.875 27.6925 30.875C30.2293 30.875 32.9962 30.3229 36.1401 28.788C36.3398 28.6905 36.5081 28.5389 36.6259 28.3505C36.7437 28.1621 36.8063 27.9444 36.8066 27.7222V9.92012C36.8084 9.71812 36.7586 9.519 36.662 9.34159C36.5653 9.16419 36.4251 9.01436 36.2544 8.9063ZM7.125 22.5625C7.125 22.8775 6.99989 23.1795 6.77719 23.4022C6.55449 23.6249 6.25245 23.75 5.9375 23.75C5.62256 23.75 5.32051 23.6249 5.09781 23.4022C4.87511 23.1795 4.75 22.8775 4.75 22.5625V13.0625C4.75 12.7476 4.87511 12.4456 5.09781 12.2229C5.32051 12.0002 5.62256 11.875 5.9375 11.875C6.25245 11.875 6.55449 12.0002 6.77719 12.2229C6.99989 12.4456 7.125 12.7476 7.125 13.0625V22.5625ZM19 23.75C18.0605 23.75 17.1422 23.4715 16.361 22.9495C15.5799 22.4276 14.9711 21.6857 14.6116 20.8178C14.2521 19.9498 14.158 18.9948 14.3413 18.0734C14.5246 17.152 14.9769 16.3056 15.6412 15.6413C16.3055 14.977 17.1519 14.5246 18.0733 14.3413C18.9947 14.158 19.9498 14.2521 20.8177 14.6116C21.6857 14.9711 22.4275 15.58 22.9495 16.3611C23.4714 17.1422 23.75 18.0606 23.75 19C23.75 20.2598 23.2496 21.468 22.3588 22.3588C21.468 23.2496 20.2598 23.75 19 23.75ZM33.25 24.9375C33.25 25.2525 33.1249 25.5545 32.9022 25.7772C32.6795 25.9999 32.3774 26.125 32.0625 26.125C31.7476 26.125 31.4455 25.9999 31.2228 25.7772C31.0001 25.5545 30.875 25.2525 30.875 24.9375V15.4375C30.875 15.1226 31.0001 14.8206 31.2228 14.5979C31.4455 14.3752 31.7476 14.25 32.0625 14.25C32.3774 14.25 32.6795 14.3752 32.9022 14.5979C33.1249 14.8206 33.25 15.1226 33.25 15.4375V24.9375Z" fill="#FF0000"/>
</svg>
