<svg width="38" height="38" viewBox="0 0 38 38" fill="none" xmlns="http://www.w3.org/2000/svg">
<path d="M17.4166 30.0833H20.5833V23.4729L23.1166 26.0062L25.3333 23.75L18.9999 17.4166L12.6666 23.75L14.9228 25.9666L17.4166 23.4729V30.0833ZM9.49992 34.8333C8.62909 34.8333 7.88386 34.5235 7.26425 33.9039C6.64464 33.2843 6.33431 32.5385 6.33325 31.6666V6.33329C6.33325 5.46246 6.64359 4.71724 7.26425 4.09763C7.88492 3.47801 8.63014 3.16768 9.49992 3.16663H22.1666L31.6666 12.6666V31.6666C31.6666 32.5375 31.3568 33.2832 30.7372 33.9039C30.1176 34.5245 29.3718 34.8343 28.4999 34.8333H9.49992ZM20.5833 14.25H28.4999L20.5833 6.33329V14.25Z" fill="#FF0000"/>
</svg>
