<svg width="38" height="38" viewBox="0 0 38 38" fill="none" xmlns="http://www.w3.org/2000/svg">
<path fill-rule="evenodd" clip-rule="evenodd" d="M7.91667 9.89575C6.76187 9.89575 5.65437 10.3545 4.83781 11.1711C4.02124 11.9876 3.5625 13.0951 3.5625 14.2499V28.4999C3.5625 29.6547 4.02124 30.7622 4.83781 31.5788C5.65437 32.3953 6.76187 32.8541 7.91667 32.8541H30.0833C31.2381 32.8541 32.3456 32.3953 33.1622 31.5788C33.9788 30.7622 34.4375 29.6547 34.4375 28.4999V14.2499C34.4375 13.0951 33.9788 11.9876 33.1622 11.1711C32.3456 10.3545 31.2381 9.89575 30.0833 9.89575H7.91667ZM26.125 19.3958C25.6001 19.3958 25.0967 19.6043 24.7255 19.9754C24.3544 20.3466 24.1458 20.85 24.1458 21.3749C24.1458 21.8998 24.3544 22.4032 24.7255 22.7744C25.0967 23.1456 25.6001 23.3541 26.125 23.3541C26.6499 23.3541 27.1533 23.1456 27.5245 22.7744C27.8957 22.4032 28.1042 21.8998 28.1042 21.3749C28.1042 20.85 27.8957 20.3466 27.5245 19.9754C27.1533 19.6043 26.6499 19.3958 26.125 19.3958Z" fill="#FF0000"/>
<path d="M26.1013 4.85923C26.57 4.7343 27.0613 4.71876 27.537 4.8138C28.0128 4.90884 28.4603 5.11193 28.8451 5.40739C29.23 5.70284 29.5417 6.08277 29.7564 6.51784C29.9711 6.95291 30.083 7.43149 30.0833 7.91664H14.25L26.1013 4.85923Z" fill="#FF0000"/>
</svg>
