<svg width="38" height="38" viewBox="0 0 38 38" fill="none" xmlns="http://www.w3.org/2000/svg">
<path d="M3.16675 30.0833C3.16675 32.775 5.22508 34.8333 7.91675 34.8333H30.0834C32.7751 34.8333 34.8334 32.775 34.8334 30.0833V17.4166H3.16675V30.0833ZM30.0834 6.33329H26.9167V4.74996C26.9167 3.79996 26.2834 3.16663 25.3334 3.16663C24.3834 3.16663 23.7501 3.79996 23.7501 4.74996V6.33329H14.2501V4.74996C14.2501 3.79996 13.6167 3.16663 12.6667 3.16663C11.7167 3.16663 11.0834 3.79996 11.0834 4.74996V6.33329H7.91675C5.22508 6.33329 3.16675 8.39163 3.16675 11.0833V14.25H34.8334V11.0833C34.8334 8.39163 32.7751 6.33329 30.0834 6.33329Z" fill="#FF0000"/>
</svg>
