<svg width="44" height="44" viewBox="0 0 44 44" fill="none" xmlns="http://www.w3.org/2000/svg">
<path fill-rule="evenodd" clip-rule="evenodd" d="M28.7946 23.0627C29.1283 22.7289 29.3158 22.2762 29.3158 21.8042C29.3158 21.3322 29.1283 20.8795 28.7946 20.5457L18.7247 10.4758C18.5605 10.3058 18.3641 10.1702 18.1469 10.0769C17.9298 9.9836 17.6962 9.93449 17.4598 9.93244C17.2235 9.93039 16.9891 9.97543 16.7703 10.0649C16.5515 10.1544 16.3528 10.2866 16.1857 10.4537C16.0185 10.6209 15.8863 10.8196 15.7968 11.0384C15.7073 11.2572 15.6623 11.4916 15.6644 11.7279C15.6664 11.9643 15.7155 12.1978 15.8088 12.415C15.9021 12.6322 16.0377 12.8286 16.2077 12.9928L25.0191 21.8042L16.2077 30.6155C15.8835 30.9512 15.704 31.4009 15.7081 31.8676C15.7122 32.3343 15.8994 32.7808 16.2294 33.1108C16.5594 33.4409 17.0059 33.6281 17.4726 33.6321C17.9394 33.6362 18.389 33.4568 18.7247 33.1325L28.7946 23.0627Z" fill="black"/>
</svg>
