<svg width="46" height="46" viewBox="0 0 46 46" fill="none" xmlns="http://www.w3.org/2000/svg">
<path d="M40.2499 40.25L31.9258 31.9259M31.9258 31.9259C33.3497 30.5021 34.4792 28.8117 35.2498 26.9513C36.0203 25.091 36.417 23.097 36.417 21.0834C36.417 19.0697 36.0204 17.0758 35.2498 15.2154C34.4792 13.355 33.3497 11.6646 31.9258 10.2408C30.502 8.81691 28.8116 7.68744 26.9512 6.91684C25.0908 6.14625 23.0969 5.74963 21.0832 5.74963C19.0696 5.74963 17.0757 6.14625 15.2153 6.91684C13.3549 7.68744 11.6645 8.81691 10.2407 10.2408C7.36502 13.1164 5.74951 17.0166 5.74951 21.0834C5.74951 25.1501 7.36502 29.0503 10.2407 31.9259C13.1163 34.8016 17.0165 36.4171 21.0832 36.4171C25.15 36.4171 29.0502 34.8016 31.9258 31.9259Z" stroke="#4C4C4C" stroke-width="3" stroke-linecap="round" stroke-linejoin="round"/>
</svg>
