<svg width="28" height="28" viewBox="0 0 28 28" fill="none" xmlns="http://www.w3.org/2000/svg">
<path fill-rule="evenodd" clip-rule="evenodd" d="M14 4.8418C12.6105 4.8418 10.99 4.87446 9.41034 4.9188L9.34618 4.92113C7.73851 4.96663 6.44118 5.0028 5.41918 5.17196C4.35401 5.34813 3.46968 5.6853 2.76268 6.41213C2.05334 7.1413 1.74418 8.04313 1.59834 9.1223C1.45834 10.1606 1.45834 11.4766 1.45834 13.1123V14.8903C1.45834 16.5236 1.45834 17.8396 1.59834 18.8791C1.74301 19.9583 2.05334 20.8601 2.76268 21.5893C3.46968 22.3173 4.35401 22.6533 5.41918 22.8295C6.44118 22.9986 7.73851 23.0348 9.34618 23.0803L9.41034 23.0826C10.9912 23.127 12.6105 23.1596 14 23.1596C15.3895 23.1596 17.01 23.127 18.5897 23.0826L18.6538 23.0803C20.2615 23.0348 21.5588 22.9986 22.5808 22.8295C23.646 22.6533 24.5303 22.3161 25.2373 21.5893C25.9467 20.8601 26.257 19.9583 26.4017 18.8791C26.5417 17.8408 26.5417 16.5248 26.5417 14.8891V13.1111C26.5417 11.4766 26.5417 10.1606 26.4017 9.1223C26.257 8.04313 25.9467 7.1413 25.2373 6.41213C24.5303 5.68413 23.646 5.34813 22.5808 5.17196C21.5588 5.0028 20.2615 4.96663 18.6527 4.92113L18.5897 4.9188C17.0602 4.87237 15.5302 4.8467 14 4.8418ZM12.684 17.093C12.551 17.169 12.4003 17.2087 12.2471 17.2082C12.0938 17.2077 11.9434 17.1669 11.8109 17.09C11.6784 17.0131 11.5683 16.9028 11.4918 16.77C11.4153 16.6372 11.3751 16.4867 11.375 16.3335V11.6668C11.3751 11.5136 11.4153 11.363 11.4918 11.2303C11.5683 11.0975 11.6784 10.9871 11.8109 10.9102C11.9434 10.8333 12.0938 10.7926 12.2471 10.7921C12.4003 10.7916 12.551 10.8313 12.684 10.9073L16.7673 13.2406C16.9012 13.3172 17.0124 13.4278 17.0898 13.5611C17.1671 13.6945 17.2079 13.8459 17.2079 14.0001C17.2079 14.1543 17.1671 14.3058 17.0898 14.4391C17.0124 14.5725 16.9012 14.6831 16.7673 14.7596L12.684 17.093Z" fill="#A1A8AF"/>
</svg>
