<svg width="28" height="28" viewBox="0 0 28 28" fill="none" xmlns="http://www.w3.org/2000/svg">
<path d="M4 1.75C1.79375 1.75 0 3.31953 0 5.25V22.75C0 24.6805 1.79375 26.25 4 26.25H24C26.2062 26.25 28 24.6805 28 22.75V5.25C28 3.31953 26.2062 1.75 24 1.75H4ZM22.5688 6.34375L16.0812 12.8297L23.7125 21.6562H17.7375L13.0625 16.3023L7.70625 21.6562H4.7375L11.675 14.7164L4.35625 6.34375H10.4812L14.7125 11.2383L19.6 6.34375H22.5688ZM20.2062 20.1031L9.5875 7.81484H7.81875L18.5562 20.1031H20.2H20.2062Z" fill="#A1A8AF"/>
</svg>
