<svg width="28" height="28" viewBox="0 0 28 28" fill="none" xmlns="http://www.w3.org/2000/svg">
<path d="M9.1 2.33301H18.9C22.6333 2.33301 25.6667 5.36634 25.6667 9.09968V18.8997C25.6667 20.6943 24.9537 22.4154 23.6848 23.6844C22.4158 24.9534 20.6946 25.6663 18.9 25.6663H9.1C5.36666 25.6663 2.33333 22.633 2.33333 18.8997V9.09968C2.33333 7.30504 3.04624 5.58391 4.31524 4.31492C5.58424 3.04592 7.30536 2.33301 9.1 2.33301ZM8.86666 4.66634C7.75275 4.66634 6.68447 5.10884 5.89681 5.89649C5.10916 6.68415 4.66666 7.75243 4.66666 8.86634V19.133C4.66666 21.4547 6.545 23.333 8.86666 23.333H19.1333C20.2472 23.333 21.3155 22.8905 22.1032 22.1029C22.8908 21.3152 23.3333 20.2469 23.3333 19.133V8.86634C23.3333 6.54467 21.455 4.66634 19.1333 4.66634H8.86666ZM20.125 6.41634C20.5118 6.41634 20.8827 6.56999 21.1562 6.84348C21.4297 7.11697 21.5833 7.4879 21.5833 7.87467C21.5833 8.26145 21.4297 8.63238 21.1562 8.90587C20.8827 9.17936 20.5118 9.33301 20.125 9.33301C19.7382 9.33301 19.3673 9.17936 19.0938 8.90587C18.8203 8.63238 18.6667 8.26145 18.6667 7.87467C18.6667 7.4879 18.8203 7.11697 19.0938 6.84348C19.3673 6.56999 19.7382 6.41634 20.125 6.41634ZM14 8.16634C15.5471 8.16634 17.0308 8.78092 18.1248 9.87489C19.2187 10.9688 19.8333 12.4526 19.8333 13.9997C19.8333 15.5468 19.2187 17.0305 18.1248 18.1245C17.0308 19.2184 15.5471 19.833 14 19.833C12.4529 19.833 10.9692 19.2184 9.87521 18.1245C8.78124 17.0305 8.16666 15.5468 8.16666 13.9997C8.16666 12.4526 8.78124 10.9688 9.87521 9.87489C10.9692 8.78092 12.4529 8.16634 14 8.16634ZM14 10.4997C13.0717 10.4997 12.1815 10.8684 11.5251 11.5248C10.8687 12.1812 10.5 13.0714 10.5 13.9997C10.5 14.9279 10.8687 15.8182 11.5251 16.4745C12.1815 17.1309 13.0717 17.4997 14 17.4997C14.9283 17.4997 15.8185 17.1309 16.4749 16.4745C17.1312 15.8182 17.5 14.9279 17.5 13.9997C17.5 13.0714 17.1312 12.1812 16.4749 11.5248C15.8185 10.8684 14.9283 10.4997 14 10.4997Z" fill="#A1A8AF"/>
</svg>
